<svg width="96" height="92" viewBox="0 0 96 92" fill="none" xmlns="http://www.w3.org/2000/svg">
<path d="M27.1794 34.9565C31.1474 27.8551 39.0012 22.9121 48.1504 22.705C61.4234 23.0054 71.8952 33.2283 71.8952 45.5686C71.8952 57.909 61.4233 68.1319 48.1501 68.4322C38.5601 68.215 30.3966 62.7957 26.6351 55.1435C25.2032 52.2303 24.4054 48.9883 24.4054 45.5686C24.4054 41.7386 25.4061 38.1301 27.1794 34.9565Z" stroke="#0053A4" stroke-width="3.97099"/>
<path d="M16.7785 45.2733C16.7785 28.8169 30.6837 15.2832 48.1506 15.0096C65.6176 15.2832 79.5228 28.8169 79.5228 45.2733C79.5228 61.7297 65.6176 75.2634 48.1507 75.537C30.6837 75.2634 16.7785 61.7297 16.7785 45.2733Z" stroke="#3B8AD7" stroke-width="3.97099"/>
<path d="M9.21499 45.8651C9.21499 25.4815 26.5043 8.75893 48.1495 8.49858C69.7946 8.75893 87.084 25.4815 87.084 45.8651C87.084 66.2487 69.7946 82.9713 48.1495 83.2316C26.5044 82.9713 9.21499 66.2487 9.21499 45.8651Z" stroke="#81B1E1" stroke-width="3.97099"/>
<path d="M2.28432 45.8649C2.28432 21.8808 22.6761 2.23654 48.1493 1.98788C73.6225 2.23654 94.0142 21.8808 94.0142 45.8649C94.0142 69.849 73.6225 89.4934 48.1493 89.742C22.6761 89.4934 2.28432 69.849 2.28432 45.8649Z" stroke="#C3E0FD" stroke-width="3.97099"/>
</svg>
