<svg width="46" height="34" viewBox="0 0 46 34" fill="none" xmlns="http://www.w3.org/2000/svg">
<g id="Group">
<path id="Vector" d="M17.4589 11.374C18.9803 11.374 20.2136 10.0248 20.2136 8.36049C20.2136 6.69619 18.9803 5.34702 17.4589 5.34702C15.9375 5.34702 14.7041 6.69619 14.7041 8.36049C14.7041 10.0248 15.9375 11.374 17.4589 11.374Z" fill="black"/>
<path id="Vector_2" d="M28.2474 11.374C29.7689 11.374 31.0022 10.0248 31.0022 8.36049C31.0022 6.69619 29.7689 5.34702 28.2474 5.34702C26.726 5.34702 25.4927 6.69619 25.4927 8.36049C25.4927 10.0248 26.726 11.374 28.2474 11.374Z" fill="black"/>
<g id="Group_2">
<path id="Vector_3" d="M34.9571 6.82316C36.5609 6.82316 37.861 5.35554 37.861 3.54513C37.861 1.73472 36.5609 0.26709 34.9571 0.26709C33.3533 0.26709 32.0532 1.73472 32.0532 3.54513C32.0532 5.35554 33.3533 6.82316 34.9571 6.82316Z" fill="black"/>
<path id="Vector_4" d="M38.5347 9.66314V8.7438C38.5347 7.89521 37.9255 7.20801 37.1734 7.20801H32.7399C31.9886 7.20752 31.3794 7.89521 31.3794 8.7438V17.4531C31.3794 18.29 31.9731 18.9685 32.7107 18.986V25.592C32.7107 26.4405 33.3079 27.1287 34.0433 27.1287H35.8709C36.6063 27.1287 37.2034 26.4405 37.2034 25.592V18.9855C37.4447 18.9792 37.6671 18.8983 37.8616 18.7689V10.9823C37.8611 10.4182 38.1329 9.93018 38.5347 9.66314Z" fill="black"/>
<path id="Vector_5" d="M10.5035 6.55607C12.1072 6.55607 13.4073 5.08845 13.4073 3.27804C13.4073 1.46763 12.1072 0 10.5035 0C8.89971 0 7.59961 1.46763 7.59961 3.27804C7.59961 5.08845 8.89971 6.55607 10.5035 6.55607Z" fill="black"/>
<path id="Vector_6" d="M12.7202 6.94025H8.28713C7.53497 6.94025 6.92578 7.62745 6.92578 8.47604V9.39538C7.32719 9.66241 7.59937 10.1504 7.59937 10.7145V18.5011C7.79342 18.631 8.01623 18.7119 8.25708 18.7177V25.3237C8.25708 26.1723 8.85425 26.8605 9.58966 26.8605H11.4168C12.1522 26.8605 12.7494 26.1723 12.7494 25.3237V18.7182C13.4874 18.7008 14.0811 18.0223 14.0811 17.1853V8.47652C14.0811 7.62794 13.4715 6.94025 12.7202 6.94025Z" fill="black"/>
</g>
<path id="Vector_7" d="M12.0043 8.16698L12.0041 8.16701L12.6343 10.3289C12.8629 11.0477 13.3833 11.5675 13.9883 11.7202C15.0812 11.9961 16.2285 12.1489 17.3448 12.1489H28.3638C29.4867 12.1489 30.6297 12.0259 31.7109 11.7227C32.3516 11.5408 32.847 11.016 33.0756 10.325L33.7331 8.16731C33.9416 7.41624 34.6856 6.77586 35.5162 6.94392C36.5431 7.11543 37.043 8.21148 36.7682 9.15092L36.7671 9.15473L36.7671 9.15473L36.1081 11.3173C36.108 11.3178 36.1078 11.3183 36.1076 11.3189C35.5587 13.1853 34.1499 14.6048 32.3811 15.0461L32.379 15.0466C32.2416 15.08 32.1127 15.1049 31.9926 15.1281L31.9894 15.1287C31.9551 15.1353 31.9216 15.1418 31.8884 15.1484L31.5607 20.9129L32.3622 31.1205C32.3622 31.1208 32.3622 31.121 32.3623 31.1212C32.4293 31.9316 31.9954 32.7856 31.1833 32.9995C30.154 33.289 29.2568 32.4864 29.1861 31.49C29.186 31.4896 29.186 31.4892 29.186 31.4888L28.469 22.2025C28.4531 22.0379 28.3474 21.9626 28.2491 21.9626C28.1507 21.9626 28.045 22.0379 28.0291 22.2025L27.312 31.4912L27.3119 31.492C27.242 32.3708 26.5672 33.0747 25.7239 33.0747H25.7235H25.7232H25.7229H25.7225H25.7222H25.7218H25.7215H25.7212H25.7208H25.7205H25.7202H25.7198H25.7195H25.7192H25.7188H25.7185H25.7181H25.7178H25.7175H25.7171H25.7168H25.7165H25.7161H25.7158H25.7155H25.7151H25.7148H25.7144H25.7141H25.7138H25.7134H25.7131H25.7128H25.7124H25.7121H25.7118H25.7114H25.7111H25.7108H25.7104H25.7101H25.7097H25.7094H25.7091H25.7087H25.7084H25.7081H25.7077H25.7074H25.7071H25.7067H25.7064H25.706H25.7057H25.7054H25.705H25.7047H25.7044H25.704H25.7037H25.7034H25.703H25.7027H25.7023H25.702H25.7017H25.7013H25.701H25.7007H25.7003H25.7H25.6997H25.6993H25.699H25.6986H25.6983H25.698H25.6976H25.6973H25.697H25.6966H25.6963H25.696H25.6956H25.6953H25.6949H25.6946H25.6943H25.6939H25.6936H25.6933H25.6929H25.6926H25.6923H25.6919H25.6916H25.6912H25.6909H25.6906H25.6902H25.6899H25.6896H25.6892H25.6889H25.6886H25.6882H25.6879H25.6875H25.6872H25.6869H25.6865H25.6862H25.6859H25.6855H25.6852H25.6849H25.6845H25.6842H25.6838H25.6835H25.6832H25.6828H25.6825H25.6822H25.6818H25.6815H25.6812H25.6808H25.6805H25.6801H25.6798H25.6795H25.6791H25.6788H25.6785H25.6781H25.6778H25.6775H25.6771H25.6768H25.6765H25.6761H25.6758H25.6754H25.6751H25.6748H25.6744H25.6741H25.6738H25.6734H25.6731H25.6728H25.6724H25.6721H25.6717H25.6714H25.6711H25.6707H25.6704H25.6701H25.6697H25.6694H25.6691H25.6687H25.6684H25.668H25.6677H25.6674H25.667H25.6667H25.6664H25.666H25.6657H25.6654H25.665H25.6647H25.6643H25.664H25.6637H25.6633H25.663H25.6627H25.6623H25.662H25.6617H25.6613H25.661H25.6606H25.6603H25.66H25.6596H25.6593H25.659H25.6586H25.6583H25.658H25.6576H25.6573H25.6569H25.6566H25.6563H25.6559H25.6556H25.6553H25.6549H25.6546H25.6543H25.6539H25.6536H25.6532H25.6529H25.6526H25.6522H25.6519H25.6516H25.6512H25.6509H25.6506H25.6502H25.6499H25.6495H25.6492H25.6489H25.6485H25.6482H25.6479H25.6475H25.6472H25.6469H25.6465H25.6462H25.6458H25.6455H25.6452H25.6448H25.6445H25.6442H25.6438H25.6435H25.6432H25.6428H25.6425H25.6422H25.6418H25.6415H25.6411H25.6408H25.6405H25.6401H25.6398H25.6395H25.6391H25.6388H25.6385H25.6381H25.6378H25.6374H25.6371H25.6368H25.6364H25.6361H25.6358H25.6354H25.6351H25.6348H25.6344H25.6341H25.6337H25.6334H25.6331H25.6327H25.6324H25.6321H25.6317H25.6314H25.6311H25.6307H25.6304H25.63H25.6297H25.6294H25.629H25.6287H25.6284H25.628H25.6277H25.6274H25.627H25.6267H25.6263H25.626H25.6257H25.6253H25.625H25.6247H25.6243H25.624H25.6237H25.6233H25.623H25.6226H25.6223H25.622H25.6216H25.6213H25.621H25.6206H25.6203H25.62H25.6196H25.6193H25.6189H25.6186H25.6183H25.6179H25.6176H25.6173H25.6169H25.6166H25.6163H25.6159H25.6156H25.6152H25.6149H25.6146H25.6142H25.6139H25.6136H25.6132H25.6129H25.6126H25.6122H25.6119H25.6115H25.6112H25.6109H25.6105H25.6102H25.6099H25.6095H25.6092H25.6089H25.6085H25.6082H25.6079H25.6075H25.6072H25.6068H25.6065H25.6062H25.6058H25.6055H25.6052H25.6048H25.6045H25.6042H25.6038H25.6035H25.6031H25.6028H25.6025H25.6021H25.6018H25.6015H25.6011H25.6008H25.6005H25.6001H25.5998H25.5994H25.5991H25.5988H25.5984H25.5981H25.5978H25.5974H25.5971H25.5968H25.5964H25.5961H25.5957H25.5954H25.5951H25.5947H25.5944H25.5941H25.5937H25.5934H25.5931H25.5927H25.5924H25.592H25.5917H25.5914H25.591H25.5907H25.5904H25.59H25.5897H25.5894H25.589H25.5887H25.5883H25.588H25.5877H25.5873H25.587H25.5867H25.5863H25.586H25.5857H25.5853H25.585H25.5846H25.5843H25.584H25.5836H25.5833H25.583H25.5826H25.5823H25.582H25.5816H25.5813H25.5809H25.5806H25.5803H25.5799H25.5796H25.5793H25.5789H25.5786H25.5783H25.5779H25.5776H25.5772H25.5769H25.5766H25.5762H25.5759H25.5756H25.5752H25.5749H25.5746H25.5742H25.5739H25.5736H25.5732H25.5729H25.5725H25.5722H25.5719H25.5715H25.5712H25.5709H25.5705H25.5702H25.5699H25.5695H25.5692H25.5688H25.5685H25.5682H25.5678H25.5675H25.5672H25.5668H25.5665H25.5662H25.5658H25.5655H25.5651H25.5648H25.5645H25.5641H25.5638H25.5635H25.5631H25.5628H25.5625H25.5621H25.5618H25.5614H25.5611H25.5608H25.5604H25.5601H25.5598H25.5594H25.5591H25.5588H25.5584H25.5581H25.5577H25.5574H25.5571H25.5567H25.5564H25.5561H25.5557H25.5554H25.5551H25.5547H25.5544H25.554H25.5537H25.5534H25.553H25.5527H25.5524H25.552H25.5517H25.5265L25.5015 33.0712C24.6211 32.9455 24.0666 32.0879 24.1358 31.2163L24.1358 31.2166L24.49 31.2441L24.1358 31.216L24.9375 20.9122L24.6406 15.2136H21.0952L20.7712 20.913L21.5728 31.216C21.5728 31.2161 21.5728 31.2162 21.5728 31.2163L21.5729 31.2166L21.2187 31.2441C21.2761 31.9661 20.8169 32.6253 20.1569 32.7195L12.0043 8.16698ZM12.0043 8.16698L12.0014 8.15816C11.7683 7.42959 11.0622 6.77365 10.2211 6.94393L12.0043 8.16698Z" fill="black" stroke="white" stroke-width="0.710493"/>
<path id="Subtract" fill-rule="evenodd" clip-rule="evenodd" d="M16.9714 13.8461C17.1698 13.885 17.3475 14.0081 17.4681 14.1903C17.5887 14.0081 17.7664 13.885 17.9647 13.8461C18.1633 13.8072 18.3674 13.8558 18.5353 13.9819C18.7033 14.108 18.8222 14.3021 18.8675 14.5242C18.9127 14.7463 18.8811 14.9796 18.7789 15.1761C18.4694 15.7728 18.0148 16.2564 17.4692 16.5695C17.4685 16.5698 17.4678 16.5698 17.4672 16.5695C16.9215 16.2565 16.4666 15.7728 16.157 15.1761C16.0549 14.9796 16.0232 14.7463 16.0685 14.5242C16.1138 14.3021 16.2327 14.108 16.4006 13.9819C16.5685 13.8558 16.7728 13.8072 16.9714 13.8461ZM17.6219 14.77V14.553C17.6219 14.4685 17.5535 14.4001 17.469 14.4001C17.3846 14.4001 17.3162 14.4685 17.3162 14.553V14.77H17.0924C17.0107 14.77 16.9445 14.8362 16.9445 14.9179C16.9445 14.9996 17.0107 15.0658 17.0924 15.0658H17.3162V15.9977C17.3162 16.0821 17.3846 16.1506 17.469 16.1506C17.5535 16.1506 17.6219 16.0821 17.6219 15.9977V15.0658H17.8449C17.9266 15.0658 17.9928 14.9996 17.9928 14.9179C17.9928 14.8362 17.9266 14.77 17.8449 14.77H17.6219Z" fill="white"/>
<path id="Subtract_2" fill-rule="evenodd" clip-rule="evenodd" d="M27.7781 13.8462C27.9764 13.885 28.1541 14.0082 28.2747 14.1904C28.3953 14.0082 28.573 13.885 28.7714 13.8462C28.97 13.8072 29.1741 13.8558 29.342 13.9819C29.5099 14.108 29.6288 14.3021 29.6741 14.5242C29.7194 14.7463 29.6877 14.9796 29.5856 15.1761C29.276 15.7728 28.8214 16.2565 28.2758 16.5696C28.2752 16.5698 28.2745 16.5698 28.2738 16.5696C27.7281 16.2565 27.2733 15.7728 26.9636 15.1761C26.8615 14.9796 26.8298 14.7463 26.8751 14.5242C26.9204 14.3021 27.0393 14.108 27.2072 13.9819C27.3752 13.8558 27.5795 13.8072 27.7781 13.8462ZM28.4273 14.77V14.5531C28.4273 14.4686 28.3589 14.4002 28.2745 14.4002C28.19 14.4002 28.1216 14.4686 28.1216 14.5531V14.77H27.8978C27.8161 14.77 27.7499 14.8363 27.7499 14.918C27.7499 14.9997 27.8161 15.0659 27.8978 15.0659H28.1216V15.9978C28.1216 16.0822 28.19 16.1507 28.2745 16.1507C28.3589 16.1507 28.4273 16.0822 28.4273 15.9978V15.0659H28.6503C28.732 15.0659 28.7982 14.9997 28.7982 14.918C28.7982 14.8363 28.732 14.77 28.6503 14.77H28.4273Z" fill="white"/>
<path id="Vector_8" d="M3.57889 9.49903C3.57932 9.49903 3.57932 9.49903 3.57889 9.49903C5.18366 9.49903 6.48439 8.03021 6.48439 6.21964C6.48439 4.40858 5.18409 2.94073 3.57932 2.94073C1.97499 2.94073 0.673828 4.40858 0.673828 6.21964C0.673828 8.03021 1.97456 9.49903 3.57889 9.49903Z" fill="black"/>
<path id="Vector_9" d="M6.2533 9.97841C6.1103 9.92024 5.95785 9.88339 5.79682 9.88339H5.79639H1.36214H1.36171C1.20926 9.88339 1.06455 9.9183 0.92713 9.97065C0.389489 10.1762 0 10.7438 0 11.4201V20.1312C0 20.6024 0.191952 21.0178 0.488256 21.299C0.717998 21.5171 1.00958 21.6567 1.33251 21.665V28.2722C1.33251 28.3789 1.34153 28.4821 1.35956 28.5825C1.37588 28.6765 1.40164 28.7676 1.43299 28.8554C1.43471 28.8607 1.43557 28.8656 1.43729 28.8709C1.46219 28.9383 1.49054 29.0023 1.52274 29.0638C1.52446 29.0672 1.52661 29.0711 1.52832 29.074C1.5644 29.1414 1.60519 29.2044 1.64857 29.2645C1.66317 29.2849 1.68034 29.3028 1.69623 29.3217C1.72801 29.3615 1.76107 29.3998 1.79629 29.4347C1.8169 29.455 1.83794 29.473 1.85898 29.4914C1.89377 29.5219 1.92941 29.551 1.96677 29.5777C1.99082 29.5946 2.014 29.6101 2.03891 29.6257C2.07756 29.6499 2.1175 29.6712 2.15872 29.6906C2.18363 29.7023 2.20811 29.7144 2.23387 29.7246C2.27982 29.7425 2.32706 29.7561 2.37472 29.7687C2.39791 29.7745 2.41981 29.7822 2.443 29.7871C2.51515 29.8007 2.58901 29.8094 2.66459 29.8094H4.49222H4.49308C4.56823 29.8094 4.64166 29.8007 4.71423 29.7871C4.73742 29.7822 4.75932 29.7745 4.78251 29.7687C4.83018 29.7565 4.87742 29.7425 4.92337 29.7246C4.94913 29.7144 4.97361 29.7023 4.99851 29.6906C5.04017 29.6712 5.07968 29.6499 5.11832 29.6257C5.14323 29.6106 5.16642 29.5951 5.19047 29.5777C5.22783 29.551 5.26347 29.5224 5.29825 29.4914C5.31972 29.473 5.34077 29.455 5.36095 29.4347C5.39616 29.3998 5.42923 29.3615 5.46101 29.3217C5.47689 29.3028 5.49407 29.2849 5.50867 29.2645C5.55247 29.2044 5.59284 29.1414 5.62891 29.074C5.63063 29.0706 5.63278 29.0667 5.63449 29.0638C5.6667 29.0018 5.69547 28.9378 5.71995 28.8709C5.72167 28.8656 5.72253 28.8607 5.72424 28.8554C5.75559 28.7676 5.78136 28.677 5.79768 28.5825C5.81571 28.4821 5.82473 28.3789 5.82473 28.2722V21.665C6.14766 21.6567 6.43924 21.5171 6.66898 21.299C6.96485 21.0178 7.15724 20.6019 7.15724 20.1312V11.4201C7.1581 10.753 6.77934 10.1907 6.2533 9.97841Z" fill="black"/>
<path id="Vector_10" d="M41.8279 9.49903C41.8283 9.49903 41.8283 9.49903 41.8279 9.49903C43.4327 9.49903 44.7334 8.03021 44.7334 6.21964C44.7334 4.40858 43.4331 2.94073 41.8283 2.94073C40.224 2.94073 38.9229 4.40858 38.9229 6.21964C38.9229 8.03021 40.2236 9.49903 41.8279 9.49903Z" fill="black"/>
<path id="Vector_11" d="M44.5004 9.97841C44.3574 9.92024 44.2049 9.88339 44.0439 9.88339H44.0435H39.6092H39.6088C39.4563 9.88339 39.3116 9.9183 39.1742 9.97065C38.6366 10.1762 38.2471 10.7438 38.2471 11.4201V20.1312C38.2471 20.6024 38.439 21.0178 38.7353 21.299C38.9651 21.5171 39.2567 21.6567 39.5796 21.665V28.2722C39.5796 28.3789 39.5886 28.4821 39.6066 28.5825C39.623 28.6765 39.6487 28.7676 39.6801 28.8554C39.6818 28.8607 39.6826 28.8656 39.6844 28.8709C39.7093 28.9383 39.7376 29.0023 39.7698 29.0638C39.7715 29.0672 39.7737 29.0711 39.7754 29.074C39.8115 29.1414 39.8523 29.2044 39.8956 29.2645C39.9102 29.2849 39.9274 29.3028 39.9433 29.3217C39.9751 29.3615 40.0081 29.3998 40.0434 29.4347C40.064 29.455 40.085 29.473 40.1061 29.4914C40.1408 29.5219 40.1765 29.551 40.2138 29.5777C40.2379 29.5946 40.2611 29.6101 40.286 29.6257C40.3246 29.6499 40.3646 29.6712 40.4058 29.6906C40.4307 29.7023 40.4552 29.7144 40.4809 29.7246C40.5269 29.7425 40.5741 29.7561 40.6218 29.7687C40.645 29.7745 40.6669 29.7822 40.6901 29.7871C40.7622 29.8007 40.8361 29.8094 40.9117 29.8094H42.7393H42.7401C42.8153 29.8094 42.8887 29.8007 42.9613 29.7871C42.9845 29.7822 43.0064 29.7745 43.0296 29.7687C43.0772 29.7565 43.1245 29.7425 43.1704 29.7246C43.1962 29.7144 43.2207 29.7023 43.2456 29.6906C43.2872 29.6712 43.3267 29.6499 43.3654 29.6257C43.3903 29.6106 43.4135 29.5951 43.4375 29.5777C43.4749 29.551 43.5105 29.5224 43.5453 29.4914C43.5668 29.473 43.5878 29.455 43.608 29.4347C43.6432 29.3998 43.6763 29.3615 43.7081 29.3217C43.724 29.3028 43.7411 29.2849 43.7557 29.2645C43.7995 29.2044 43.8399 29.1414 43.876 29.074C43.8777 29.0706 43.8798 29.0667 43.8816 29.0638C43.9138 29.0018 43.9425 28.9378 43.967 28.8709C43.9687 28.8656 43.9696 28.8607 43.9713 28.8554C44.0027 28.7676 44.0284 28.677 44.0447 28.5825C44.0628 28.4821 44.0718 28.3789 44.0718 28.2722V21.665C44.3947 21.6567 44.6863 21.5171 44.916 21.299C45.2119 21.0178 45.4043 20.6019 45.4043 20.1312V11.4201C45.4052 10.753 45.0264 10.1907 44.5004 9.97841Z" fill="black"/>
</g>
</svg>
