<svg width="49" height="48" viewBox="0 0 49 48" fill="none" xmlns="http://www.w3.org/2000/svg">
<g id="impact">
<path id="Vector" d="M24.5584 7.38671e-05C19.8333 -0.0117663 15.2206 1.40006 11.3178 4.04213C10.9565 4.28672 10.8788 4.78186 11.1349 5.1351C11.3909 5.48828 11.8839 5.56611 12.2464 5.32342C16.0102 2.80351 20.4633 1.49634 25.0045 1.58955C29.8092 1.68817 34.4511 3.34905 38.2277 6.32089C42.0044 9.29274 44.7104 13.4138 45.9363 18.0606C47.095 22.4528 46.8717 27.0888 45.3075 31.3399C45.157 31.7489 45.3485 32.2093 45.7516 32.3748C46.1555 32.5406 46.6187 32.3476 46.7704 31.9382C48.0271 28.5467 48.4923 24.9089 48.1255 21.3036C47.732 17.4357 46.3932 13.7241 44.2269 10.4957C42.0607 7.26732 39.1336 4.62137 35.7037 2.79106C32.2737 0.960743 28.4462 0.00225596 24.5584 7.38671e-05Z" fill="black"/>
<path id="Vector_2" d="M24.5501 47.3782C28.2851 47.3787 31.9636 46.4968 35.2874 44.8092C35.6767 44.6116 35.8153 44.1293 35.6042 43.7471C35.3937 43.3656 34.9146 43.2281 34.5256 43.4243C30.8953 45.2549 26.8255 46.052 22.7632 45.7201C18.4385 45.3668 14.3133 43.7496 10.9007 41.0698C7.48806 38.3899 4.93881 34.7657 3.57011 30.6482C2.28449 26.7805 2.09376 22.638 3.0111 18.6773C3.10946 18.2527 2.86182 17.8197 2.441 17.7061C2.01986 17.5923 1.58491 17.8414 1.48547 18.2661C0.717681 21.5457 0.656861 24.9545 1.31078 28.2648C2.01579 31.8338 3.53264 35.1926 5.74392 38.0813C7.9552 40.9699 10.8016 43.311 14.0627 44.9231C17.3238 46.5353 20.9122 47.3753 24.5501 47.3782Z" fill="black"/>
<path id="Vector_3" d="M24.5494 7.89639C20.9523 7.89692 17.4632 9.12525 14.659 11.3782C11.8549 13.6312 9.9037 16.7738 9.12825 20.2864C8.35279 23.7989 8.79949 27.471 10.3945 30.6952C11.8725 33.683 14.2547 36.1204 17.1924 37.6673C17.5781 37.8704 18.0486 37.6971 18.2323 37.3017C18.4161 36.9062 18.2431 36.4385 17.8583 36.2332C15.2466 34.8396 13.1287 32.6614 11.8102 29.9964C10.3746 27.0948 9.97248 23.7902 10.6704 20.629C11.3683 17.4679 13.1244 14.6397 15.6482 12.6123C18.1719 10.5849 21.3122 9.47979 24.5494 9.47979C27.7866 9.47979 30.9269 10.5849 33.4507 12.6123C35.9744 14.6397 37.7305 17.4679 38.4284 20.629C39.1263 23.7902 38.7242 27.0948 37.2886 29.9964C35.9701 32.6614 33.8522 34.8396 31.2405 36.2332C30.8557 36.4385 30.6827 36.9062 30.8665 37.3017C31.0502 37.6971 31.5207 37.8704 31.9064 37.6673C34.8441 36.1204 37.2263 33.683 38.7043 30.6952C40.2993 27.471 40.746 23.7989 39.9706 20.2864C39.1951 16.7738 37.2439 13.6312 34.4398 11.3782C31.6356 9.12525 28.1465 7.89692 24.5494 7.89639Z" fill="black"/>
<path id="Vector_4" d="M6.44887 15.0031C6.85143 15.0031 7.17777 14.6768 7.17777 14.2742V10.9942C7.17777 10.5917 7.5041 10.2653 7.90666 10.2653H8.02812C8.43068 10.2653 8.75702 9.93898 8.75702 9.53642V5.78356C8.75127 5.3704 8.58168 4.97643 8.28553 4.68829C7.98939 4.40014 7.59092 4.24141 7.17777 4.24699H6.37735C6.70075 4.01912 6.94443 3.69543 7.07399 3.32161C7.20354 2.9478 7.21243 2.54273 7.0994 2.16359C7.00353 1.84687 6.82759 1.56023 6.58858 1.33137C6.34957 1.10251 6.05558 0.93916 5.735 0.857108C5.44546 0.77471 5.14087 0.759861 4.84468 0.813705C4.54849 0.867549 4.26862 0.988649 4.0266 1.16768C3.78458 1.34671 3.58687 1.5789 3.4487 1.84636C3.31053 2.11382 3.23559 2.40943 3.22964 2.71042C3.23139 3.01171 3.3049 3.30825 3.4441 3.57547C3.5833 3.84268 3.78416 4.07288 4.03006 4.24699H3.22964C2.81648 4.24141 2.41802 4.40014 2.12187 4.68829C1.82572 4.97643 1.65613 5.3704 1.65039 5.78356V9.53642C1.65039 9.93898 1.97673 10.2653 2.37929 10.2653H2.50074C2.9033 10.2653 3.22964 10.5917 3.22964 10.9942V14.2742C3.22964 14.6768 3.55598 15.0031 3.95854 15.0031H6.44887Z" fill="black"/>
<path id="Vector_5" d="M44.2205 34.3191C44.1246 34.0024 43.9487 33.7158 43.7097 33.4869C43.4707 33.258 43.1767 33.0947 42.8561 33.0126C42.5666 32.9302 42.262 32.9154 41.9658 32.9692C41.6696 33.0231 41.3897 33.1442 41.1477 33.3232C40.9057 33.5022 40.708 33.7344 40.5698 34.0019C40.4316 34.2693 40.3567 34.5649 40.3507 34.8659C40.3525 35.1672 40.426 35.4637 40.5652 35.731C40.7044 35.9982 40.9053 36.2284 41.1512 36.4025H40.3507C39.9376 36.3969 39.5391 36.5557 39.243 36.8438C38.9468 37.132 38.7772 37.5259 38.7715 37.9391V41.692C38.7715 42.0945 39.0978 42.4209 39.5004 42.4209H39.6218C40.0244 42.4209 40.3507 42.7472 40.3507 43.1497V46.4298C40.3507 46.8323 40.6771 47.1587 41.0796 47.1587H43.57C43.9725 47.1587 44.2989 46.8323 44.2989 46.4298V43.1497C44.2989 42.7472 44.6252 42.4209 45.0278 42.4209H45.1492C45.5518 42.4209 45.8781 42.0945 45.8781 41.692V37.9391C45.8724 37.5259 45.7028 37.132 45.4066 36.8438C45.1105 36.5557 44.712 36.3969 44.2989 36.4025H43.4984C43.8218 36.1746 44.0655 35.8509 44.1951 35.4771C44.3246 35.1033 44.3335 34.6983 44.2205 34.3191Z" fill="black"/>
<path id="Vector_6" d="M46.668 0.789819C46.668 1.22592 47.0215 1.57946 47.4576 1.57946C47.8937 1.57946 48.2472 1.22592 48.2472 0.789819C48.2472 0.353722 47.8937 0.000183105 47.4576 0.000183105C47.0215 0.000183105 46.668 0.353722 46.668 0.789819Z" fill="black"/>
<path id="Vector_7" d="M44.2993 3.15859C44.2993 3.59469 44.6528 3.94823 45.0889 3.94823C45.525 3.94823 45.8786 3.59469 45.8786 3.15859C45.8786 2.7225 45.525 2.36896 45.0889 2.36896C44.6528 2.36896 44.2993 2.7225 44.2993 3.15859Z" fill="black"/>
<path id="Vector_8" d="M3.22949 44.2197C3.22949 44.6558 3.58302 45.0093 4.01912 45.0093C4.45522 45.0093 4.80874 44.6558 4.80874 44.2197C4.80874 43.7836 4.45522 43.4301 4.01912 43.4301C3.58302 43.4301 3.22949 43.7836 3.22949 44.2197Z" fill="black"/>
<path id="Vector_9" d="M0.861328 46.5886C0.861328 47.0247 1.21486 47.3782 1.65095 47.3782C2.08705 47.3782 2.44058 47.0247 2.44058 46.5886C2.44058 46.1525 2.08705 45.799 1.65095 45.799C1.21486 45.799 0.861328 46.1525 0.861328 46.5886Z" fill="black"/>
<path id="Vector_10" d="M30.4805 28.427C31.1346 28.427 31.6649 27.8967 31.6649 27.2426V20.9225C31.6649 20.4562 31.5731 19.9945 31.3947 19.5638C31.2162 19.133 30.9547 18.7416 30.6251 18.412C30.2954 18.0823 29.904 17.8208 29.4732 17.6423C29.0425 17.4639 28.5808 17.3721 28.1146 17.3721H26.6275C27.1139 16.9503 27.4598 16.3899 27.6189 15.766C27.778 15.1422 27.7426 14.4846 27.5175 13.8814C27.2924 13.2782 26.8883 12.7581 26.3594 12.391C25.8306 12.0238 25.2021 11.8271 24.5583 11.8271C23.9144 11.8271 23.286 12.0238 22.7571 12.391C22.2282 12.7581 21.8242 13.2782 21.5991 13.8814C21.374 14.4846 21.3386 15.1422 21.4976 15.766C21.6567 16.3899 22.0026 16.9503 22.4891 17.3721H21.002C20.5357 17.3721 20.0741 17.4639 19.6433 17.6423C19.2126 17.8208 18.8212 18.0823 18.4915 18.412C18.1618 18.7417 17.9003 19.1331 17.7219 19.5638C17.5435 19.9946 17.4517 20.4562 17.4517 20.9225V27.2426C17.4517 27.8967 17.982 28.427 18.6361 28.427C19.2902 28.427 19.8205 27.8967 19.8205 27.2426V22.0421C19.8205 21.6881 19.8903 21.3375 20.0257 21.0104C20.1753 20.6495 20.6102 20.8038 20.6102 21.1945V37.7053C20.6102 38.6865 21.4056 39.4819 22.3868 39.4819C23.368 39.4819 24.1635 38.6865 24.1635 37.7053V28.427H24.9531V37.7053C24.9531 38.6865 25.7485 39.4819 26.7298 39.4819C27.711 39.4819 28.5064 38.6865 28.5064 37.7053V22.6079C28.5064 21.8812 29.2303 21.7308 29.283 22.4556C29.2921 22.5805 29.2965 22.706 29.296 22.8318V27.2426C29.296 27.8967 29.8263 28.427 30.4805 28.427Z" fill="black"/>
<path id="Subtract" fill-rule="evenodd" clip-rule="evenodd" d="M23.9965 20.4904C24.2209 20.5293 24.4219 20.6527 24.5583 20.8354C24.6947 20.6527 24.8958 20.5293 25.1202 20.4904C25.3449 20.4514 25.5757 20.5001 25.7657 20.6264C25.9557 20.7528 26.0902 20.9473 26.1414 21.1699C26.1927 21.3925 26.1568 21.6263 26.0413 21.8232C25.6911 22.4213 25.1768 22.906 24.5596 23.2197C24.5588 23.22 24.558 23.22 24.5573 23.2197C23.9399 22.906 23.4254 22.4213 23.0751 21.8232C22.9595 21.6263 22.9237 21.3925 22.975 21.1699C23.0262 20.9473 23.1607 20.7528 23.3507 20.6264C23.5406 20.5001 23.7717 20.4514 23.9965 20.4904ZM24.731 21.4161V21.2185C24.731 21.1229 24.6536 21.0455 24.558 21.0455C24.4625 21.0455 24.3851 21.1229 24.3851 21.2185V21.4161H24.1131C24.0312 21.4161 23.9648 21.4825 23.9648 21.5644C23.9648 21.6463 24.0312 21.7127 24.1131 21.7127H24.3851V22.6269C24.3851 22.7224 24.4625 22.7998 24.558 22.7998C24.6536 22.7998 24.731 22.7224 24.731 22.6269V21.7127H25.0026C25.0845 21.7127 25.1508 21.6463 25.1508 21.5644C25.1508 21.4825 25.0845 21.4161 25.0026 21.4161H24.731Z" fill="white"/>
</g>
</svg>
