<svg width="46" height="34" viewBox="0 0 46 34" fill="none" xmlns="http://www.w3.org/2000/svg">
<path d="M17.4591 11.3739C18.9805 11.3739 20.2139 10.0247 20.2139 8.36039C20.2139 6.6961 18.9805 5.34692 17.4591 5.34692C15.9377 5.34692 14.7043 6.6961 14.7043 8.36039C14.7043 10.0247 15.9377 11.3739 17.4591 11.3739Z" fill="black"/>
<path d="M28.2477 11.3739C29.7691 11.3739 31.0024 10.0247 31.0024 8.36039C31.0024 6.6961 29.7691 5.34692 28.2477 5.34692C26.7263 5.34692 25.4929 6.6961 25.4929 8.36039C25.4929 10.0247 26.7263 11.3739 28.2477 11.3739Z" fill="black"/>
<path d="M34.9573 6.82316C36.5611 6.82316 37.8612 5.35554 37.8612 3.54513C37.8612 1.73472 36.5611 0.26709 34.9573 0.26709C33.3536 0.26709 32.0535 1.73472 32.0535 3.54513C32.0535 5.35554 33.3536 6.82316 34.9573 6.82316Z" fill="black"/>
<path d="M38.535 9.66314V8.7438C38.535 7.89521 37.9258 7.20801 37.1736 7.20801H32.7401C31.9888 7.20752 31.3796 7.89521 31.3796 8.7438V17.4531C31.3796 18.29 31.9734 18.9685 32.7109 18.986V25.592C32.7109 26.4405 33.3081 27.1287 34.0435 27.1287H35.8711C36.6065 27.1287 37.2037 26.4405 37.2037 25.592V18.9855C37.445 18.9792 37.6673 18.8983 37.8618 18.7689V10.9823C37.8614 10.4182 38.1331 9.93018 38.535 9.66314Z" fill="black"/>
<path d="M10.5029 6.55607C12.1066 6.55607 13.4067 5.08845 13.4067 3.27804C13.4067 1.46763 12.1066 0 10.5029 0C8.8991 0 7.599 1.46763 7.599 3.27804C7.599 5.08845 8.8991 6.55607 10.5029 6.55607Z" fill="black"/>
<path d="M12.7196 6.94019H8.28652C7.53436 6.94019 6.92517 7.62739 6.92517 8.47598V9.39532C7.32658 9.66235 7.59876 10.1504 7.59876 10.7145V18.501C7.79281 18.6309 8.01562 18.7118 8.25647 18.7177V25.3237C8.25647 26.1722 8.85364 26.8604 9.58905 26.8604H11.4162C12.1516 26.8604 12.7488 26.1722 12.7488 25.3237V18.7181C13.4868 18.7007 14.0805 18.0222 14.0805 17.1853V8.47646C14.0805 7.62787 13.4709 6.94019 12.7196 6.94019Z" fill="black"/>
<path d="M33.7347 8.1626C33.9444 7.4162 34.6818 6.78224 35.5072 6.94385L35.5082 6.94287C35.5108 6.94329 35.5134 6.94439 35.516 6.94482C35.5186 6.94534 35.5212 6.94527 35.5238 6.9458L35.5228 6.94678C36.545 7.1221 37.0421 8.21359 36.7679 9.15088L36.767 9.15479L36.1068 11.3208C35.5574 13.1862 34.1493 14.6052 32.3812 15.0464H32.3793C32.2408 15.08 32.1105 15.1051 31.9896 15.1284C31.9552 15.1351 31.9213 15.1424 31.8881 15.1489L31.5599 20.9087L32.3627 31.1226H32.3617C32.4281 31.9315 31.9956 32.7825 31.1859 32.9976C31.1842 32.998 31.1827 32.999 31.181 32.9995L31.1791 33.0005L31.1781 32.9995C30.1513 33.2851 29.2574 32.4858 29.1859 31.4917L28.4691 22.2046L28.4594 22.147C28.4276 22.0211 28.3358 21.9626 28.2494 21.9624C28.1518 21.9624 28.0458 22.0367 28.0287 22.1987L28.0297 22.1997L27.3119 31.4917C27.242 32.3703 26.5672 33.0746 25.724 33.0747H25.5267L25.5013 33.0708C24.621 32.9451 24.067 32.0879 24.1361 31.2163L24.9369 20.9067L24.64 15.2134H21.0951L20.7709 20.9165L21.5726 31.2163L21.5785 31.3794C21.5713 32.1922 21.0325 32.9528 20.2074 33.0708L20.182 33.0747H19.9847C19.1941 33.0747 18.5512 32.4561 18.4164 31.6548L18.3969 31.4917L17.6791 22.1997V22.1987C17.6623 22.0481 17.5391 21.9624 17.4594 21.9624C17.3606 21.9625 17.2548 22.0386 17.2396 22.2046L16.5228 31.5229C16.4512 32.5197 15.5521 33.3219 14.5219 33.0298L14.5131 33.0269C13.7217 32.7795 13.2773 31.9431 13.3461 31.1509L14.1469 20.9146L13.848 15.1606C13.6773 15.126 13.515 15.0846 13.3578 15.0464L13.35 15.0444C11.5841 14.57 10.2087 13.1522 9.63123 11.3237L9.63025 11.3208L8.97009 9.15479L8.97107 9.15381C8.66202 8.2288 9.20601 7.12056 10.2133 6.94678V6.9458C10.2158 6.94527 10.2185 6.94534 10.2211 6.94482C10.2237 6.94439 10.2263 6.94329 10.2289 6.94287V6.94385C11.0138 6.78944 11.6795 7.35269 11.9515 8.02197L12.0013 8.15771L12.0043 8.1665V8.16748L12.6332 10.3247L12.6791 10.4575C12.9264 11.1094 13.4204 11.5768 13.9886 11.7202C15.0814 11.996 16.229 12.1489 17.3451 12.1489H28.3636C29.3463 12.1489 30.3445 12.0544 31.3031 11.8276L31.7113 11.7222C32.3527 11.5398 32.8485 11.0142 33.0765 10.3218L33.7347 8.1626Z" fill="black" stroke="white" stroke-width="0.710493"/>
<path fill-rule="evenodd" clip-rule="evenodd" d="M16.9714 13.8461C17.1698 13.885 17.3475 14.0081 17.4681 14.1903C17.5887 14.0081 17.7664 13.885 17.9647 13.8461C18.1633 13.8072 18.3674 13.8558 18.5353 13.9819C18.7033 14.108 18.8222 14.302 18.8675 14.5241C18.9127 14.7462 18.8811 14.9795 18.7789 15.176C18.4694 15.7728 18.0148 16.2564 17.4692 16.5695C17.4685 16.5697 17.4678 16.5697 17.4672 16.5695C16.9215 16.2564 16.4666 15.7728 16.157 15.176C16.0549 14.9795 16.0232 14.7462 16.0685 14.5241C16.1138 14.302 16.2327 14.108 16.4006 13.9819C16.5685 13.8558 16.7728 13.8072 16.9714 13.8461ZM17.6219 14.7699V14.5529C17.6219 14.4685 17.5535 14.4 17.469 14.4C17.3846 14.4 17.3162 14.4685 17.3162 14.5529V14.7699H17.0924C17.0107 14.7699 16.9445 14.8362 16.9445 14.9179C16.9445 14.9996 17.0107 15.0658 17.0924 15.0658H17.3162V15.9976C17.3162 16.0821 17.3846 16.1505 17.469 16.1505C17.5535 16.1505 17.6219 16.0821 17.6219 15.9976V15.0658H17.8449C17.9266 15.0658 17.9928 14.9996 17.9928 14.9179C17.9928 14.8362 17.9266 14.7699 17.8449 14.7699H17.6219Z" fill="white"/>
<path fill-rule="evenodd" clip-rule="evenodd" d="M27.7783 13.8461C27.9767 13.885 28.1544 14.0081 28.275 14.1903C28.3956 14.0081 28.5733 13.885 28.7716 13.8461C28.9702 13.8072 29.1743 13.8558 29.3422 13.9819C29.5102 14.108 29.629 14.302 29.6743 14.5241C29.7196 14.7462 29.688 14.9795 29.5858 15.176C29.2762 15.7728 28.8217 16.2564 28.2761 16.5695C28.2754 16.5697 28.2747 16.5697 28.274 16.5695C27.7284 16.2564 27.2735 15.7728 26.9639 15.176C26.8618 14.9795 26.8301 14.7462 26.8754 14.5241C26.9207 14.302 27.0396 14.108 27.2075 13.9819C27.3754 13.8558 27.5797 13.8072 27.7783 13.8461ZM28.4276 14.77V14.553C28.4276 14.4686 28.3591 14.4001 28.2747 14.4001C28.1903 14.4001 28.1218 14.4686 28.1218 14.553V14.77H27.8981C27.8164 14.77 27.7501 14.8362 27.7501 14.9179C27.7501 14.9996 27.8164 15.0658 27.8981 15.0658H28.1218V15.9977C28.1218 16.0822 28.1903 16.1506 28.2747 16.1506C28.3591 16.1506 28.4276 16.0822 28.4276 15.9977V15.0658H28.6505C28.7322 15.0658 28.7985 14.9996 28.7985 14.9179C28.7985 14.8362 28.7322 14.77 28.6505 14.77H28.4276Z" fill="white"/>
<path d="M3.57889 9.49897C3.57932 9.49897 3.57932 9.49897 3.57889 9.49897C5.18366 9.49897 6.48439 8.03015 6.48439 6.21958C6.48439 4.40852 5.18409 2.94067 3.57932 2.94067C1.97499 2.94067 0.673828 4.40852 0.673828 6.21958C0.673828 8.03015 1.97456 9.49897 3.57889 9.49897Z" fill="black"/>
<path d="M6.2533 9.97831C6.1103 9.92014 5.95785 9.8833 5.79682 9.8833H5.79639H1.36214H1.36171C1.20926 9.8833 1.06455 9.9182 0.92713 9.97056C0.389489 10.1761 0 10.7437 0 11.42V20.1311C0 20.6023 0.191952 21.0177 0.488256 21.2989C0.717998 21.517 1.00958 21.6566 1.33251 21.6649V28.2721C1.33251 28.3788 1.34153 28.482 1.35956 28.5824C1.37588 28.6764 1.40164 28.7675 1.43299 28.8553C1.43471 28.8606 1.43557 28.8655 1.43729 28.8708C1.46219 28.9382 1.49054 29.0022 1.52274 29.0637C1.52446 29.0671 1.52661 29.071 1.52832 29.0739C1.5644 29.1413 1.60519 29.2043 1.64857 29.2644C1.66317 29.2848 1.68034 29.3027 1.69623 29.3216C1.72801 29.3614 1.76107 29.3997 1.79629 29.4346C1.8169 29.4549 1.83794 29.4729 1.85898 29.4913C1.89377 29.5218 1.92941 29.5509 1.96677 29.5776C1.99082 29.5945 2.014 29.6101 2.03891 29.6256C2.07756 29.6498 2.1175 29.6711 2.15872 29.6905C2.18363 29.7022 2.20811 29.7143 2.23387 29.7245C2.27982 29.7424 2.32706 29.756 2.37472 29.7686C2.39791 29.7744 2.41981 29.7821 2.443 29.787C2.51515 29.8006 2.58901 29.8093 2.66459 29.8093H4.49222H4.49308C4.56823 29.8093 4.64166 29.8006 4.71423 29.787C4.73742 29.7821 4.75932 29.7744 4.78251 29.7686C4.83018 29.7565 4.87742 29.7424 4.92337 29.7245C4.94913 29.7143 4.97361 29.7022 4.99851 29.6905C5.04017 29.6711 5.07968 29.6498 5.11832 29.6256C5.14323 29.6105 5.16642 29.595 5.19047 29.5776C5.22783 29.5509 5.26347 29.5223 5.29825 29.4913C5.31972 29.4729 5.34077 29.4549 5.36095 29.4346C5.39616 29.3997 5.42923 29.3614 5.46101 29.3216C5.47689 29.3027 5.49407 29.2848 5.50867 29.2644C5.55247 29.2043 5.59284 29.1413 5.62891 29.0739C5.63063 29.0705 5.63278 29.0666 5.63449 29.0637C5.6667 29.0017 5.69547 28.9377 5.71995 28.8708C5.72167 28.8655 5.72253 28.8606 5.72424 28.8553C5.75559 28.7675 5.78136 28.6769 5.79768 28.5824C5.81571 28.482 5.82473 28.3788 5.82473 28.2721V21.6649C6.14766 21.6566 6.43924 21.517 6.66898 21.2989C6.96485 21.0177 7.15724 20.6018 7.15724 20.1311V11.42C7.1581 10.753 6.77934 10.1906 6.2533 9.97831Z" fill="black"/>
<path d="M41.8278 9.49897C41.8282 9.49897 41.8282 9.49897 41.8278 9.49897C43.4326 9.49897 44.7333 8.03015 44.7333 6.21958C44.7333 4.40852 43.433 2.94067 41.8282 2.94067C40.2239 2.94067 38.9227 4.40852 38.9227 6.21958C38.9227 8.03015 40.2235 9.49897 41.8278 9.49897Z" fill="black"/>
<path d="M44.5004 9.97831C44.3574 9.92014 44.2049 9.8833 44.0439 9.8833H44.0435H39.6092H39.6088C39.4563 9.8833 39.3116 9.9182 39.1742 9.97056C38.6366 10.1761 38.2471 10.7437 38.2471 11.42V20.1311C38.2471 20.6023 38.439 21.0177 38.7353 21.2989C38.9651 21.517 39.2567 21.6566 39.5796 21.6649V28.2721C39.5796 28.3788 39.5886 28.482 39.6066 28.5824C39.623 28.6764 39.6487 28.7675 39.6801 28.8553C39.6818 28.8606 39.6826 28.8655 39.6844 28.8708C39.7093 28.9382 39.7376 29.0022 39.7698 29.0637C39.7715 29.0671 39.7737 29.071 39.7754 29.0739C39.8115 29.1413 39.8523 29.2043 39.8956 29.2644C39.9102 29.2848 39.9274 29.3027 39.9433 29.3216C39.9751 29.3614 40.0081 29.3997 40.0434 29.4346C40.064 29.4549 40.085 29.4729 40.1061 29.4913C40.1408 29.5218 40.1765 29.5509 40.2138 29.5776C40.2379 29.5945 40.2611 29.6101 40.286 29.6256C40.3246 29.6498 40.3646 29.6711 40.4058 29.6905C40.4307 29.7022 40.4552 29.7143 40.4809 29.7245C40.5269 29.7424 40.5741 29.756 40.6218 29.7686C40.645 29.7744 40.6669 29.7821 40.6901 29.787C40.7622 29.8006 40.8361 29.8093 40.9117 29.8093H42.7393H42.7401C42.8153 29.8093 42.8887 29.8006 42.9613 29.787C42.9845 29.7821 43.0064 29.7744 43.0296 29.7686C43.0772 29.7565 43.1245 29.7424 43.1704 29.7245C43.1962 29.7143 43.2207 29.7022 43.2456 29.6905C43.2872 29.6711 43.3267 29.6498 43.3654 29.6256C43.3903 29.6105 43.4135 29.595 43.4375 29.5776C43.4749 29.5509 43.5105 29.5223 43.5453 29.4913C43.5668 29.4729 43.5878 29.4549 43.608 29.4346C43.6432 29.3997 43.6763 29.3614 43.7081 29.3216C43.724 29.3027 43.7411 29.2848 43.7557 29.2644C43.7995 29.2043 43.8399 29.1413 43.876 29.0739C43.8777 29.0705 43.8798 29.0666 43.8816 29.0637C43.9138 29.0017 43.9425 28.9377 43.967 28.8708C43.9687 28.8655 43.9696 28.8606 43.9713 28.8553C44.0027 28.7675 44.0284 28.6769 44.0447 28.5824C44.0628 28.482 44.0718 28.3788 44.0718 28.2721V21.6649C44.3947 21.6566 44.6863 21.517 44.916 21.2989C45.2119 21.0177 45.4043 20.6018 45.4043 20.1311V11.42C45.4052 10.753 45.0264 10.1906 44.5004 9.97831Z" fill="black"/>
</svg>
