<svg width="38" height="44" viewBox="0 0 38 44" fill="none" xmlns="http://www.w3.org/2000/svg">
<g id="Group 129">
<path id="Vector" d="M19.0002 21.6559C9.88589 21.6559 2.5 25.6072 2.5 30.9532V38.7009C2.5 40.4054 3.91429 41.8 5.64286 41.8H32.3571C34.0857 41.8 35.5 40.4054 35.5 38.7009V30.9532C35.5 25.6072 28.1145 21.6559 18.9998 21.6559H19.0002Z" fill="black" stroke="black" stroke-width="3.3"/>
<path id="Vector_2" d="M28.343 11.4078C28.343 16.4934 24.1627 20.6155 19.0053 20.6155C13.8478 20.6155 9.66748 16.4934 9.66748 11.4078C9.66748 6.32215 13.8478 2.20003 19.0053 2.20003C24.1627 2.20003 28.343 6.32215 28.343 11.4078Z" fill="black" stroke="black" stroke-width="3.3"/>
<path id="Subtract" fill-rule="evenodd" clip-rule="evenodd" d="M17.117 26.9113C17.8529 27.0372 18.5121 27.4363 18.9595 28.0268C19.407 27.4363 20.0662 27.0372 20.8021 26.9113C21.539 26.7852 22.2961 26.9426 22.9191 27.3513C23.542 27.76 23.9831 28.3888 24.1512 29.1086C24.3192 29.8284 24.2017 30.5844 23.8228 31.2213C22.6743 33.155 20.9878 34.7224 18.9637 35.7371C18.9612 35.7379 18.9587 35.7379 18.9562 35.7371C16.9317 34.7225 15.2443 33.1551 14.0955 31.2213C13.7166 30.5844 13.5991 29.8284 13.7672 29.1086C13.9352 28.3888 14.3763 27.76 14.9993 27.3513C15.6222 26.9426 16.3801 26.7852 17.117 26.9113ZM19.5269 29.9049V29.2736C19.5269 28.9604 19.2729 28.7064 18.9597 28.7064C18.6464 28.7064 18.3925 28.9604 18.3925 29.2736V29.9049H17.4935C17.2287 29.9049 17.0141 30.1195 17.0141 30.3842C17.0141 30.649 17.2287 30.8636 17.4935 30.8636H18.3925V33.8121C18.3925 34.1253 18.6464 34.3793 18.9597 34.3793C19.2729 34.3793 19.5269 34.1253 19.5269 33.8121V30.8636H20.424C20.6888 30.8636 20.9034 30.649 20.9034 30.3842C20.9034 30.1195 20.6888 29.9049 20.424 29.9049H19.5269Z" fill="white"/>
</g>
</svg>
