<svg width="592" height="424" viewBox="0 0 592 424" fill="none" xmlns="http://www.w3.org/2000/svg">
<g filter="url(#filter0_d_96_581)">
<path fill-rule="evenodd" clip-rule="evenodd" d="M380.074 19.0374C380.699 19.0249 381.325 19.0156 381.952 19.0093C382.579 19.0156 383.205 19.0249 383.83 19.0374C484.78 21.0479 566 103.924 566 205.865C566 307.807 484.78 390.682 383.83 392.693C383.205 392.705 382.579 392.715 381.952 392.721C381.325 392.715 380.699 392.705 380.074 392.693C295.25 391.004 224.357 332.222 203.871 253.009L219.438 253.009C239.661 324.452 304.699 376.861 381.952 377.696C475.401 376.686 550.976 300.211 550.976 205.865C550.976 111.52 475.401 35.0446 381.952 34.0345C305.582 34.86 241.15 86.0867 220.149 156.279L204.521 156.279C225.82 78.303 296.124 20.7093 380.074 19.0374Z" fill="#C3E0FD"/>
<path fill-rule="evenodd" clip-rule="evenodd" d="M380.197 45.5707C380.852 45.5548 381.508 45.5428 382.164 45.5348C382.821 45.5428 383.477 45.5548 384.132 45.5707C470.325 47.6724 539.556 118.634 539.556 205.865C539.556 293.096 470.325 364.058 384.132 366.16C383.477 366.176 382.821 366.188 382.164 366.196C381.508 366.188 380.852 366.176 380.197 366.16C310.215 364.453 251.415 317.354 231.772 253.009L248.315 253.009C267.54 309.172 320.154 349.619 382.164 350.455C460.485 349.398 523.817 285.156 523.817 205.865C523.817 126.574 460.485 62.332 382.164 61.2752C321.057 62.0997 269.073 101.389 249.176 156.279L232.54 156.279C252.91 93.1877 311.104 47.2554 380.197 45.5707Z" fill="#81B1E1"/>
<path fill-rule="evenodd" clip-rule="evenodd" d="M262.25 156.279C280.589 108.239 326.116 73.7992 379.831 72.1107C380.52 72.0891 381.21 72.0728 381.901 72.062C382.592 72.0728 383.282 72.0891 383.97 72.1107C454.058 74.3138 510.205 132.275 510.205 203.454C510.205 274.633 454.058 332.595 383.97 334.798C383.282 334.819 382.592 334.836 381.901 334.846C381.21 334.836 380.52 334.819 379.831 334.798C327.007 333.137 282.101 299.803 263.185 253.009L281.258 253.009C299.33 291.082 337.574 317.493 381.901 318.289C443.683 317.18 493.65 266.309 493.65 203.454C493.65 140.599 443.683 89.7288 381.901 88.6197C336.657 89.4318 297.75 116.93 280.161 156.279L262.25 156.279Z" fill="#3B8AD7"/>
<path fill-rule="evenodd" clip-rule="evenodd" d="M295.193 156.279C311.67 126.037 343.115 105.125 379.576 103.494C380.341 103.46 381.108 103.434 381.878 103.417C382.647 103.434 383.414 103.46 384.179 103.494C437.972 105.9 480.845 150.273 480.845 204.66C480.845 259.047 437.972 303.42 384.179 305.826C383.414 305.86 382.647 305.886 381.877 305.903C381.108 305.886 380.341 305.86 379.576 305.826C343.102 304.194 311.648 283.268 295.175 253.009L316.88 253.009C331.52 273.349 355.133 286.758 381.877 287.485C426.569 286.271 462.432 249.651 462.432 204.66C462.432 159.669 426.569 123.05 381.878 121.835C355.149 122.561 331.55 135.952 316.904 156.279L295.193 156.279Z" fill="#0053A4"/>
<path d="M73.052 200.092L59.3988 200.932C59.1654 199.765 58.6636 198.715 57.8935 197.782C57.1233 196.825 56.1081 196.066 54.8478 195.506C53.6108 194.923 52.1288 194.631 50.4017 194.631C48.0912 194.631 46.1424 195.121 44.5554 196.101C42.9684 197.058 42.1748 198.342 42.1748 199.952C42.1748 201.236 42.6883 202.321 43.7152 203.208C44.7421 204.095 46.5042 204.807 49.0014 205.343L58.7337 207.304C63.9615 208.377 67.8591 210.104 70.4264 212.485C72.9936 214.866 74.2773 217.993 74.2773 221.867C74.2773 225.391 73.2387 228.484 71.1615 231.144C69.1077 233.805 66.2837 235.882 62.6896 237.376C59.1187 238.846 54.9995 239.581 50.3317 239.581C43.2134 239.581 37.5421 238.099 33.3178 235.135C29.1168 232.148 26.6546 228.087 25.9311 222.952L40.5995 222.182C41.0429 224.353 42.1165 226.01 43.8202 227.153C45.5239 228.274 47.7061 228.834 50.3667 228.834C52.9807 228.834 55.0812 228.332 56.6682 227.328C58.2786 226.302 59.0954 224.983 59.1188 223.373C59.0954 222.019 58.5236 220.91 57.4034 220.047C56.2831 219.16 54.556 218.483 52.2222 218.016L42.91 216.161C37.6588 215.111 33.7496 213.29 31.1823 210.7C28.6384 208.109 27.3664 204.807 27.3664 200.792C27.3664 197.338 28.3 194.362 30.1671 191.865C32.0575 189.368 34.7064 187.443 38.1139 186.089C41.5447 184.735 45.559 184.058 50.1567 184.058C56.9482 184.058 62.2928 185.494 66.1904 188.364C70.1113 191.235 72.3985 195.144 73.052 200.092ZM99.0017 239.546C95.5709 239.546 92.5135 238.951 89.8296 237.761C87.1456 236.547 85.0218 234.762 83.4581 232.405C81.9178 230.024 81.1476 227.06 81.1476 223.513C81.1476 220.525 81.696 218.016 82.793 215.986C83.8899 213.955 85.3836 212.322 87.274 211.085C89.1644 209.848 91.3116 208.914 93.7155 208.284C96.1427 207.654 98.6866 207.21 101.347 206.954C104.475 206.627 106.995 206.324 108.909 206.044C110.823 205.74 112.211 205.297 113.075 204.713C113.938 204.13 114.37 203.266 114.37 202.123V201.913C114.37 199.695 113.67 197.98 112.27 196.766C110.893 195.553 108.932 194.946 106.388 194.946C103.704 194.946 101.569 195.541 99.9819 196.731C98.3949 197.898 97.3447 199.369 96.8312 201.142L83.038 200.022C83.7382 196.755 85.1152 193.931 87.169 191.55C89.2228 189.146 91.8717 187.303 95.1158 186.019C98.3832 184.712 102.164 184.058 106.458 184.058C109.446 184.058 112.305 184.409 115.035 185.109C117.789 185.809 120.228 186.894 122.352 188.364C124.499 189.835 126.191 191.725 127.428 194.036C128.665 196.323 129.284 199.065 129.284 202.263V238.531H115.14V231.074H114.72C113.857 232.755 112.702 234.237 111.255 235.52C109.808 236.781 108.069 237.772 106.038 238.496C104.008 239.196 101.662 239.546 99.0017 239.546ZM103.273 229.254C105.467 229.254 107.404 228.822 109.084 227.959C110.764 227.072 112.083 225.881 113.04 224.388C113.997 222.894 114.475 221.202 114.475 219.312V213.605C114.009 213.909 113.367 214.189 112.55 214.445C111.756 214.679 110.858 214.901 109.854 215.111C108.851 215.297 107.847 215.472 106.844 215.636C105.84 215.776 104.93 215.904 104.113 216.021C102.362 216.278 100.834 216.686 99.5268 217.246C98.2199 217.806 97.2046 218.565 96.4811 219.522C95.7576 220.455 95.3959 221.622 95.3959 223.022C95.3959 225.053 96.131 226.605 97.6014 227.678C99.0951 228.729 100.986 229.254 103.273 229.254ZM169.455 184.759V195.961H137.073V184.759H169.455ZM144.425 171.876H159.338V222.007C159.338 223.384 159.548 224.458 159.968 225.228C160.388 225.975 160.972 226.5 161.719 226.803C162.489 227.107 163.376 227.258 164.379 227.258C165.079 227.258 165.78 227.2 166.48 227.083C167.18 226.943 167.717 226.838 168.09 226.768L170.436 237.866C169.689 238.099 168.639 238.368 167.285 238.671C165.931 238.998 164.286 239.196 162.349 239.266C158.755 239.406 155.604 238.928 152.897 237.831C150.213 236.734 148.124 235.03 146.63 232.72C145.137 230.409 144.401 227.492 144.425 223.968V171.876ZM213.653 215.636V184.759H228.567V238.531H214.248V228.764H213.688C212.475 231.914 210.456 234.447 207.632 236.361C204.831 238.274 201.412 239.231 197.374 239.231C193.78 239.231 190.618 238.414 187.887 236.781C185.157 235.147 183.021 232.825 181.481 229.814C179.964 226.803 179.194 223.197 179.17 218.996V184.759H194.084V216.336C194.107 219.51 194.959 222.019 196.639 223.863C198.32 225.706 200.572 226.628 203.396 226.628C205.193 226.628 206.873 226.22 208.437 225.403C210.001 224.563 211.261 223.326 212.218 221.692C213.198 220.058 213.677 218.04 213.653 215.636ZM240.496 238.531V184.759H254.954V194.141H255.514C256.494 190.803 258.14 188.283 260.45 186.579C262.761 184.852 265.421 183.988 268.432 183.988C269.179 183.988 269.984 184.035 270.848 184.128C271.711 184.222 272.47 184.35 273.123 184.514V197.747C272.423 197.537 271.454 197.35 270.217 197.186C268.981 197.023 267.849 196.941 266.822 196.941C264.628 196.941 262.667 197.42 260.94 198.377C259.237 199.31 257.883 200.617 256.879 202.298C255.899 203.978 255.409 205.915 255.409 208.109V238.531H240.496ZM294.627 239.546C291.196 239.546 288.139 238.951 285.455 237.761C282.771 236.547 280.647 234.762 279.083 232.405C277.543 230.024 276.773 227.06 276.773 223.513C276.773 220.525 277.321 218.016 278.418 215.986C279.515 213.955 281.009 212.322 282.899 211.085C284.79 209.848 286.937 208.914 289.341 208.284C291.768 207.654 294.312 207.21 296.972 206.954C300.1 206.627 302.62 206.324 304.534 206.044C306.448 205.74 307.837 205.297 308.7 204.713C309.564 204.13 309.995 203.266 309.995 202.123V201.913C309.995 199.695 309.295 197.98 307.895 196.766C306.518 195.553 304.558 194.946 302.014 194.946C299.33 194.946 297.194 195.541 295.607 196.731C294.02 197.898 292.97 199.369 292.456 201.142L278.663 200.022C279.363 196.755 280.74 193.931 282.794 191.55C284.848 189.146 287.497 187.303 290.741 186.019C294.008 184.712 297.789 184.058 302.084 184.058C305.071 184.058 307.93 184.409 310.661 185.109C313.415 185.809 315.853 186.894 317.977 188.364C320.124 189.835 321.817 191.725 323.053 194.036C324.29 196.323 324.909 199.065 324.909 202.263V238.531H310.766V231.074H310.346C309.482 232.755 308.327 234.237 306.88 235.52C305.433 236.781 303.694 237.772 301.664 238.496C299.633 239.196 297.288 239.546 294.627 239.546ZM298.898 229.254C301.092 229.254 303.029 228.822 304.709 227.959C306.39 227.072 307.708 225.881 308.665 224.388C309.622 222.894 310.1 221.202 310.1 219.312V213.605C309.634 213.909 308.992 214.189 308.175 214.445C307.382 214.679 306.483 214.901 305.479 215.111C304.476 215.297 303.472 215.472 302.469 215.636C301.465 215.776 300.555 215.904 299.738 216.021C297.988 216.278 296.459 216.686 295.152 217.246C293.845 217.806 292.83 218.565 292.106 219.522C291.383 220.455 291.021 221.622 291.021 223.022C291.021 225.053 291.756 226.605 293.227 227.678C294.72 228.729 296.611 229.254 298.898 229.254ZM365.081 184.759V195.961H332.698V184.759H365.081ZM340.05 171.876H354.963V222.007C354.963 223.384 355.173 224.458 355.593 225.228C356.014 225.975 356.597 226.5 357.344 226.803C358.114 227.107 359.001 227.258 360.004 227.258C360.705 227.258 361.405 227.2 362.105 227.083C362.805 226.943 363.342 226.838 363.715 226.768L366.061 237.866C365.314 238.099 364.264 238.368 362.91 238.671C361.557 238.998 359.911 239.196 357.974 239.266C354.38 239.406 351.229 238.928 348.522 237.831C345.838 236.734 343.749 235.03 342.255 232.72C340.762 230.409 340.027 227.492 340.05 223.968V171.876ZM398.723 239.581C393.192 239.581 388.431 238.461 384.44 236.22C380.473 233.957 377.415 230.759 375.268 226.628C373.121 222.474 372.047 217.561 372.047 211.89C372.047 206.359 373.121 201.504 375.268 197.326C377.415 193.149 380.438 189.893 384.335 187.559C388.256 185.225 392.854 184.058 398.128 184.058C401.676 184.058 404.978 184.63 408.036 185.774C411.116 186.894 413.8 188.586 416.087 190.85C418.398 193.114 420.195 195.961 421.479 199.392C422.762 202.799 423.404 206.79 423.404 211.365V215.461H377.999V206.219H409.366C409.366 204.071 408.899 202.169 407.966 200.512C407.032 198.855 405.737 197.56 404.08 196.626C402.446 195.669 400.544 195.191 398.373 195.191C396.109 195.191 394.102 195.716 392.352 196.766C390.625 197.793 389.271 199.182 388.291 200.932C387.311 202.659 386.809 204.585 386.786 206.709V215.496C386.786 218.156 387.276 220.455 388.256 222.392C389.26 224.329 390.672 225.823 392.492 226.873C394.312 227.924 396.471 228.449 398.968 228.449C400.626 228.449 402.143 228.215 403.52 227.749C404.897 227.282 406.075 226.582 407.055 225.648C408.036 224.714 408.782 223.571 409.296 222.217L423.089 223.127C422.389 226.442 420.954 229.336 418.783 231.809C416.636 234.26 413.859 236.174 410.451 237.551C407.067 238.904 403.158 239.581 398.723 239.581Z" fill="#0053A4"/>
</g>
<defs>
<filter id="filter0_d_96_581" x="0.911053" y="0.244569" width="590.109" height="423.751" filterUnits="userSpaceOnUse" color-interpolation-filters="sRGB">
<feFlood flood-opacity="0" result="BackgroundImageFix"/>
<feColorMatrix in="SourceAlpha" type="matrix" values="0 0 0 0 0 0 0 0 0 0 0 0 0 0 0 0 0 0 127 0" result="hardAlpha"/>
<feOffset dy="6.2549"/>
<feGaussianBlur stdDeviation="12.5098"/>
<feComposite in2="hardAlpha" operator="out"/>
<feColorMatrix type="matrix" values="0 0 0 0 1 0 0 0 0 1 0 0 0 0 1 0 0 0 1 0"/>
<feBlend mode="normal" in2="BackgroundImageFix" result="effect1_dropShadow_96_581"/>
<feBlend mode="normal" in="SourceGraphic" in2="effect1_dropShadow_96_581" result="shape"/>
</filter>
</defs>
</svg>
