<svg width="39" height="46" viewBox="0 0 39 46" fill="none" xmlns="http://www.w3.org/2000/svg">
<g id="Group">
<path id="Vector" d="M32.2869 37.2982C30.2008 36.871 27.708 36.5592 24.9924 36.3752C25.788 35.3605 26.6206 34.2663 27.4507 33.1245C32.6746 25.9392 35.3234 20.3735 35.3234 16.5824C35.3234 7.43881 28.0607 0 19.1335 0C10.2064 0 2.94362 7.43881 2.94362 16.5824C2.94362 22.1269 8.72204 30.5848 13.2619 36.3741C10.551 36.5588 8.06359 36.8714 5.98015 37.2982C1.95613 38.1226 0 39.236 0 40.7022C0 42.1685 1.95613 43.2819 5.98015 44.1063C9.501 44.8275 14.1723 45.2247 19.1335 45.2247C24.0947 45.2247 28.7661 44.8275 32.2869 44.1063C36.3109 43.2819 38.2671 42.1685 38.2671 40.7022C38.2671 39.236 36.3109 38.1226 32.2869 37.2982ZM31.9984 42.628C28.5695 43.3305 24.0007 43.7172 19.1335 43.7172C14.2663 43.7172 9.69757 43.3305 6.26872 42.628C1.75357 41.7031 1.47181 40.7117 1.47181 40.7022C1.47181 40.6928 1.75357 39.7014 6.26872 38.7765C8.55711 38.3077 11.3543 37.9801 14.4081 37.8137C16.6529 40.5905 18.3882 42.4977 18.5965 42.7253C18.7357 42.8773 18.9301 42.9635 19.1334 42.9635C19.3368 42.9635 19.5312 42.8773 19.6704 42.7253C19.6968 42.6965 21.4944 40.7264 23.8463 37.8148C26.9047 37.9807 29.7072 38.3072 31.9982 38.7765C36.5135 39.7014 36.7953 40.6928 36.7953 40.7022C36.7953 40.7117 36.5135 41.7031 31.9984 42.628Z" fill="black"/>
<path id="Vector_2" d="M32.3793 16.5824C32.3793 9.10132 26.4371 3.01501 19.133 3.01501C11.829 3.01501 5.88672 9.10132 5.88672 16.5824C5.88672 24.0635 11.829 30.1498 19.133 30.1498C26.4371 30.1498 32.3793 24.0635 32.3793 16.5824Z" fill="white"/>
<path id="Vector_3" d="M22.8127 23.3661H23.5486H27.964C28.3704 23.3661 28.6999 23.0286 28.6999 22.6124V16.5824C28.6999 16.2809 28.5245 16.0084 28.2539 15.8895L24.2845 14.1472V12.8137C24.2845 12.5617 24.1615 12.3263 23.9568 12.1866L19.8691 9.39537V8.29123H20.605C21.0114 8.29123 21.3409 7.95374 21.3409 7.53748C21.3409 7.12123 21.0114 6.78374 20.605 6.78374H19.8691V6.02999C19.8691 5.61373 19.5396 5.27625 19.1332 5.27625C18.7268 5.27625 18.3973 5.61373 18.3973 6.02999V6.78374H17.6614C17.255 6.78374 16.9255 7.12123 16.9255 7.53748C16.9255 7.95374 17.255 8.29123 17.6614 8.29123H18.3973V9.39537L14.3095 12.1866C14.1048 12.3263 13.9818 12.5617 13.9818 12.8137V14.1472L10.0125 15.8896C9.74183 16.0084 9.56641 16.2809 9.56641 16.5824V22.6124C9.56641 23.0286 9.89591 23.3661 10.3023 23.3661H14.7177H15.4536H17.6614H20.605H22.8127ZM27.2281 17.0794V21.8586H24.2845V21.1049H25.0204C25.4268 21.1049 25.7563 20.7674 25.7563 20.3512C25.7563 19.9349 25.4268 19.5974 25.0204 19.5974H24.2845V18.8437H25.0204C25.4268 18.8437 25.7563 18.5062 25.7563 18.0899C25.7563 17.6737 25.4268 17.3362 25.0204 17.3362H24.2845V15.7873L27.2281 17.0794ZM15.4536 13.217L19.1332 10.7046L22.8127 13.217V21.8586H21.3409V18.8437C21.3409 18.4274 21.0114 18.0899 20.605 18.0899H17.6614C17.255 18.0899 16.9255 18.4274 16.9255 18.8437V21.8586H15.4536V13.217ZM11.0382 17.0794L13.9818 15.7873V17.3362H13.2459C12.8395 17.3362 12.51 17.6737 12.51 18.0899C12.51 18.5062 12.8395 18.8437 13.2459 18.8437H13.9818V19.5974H13.2459C12.8395 19.5974 12.51 19.9349 12.51 20.3512C12.51 20.7674 12.8395 21.1049 13.2459 21.1049H13.9818V21.8586H11.0382V17.0794ZM18.3973 21.8586V19.5974H19.8691V21.8586H18.3973Z" fill="black"/>
<path id="Vector_4" d="M16.9263 15.075H17.6622C18.0686 15.075 18.3981 14.7375 18.3981 14.3213C18.3981 13.905 18.0686 13.5675 17.6622 13.5675H16.9263C16.5199 13.5675 16.1904 13.905 16.1904 14.3213C16.1904 14.7375 16.5199 15.075 16.9263 15.075Z" fill="black"/>
<path id="Vector_5" d="M20.6055 15.075H21.3414C21.7478 15.075 22.0773 14.7375 22.0773 14.3213C22.0773 13.905 21.7478 13.5675 21.3414 13.5675H20.6055C20.1991 13.5675 19.8696 13.905 19.8696 14.3213C19.8696 14.7375 20.1991 15.075 20.6055 15.075Z" fill="black"/>
<path id="Vector_6" d="M16.9263 17.3362H17.6622C18.0686 17.3362 18.3981 16.9987 18.3981 16.5824C18.3981 16.1662 18.0686 15.8287 17.6622 15.8287H16.9263C16.5199 15.8287 16.1904 16.1662 16.1904 16.5824C16.1904 16.9987 16.5199 17.3362 16.9263 17.3362Z" fill="black"/>
<path id="Vector_7" d="M20.6055 17.3362H21.3414C21.7478 17.3362 22.0773 16.9987 22.0773 16.5824C22.0773 16.1662 21.7478 15.8287 21.3414 15.8287H20.6055C20.1991 15.8287 19.8696 16.1662 19.8696 16.5824C19.8696 16.9987 20.1991 17.3362 20.6055 17.3362Z" fill="black"/>
</g>
</svg>
