<svg width="52" height="77" viewBox="0 0 52 77" fill="none" xmlns="http://www.w3.org/2000/svg">
<g id="Group 159">
<path id="Vector" d="M22.76 29.4536C26.0504 23.5649 32.5669 19.4591 40.166 19.2853C51.1947 19.5374 59.8718 28.029 59.8718 38.2512C59.8718 48.4735 51.1947 56.9651 40.1659 57.2172C32.2003 57.035 25.4274 52.5334 22.3087 46.1888C21.1214 43.7735 20.4602 41.0862 20.4602 38.2512C20.4602 35.0764 21.2896 32.0851 22.76 29.4536Z" stroke="#0053A4" stroke-width="3.78564"/>
<path id="Vector_2" d="M14.0579 38.0034C14.0579 24.3246 25.6186 13.0552 40.1662 12.8256C54.7138 13.0552 66.2745 24.3246 66.2745 38.0034C66.2745 51.6822 54.7138 62.9516 40.1662 63.1812C25.6186 62.9516 14.0579 51.6822 14.0579 38.0034Z" stroke="#3B8AD7" stroke-width="3.78564"/>
<path id="Vector_3" d="M7.70923 38.5001C7.70923 21.5252 22.1102 7.57863 40.1655 7.36008C58.2208 7.57863 72.6218 21.5252 72.6218 38.5001C72.6218 55.4751 58.2208 69.4217 40.1655 69.6402C22.1102 69.4217 7.70923 55.4751 7.70923 38.5001Z" stroke="#81B1E1" stroke-width="3.78564"/>
<path id="Vector_4" d="M1.89282 38.5C1.89282 18.503 18.8977 2.10358 40.1667 1.89483C61.4357 2.10358 78.4405 18.503 78.4405 38.5C78.4405 58.497 61.4356 74.8964 40.1667 75.1052C18.8977 74.8964 1.89282 58.497 1.89282 38.5Z" stroke="#C3E0FD" stroke-width="3.78564"/>
</g>
</svg>
