<svg width="50" height="53" viewBox="0 0 50 53" fill="none" xmlns="http://www.w3.org/2000/svg">
<path d="M25.0011 0C11.4366 0 0.428711 11.7069 0.428711 26.1808C0.428711 40.6547 11.5431 50.7652 25.0011 52.3616C38.8498 53.9934 49.5736 40.6547 49.5736 26.1808C49.5736 11.7069 38.5657 0 25.0011 0ZM31.4283 34.0918C28.8716 37.391 25.2852 40.0162 21.2372 40.1226C17.1891 40.229 12.0403 39.3776 9.30604 36.2203C6.57182 33.0985 4.76082 30.5088 4.51226 22.3849C4.37022 17.4893 6.96241 11.2102 9.51908 7.94647C12.5729 4.61179 16.1238 3.44111 20.1719 3.33468C24.2199 3.22825 27.9839 5.8889 30.6826 9.01073C33.4523 12.1326 35.1923 16.5315 35.3343 21.4271C35.4764 26.3227 33.985 30.7926 31.4283 34.0918Z" fill="#2A3A58"/>
</svg>
