<svg width="730" height="282" viewBox="0 0 730 282" fill="none" xmlns="http://www.w3.org/2000/svg">
<path d="M297.676 280.042C187.171 274.011 66.084 235.414 70.8777 196.64C78.2992 137.218 296.362 121.503 296.362 121.503C286.064 120.9 248.815 121.893 248.815 121.893C122.97 121.006 0.427307 157.972 0.00119537 200.577C-0.424916 243.325 113.134 279.758 238.943 280.61C248.353 280.681 282.158 280.539 291.319 280.184L297.676 280.007V280.042Z" fill="#2A3A58"/>
<path d="M426.29 121.609C541.66 128.598 675.494 160.313 670.097 197.987C661.823 255.67 425.793 279.723 425.793 279.723C447.489 282.915 479.98 279.332 479.98 279.332C611.009 276.849 729.149 243.431 730.001 201.925C730.853 160.384 586.934 123.489 455.55 121.467C445.714 121.29 442.518 121.325 433.001 121.538L426.29 121.644V121.609Z" fill="#2A3A58"/>
<path d="M365.001 0C351.437 0 340.429 11.7069 340.429 26.1808C340.429 40.6547 351.543 50.7652 365.001 52.3616C378.85 53.9934 389.574 40.6547 389.574 26.1808C389.574 11.7069 378.566 0 365.001 0ZM371.428 34.0918C368.872 37.391 365.285 40.0162 361.237 40.1226C357.189 40.229 352.04 39.3776 349.306 36.2203C346.572 33.0985 344.761 30.5088 344.512 22.3849C344.37 17.4893 346.962 11.2102 349.519 7.94647C352.573 4.61179 356.124 3.44111 360.172 3.33468C364.22 3.22825 367.984 5.8889 370.683 9.01073C373.452 12.1326 375.192 16.5315 375.334 21.4271C375.476 26.3227 373.985 30.7926 371.428 34.0918Z" fill="#2A3A58"/>
<path d="M321.928 244.318C250.625 240.38 172.363 215.477 175.487 190.467C180.246 152.047 321.111 141.901 321.111 141.901C314.4 141.546 290.324 142.149 290.324 142.149C209.15 141.653 130 165.456 129.716 193.021C129.432 220.621 228.858 244.105 310.103 244.673C316.175 244.708 311.879 244.637 317.809 244.389L321.928 244.318Z" fill="#2A3A58"/>
<path d="M406.512 142.859C481.011 147.364 565.097 167.833 561.617 192.169C556.291 229.454 406.299 244.921 406.299 244.921C408.181 244.921 412.727 244.637 412.727 244.637C497.381 243.041 599.718 221.472 600.287 194.653C600.819 167.833 507.927 144.029 423.095 142.717C416.739 142.575 416.952 142.646 410.845 142.717L406.512 142.788V142.859Z" fill="#2A3A58"/>
<path d="M342.665 217.216C306.268 215.265 266.746 202.529 268.308 189.758C270.759 170.175 342.629 164.996 342.629 164.996C339.22 164.819 326.934 165.138 326.934 165.138C285.495 164.89 245.085 177.058 244.979 191.106C244.837 205.154 295.189 217.18 336.593 217.429C339.718 217.429 337.552 217.393 340.534 217.287L342.665 217.216Z" fill="#2A3A58"/>
<path d="M386.198 165.067C424.228 167.408 467.123 177.802 465.348 190.254C462.649 209.233 386.375 217.18 386.375 217.18C387.334 217.18 389.642 217.038 389.642 217.038C432.857 216.222 484.807 205.189 485.056 191.531C485.375 177.838 437.935 165.705 394.684 165.031C391.417 164.96 391.524 164.996 388.399 165.031H386.162L386.198 165.067Z" fill="#2A3A58"/>
</svg>
