<svg width="242" height="54" viewBox="0 0 242 54" fill="none" xmlns="http://www.w3.org/2000/svg">
<path d="M98.6649 53.2157C62.2679 51.2646 22.746 38.5289 24.3084 25.7578C26.7586 6.17544 98.6294 0.996031 98.6294 0.996031C95.2205 0.818655 82.9343 1.13794 82.9343 1.13794C41.4949 0.889609 1.08534 13.0576 0.978815 27.1059C0.836778 41.1541 51.189 53.1802 92.5928 53.4286C95.7176 53.4286 93.5516 53.3931 96.5343 53.2867L98.6649 53.2157Z" fill="#2A3A58"/>
<path d="M142.198 1.06667C180.228 3.40804 223.123 13.8023 221.348 26.2542C218.649 45.2334 142.375 53.1799 142.375 53.1799C143.334 53.1799 145.642 53.038 145.642 53.038C188.857 52.2221 240.807 41.1893 241.056 27.5313C241.375 13.8378 193.935 1.70523 150.684 1.0312C147.417 0.960247 147.524 0.995722 144.399 1.0312H142.162L142.198 1.06667Z" fill="#2A3A58"/>
</svg>
