<svg width="472" height="104" viewBox="0 0 472 104" fill="none" xmlns="http://www.w3.org/2000/svg">
<path d="M192.928 103.318C121.625 99.3803 43.3626 74.4766 46.4874 49.4665C51.2457 11.0468 192.111 0.900839 192.111 0.900839C185.4 0.546086 161.324 1.14917 161.324 1.14917C80.1502 0.652511 1.00001 24.4565 0.715939 52.0208C0.431865 79.6206 99.8579 103.105 181.103 103.673C187.175 103.708 182.879 103.637 188.809 103.389L192.928 103.318Z" fill="#2A3A58"/>
<path d="M277.512 1.8586C352.011 6.36396 436.097 26.8332 432.617 51.1693C427.29 88.4539 277.299 103.921 277.299 103.921C279.181 103.921 283.726 103.637 283.726 103.637C368.38 102.041 470.718 80.4719 471.286 53.6526C471.819 26.8332 378.927 3.02928 294.095 1.71669C287.739 1.57479 287.952 1.64574 281.844 1.71669L277.512 1.78764V1.8586Z" fill="#2A3A58"/>
</svg>
