<svg width="730" height="160" viewBox="0 0 730 160" fill="none" xmlns="http://www.w3.org/2000/svg">
<path d="M297.676 159.042C187.171 153.011 66.084 114.414 70.8777 75.6396C78.2992 16.2185 296.362 0.502906 296.362 0.502906C286.064 -0.100175 248.815 0.893136 248.815 0.893136C122.97 0.00625318 0.427307 36.9715 0.00119537 79.5774C-0.424916 122.325 113.134 158.758 238.943 159.61C248.353 159.681 282.158 159.539 291.319 159.184L297.676 159.007V159.042Z" fill="#2A3A58"/>
<path d="M426.29 0.608982C541.66 7.59762 675.494 39.3126 670.097 76.9874C661.823 134.67 425.793 158.723 425.793 158.723C447.489 161.915 479.98 158.332 479.98 158.332C611.009 155.849 729.149 122.431 730.001 80.9251C730.853 39.3835 586.934 2.48918 455.55 0.467091C445.714 0.289714 442.518 0.325178 433.001 0.538029L426.29 0.644465V0.608982Z" fill="#2A3A58"/>
</svg>
