<svg width="730" height="161" viewBox="0 0 730 161" fill="none" xmlns="http://www.w3.org/2000/svg">
<path d="M297.676 159.042C187.171 153.011 66.084 114.414 70.8777 75.6396C78.2992 16.2185 296.362 0.502906 296.362 0.502906C286.064 -0.100175 248.815 0.893136 248.815 0.893136C122.97 0.00625318 0.427307 36.9715 0.00119537 79.5774C-0.424916 122.325 113.134 158.758 238.943 159.61C248.353 159.681 282.158 159.539 291.319 159.184L297.676 159.007V159.042Z" fill="#2A3A58"/>
<path d="M426.29 0.608982C541.66 7.59762 675.494 39.3126 670.097 76.9874C661.823 134.67 425.793 158.723 425.793 158.723C447.489 161.915 479.98 158.332 479.98 158.332C611.009 155.849 729.149 122.431 730.001 80.9251C730.853 39.3835 586.934 2.48918 455.55 0.467091C445.714 0.289714 442.518 0.325178 433.001 0.538029L426.29 0.644465V0.608982Z" fill="#2A3A58"/>
<path d="M321.928 123.318C250.625 119.38 172.363 94.4766 175.487 69.4665C180.246 31.0468 321.111 20.9008 321.111 20.9008C314.4 20.5461 290.324 21.1492 290.324 21.1492C209.15 20.6525 130 44.4565 129.716 72.0208C129.432 99.6206 228.858 123.105 310.103 123.673C316.175 123.708 311.879 123.637 317.809 123.389L321.928 123.318Z" fill="#2A3A58"/>
<path d="M406.512 21.8586C481.011 26.364 565.097 46.8332 561.617 71.1693C556.291 108.454 406.299 123.921 406.299 123.921C408.181 123.921 412.727 123.637 412.727 123.637C497.381 122.041 599.718 100.472 600.287 73.6526C600.819 46.8332 507.927 23.0293 423.095 21.7167C416.739 21.5748 416.952 21.6457 410.845 21.7167L406.512 21.7876V21.8586Z" fill="#2A3A58"/>
<path d="M342.665 96.2157C306.268 94.2646 266.746 81.5289 268.308 68.7578C270.759 49.1754 342.629 43.996 342.629 43.996C339.22 43.8187 326.934 44.1379 326.934 44.1379C285.495 43.8896 245.085 56.0576 244.979 70.1059C244.837 84.1541 295.189 96.1802 336.593 96.4286C339.718 96.4286 337.552 96.3931 340.534 96.2867L342.665 96.2157Z" fill="#2A3A58"/>
<path d="M386.198 44.0667C424.228 46.408 467.123 56.8023 465.348 69.2542C462.649 88.2334 386.375 96.1799 386.375 96.1799C387.334 96.1799 389.642 96.038 389.642 96.038C432.857 95.2221 484.807 84.1893 485.056 70.5313C485.375 56.8378 437.935 44.7052 394.684 44.0312C391.417 43.9602 391.524 43.9957 388.399 44.0312H386.162L386.198 44.0667Z" fill="#2A3A58"/>
</svg>
