<svg width="20" height="20" viewBox="0 0 20 20" fill="none" xmlns="http://www.w3.org/2000/svg">
<g id="Group">
<g id="Group_2">
<g id="Group_3">
<path id="Vector" d="M3.85255 12.1895H3.78939C3.36834 12.1895 3.03149 12.5263 3.03149 12.9474V13.0316C3.03149 13.4526 3.36834 13.7895 3.78939 13.7895H3.85255C4.2736 13.7895 4.61044 13.4526 4.61044 13.0316V12.9474C4.61044 12.5263 4.2736 12.1895 3.85255 12.1895Z" fill="#4A6EEB"/>
<path id="Vector_2" d="M6.92628 12.1895H6.86312C6.44207 12.1895 6.10522 12.5263 6.10522 12.9474V13.0316C6.10522 13.4526 6.44207 13.7895 6.86312 13.7895H6.92628C7.34733 13.7895 7.68417 13.4526 7.68417 13.0316V12.9474C7.68417 12.5263 7.34733 12.1895 6.92628 12.1895Z" fill="#4A6EEB"/>
<path id="Vector_3" d="M10.0211 12.1895H9.93685C9.5158 12.1895 9.17896 12.5263 9.17896 12.9474V13.0316C9.17896 13.4526 9.5158 13.7895 9.93685 13.7895H10.0211C10.4421 13.7895 10.779 13.4526 10.779 13.0316V12.9474C10.779 12.5263 10.4421 12.1895 10.0211 12.1895Z" fill="#4A6EEB"/>
<path id="Vector_4" d="M3.85255 9.0737H3.78939C3.36834 9.0737 3.03149 9.41054 3.03149 9.8316V9.91581C3.03149 10.3369 3.36834 10.6737 3.78939 10.6737H3.85255C4.2736 10.6737 4.61044 10.3369 4.61044 9.91581V9.8316C4.61044 9.41054 4.2736 9.0737 3.85255 9.0737Z" fill="#4A6EEB"/>
<path id="Vector_5" d="M6.92628 9.0737H6.86312C6.44207 9.0737 6.10522 9.41054 6.10522 9.8316V9.91581C6.10522 10.3369 6.44207 10.6737 6.86312 10.6737H6.92628C7.34733 10.6737 7.68417 10.3369 7.68417 9.91581V9.8316C7.68417 9.41054 7.34733 9.0737 6.92628 9.0737Z" fill="#4A6EEB"/>
<path id="Vector_6" d="M10.0211 9.0737H9.93685C9.5158 9.0737 9.17896 9.41054 9.17896 9.8316V9.91581C9.17896 10.3369 9.5158 10.6737 9.93685 10.6737H10.0211C10.4421 10.6737 10.779 10.3369 10.779 9.91581V9.8316C10.779 9.41054 10.4421 9.0737 10.0211 9.0737Z" fill="#4A6EEB"/>
<path id="Vector_7" d="M13.0948 12.1895H13.0106C12.5895 12.1895 12.2527 12.5263 12.2527 12.9474V13.0316C12.2527 13.4526 12.5895 13.7895 13.0106 13.7895H13.0948C13.5158 13.7895 13.8527 13.4526 13.8527 13.0316V12.9474C13.8737 12.5263 13.5158 12.1895 13.0948 12.1895Z" fill="#4A6EEB"/>
<path id="Vector_8" d="M16.1895 12.1895H16.1053C15.6843 12.1895 15.3474 12.5263 15.3474 12.9474V13.0316C15.3474 13.4526 15.6843 13.7895 16.1053 13.7895H16.1895C16.6106 13.7895 16.9474 13.4526 16.9474 13.0316V12.9474C16.9474 12.5263 16.6106 12.1895 16.1895 12.1895Z" fill="#4A6EEB"/>
<path id="Vector_9" d="M13.0948 9.0737H13.0106C12.5895 9.0737 12.2527 9.41054 12.2527 9.8316V9.91581C12.2527 10.3369 12.5895 10.6737 13.0106 10.6737H13.0948C13.5158 10.6737 13.8527 10.3369 13.8527 9.91581V9.8316C13.8737 9.41054 13.5158 9.0737 13.0948 9.0737Z" fill="#4A6EEB"/>
<path id="Vector_10" d="M16.1895 9.0737H16.1053C15.6843 9.0737 15.3474 9.41054 15.3474 9.8316V9.91581C15.3474 10.3369 15.6843 10.6737 16.1053 10.6737H16.1895C16.6106 10.6737 16.9474 10.3369 16.9474 9.91581V9.8316C16.9474 9.41054 16.6106 9.0737 16.1895 9.0737Z" fill="#4A6EEB"/>
<path id="Vector_11" d="M3.85255 15.2842H3.78939C3.36834 15.2842 3.03149 15.6211 3.03149 16.0421V16.1263C3.03149 16.5474 3.36834 16.8842 3.78939 16.8842H3.85255C4.2736 16.8842 4.61044 16.5474 4.61044 16.1263V16.0421C4.61044 15.6421 4.2736 15.2842 3.85255 15.2842Z" fill="#4A6EEB"/>
<path id="Vector_12" d="M6.92628 15.2842H6.86312C6.44207 15.2842 6.10522 15.6211 6.10522 16.0421V16.1263C6.10522 16.5474 6.44207 16.8842 6.86312 16.8842H6.92628C7.34733 16.8842 7.68417 16.5474 7.68417 16.1263V16.0421C7.68417 15.6421 7.34733 15.2842 6.92628 15.2842Z" fill="#4A6EEB"/>
<path id="Vector_13" d="M10.0211 15.2842H9.93685C9.5158 15.2842 9.17896 15.6211 9.17896 16.0421V16.1263C9.17896 16.5474 9.5158 16.8842 9.93685 16.8842H10.0211C10.4421 16.8842 10.779 16.5474 10.779 16.1263V16.0421C10.779 15.6421 10.4421 15.2842 10.0211 15.2842Z" fill="#4A6EEB"/>
<path id="Vector_14" d="M13.0948 15.2842H13.0106C12.5895 15.2842 12.2527 15.6211 12.2527 16.0421V16.1263C12.2527 16.5474 12.5895 16.8842 13.0106 16.8842H13.0948C13.5158 16.8842 13.8527 16.5474 13.8527 16.1263V16.0421C13.8737 15.6421 13.5158 15.2842 13.0948 15.2842Z" fill="#4A6EEB"/>
<path id="Vector_15" d="M16.1895 15.2842H16.1053C15.6843 15.2842 15.3474 15.6211 15.3474 16.0421V16.1263C15.3474 16.5474 15.6843 16.8842 16.1053 16.8842H16.1895C16.6106 16.8842 16.9474 16.5474 16.9474 16.1263V16.0421C16.9474 15.6421 16.6106 15.2842 16.1895 15.2842Z" fill="#4A6EEB"/>
<path id="Vector_16" d="M19.9789 6.61053V4.90527C19.9789 3.60001 18.9263 2.54737 17.6421 2.54737H16.4V1.81053C16.4 0.905269 15.6632 0.168427 14.7579 0.168427C13.8526 0.168427 13.1158 0.905269 13.1158 1.81053V2.54737H6.88421V1.81053C6.88421 0.905269 6.14737 0.168427 5.24211 0.168427C4.33684 0.168427 3.6 0.905269 3.6 1.81053V2.54737H2.35789C1.05263 2.54737 0 3.60001 0 4.90527V17.4947C0 18.779 1.05263 19.8316 2.35789 19.8316H17.6632C18.9474 19.8316 20 18.779 20 17.4947L19.9789 6.61053ZM14.0842 1.81053C14.0842 1.45264 14.3789 1.1579 14.7368 1.1579C15.0947 1.1579 15.3895 1.45264 15.3895 1.81053V3.36843C15.3895 3.72632 15.0947 4.02106 14.7368 4.02106C14.3789 4.02106 14.0842 3.72632 14.0842 3.36843V1.81053ZM4.56842 1.81053C4.56842 1.45264 4.86316 1.1579 5.22105 1.1579C5.57895 1.1579 5.87368 1.45264 5.87368 1.81053V3.36843C5.87368 3.72632 5.57895 4.02106 5.22105 4.02106C4.86316 4.02106 4.56842 3.72632 4.56842 3.36843V1.81053ZM2.33684 3.53685H3.6C3.68421 4.3579 4.37895 5.01053 5.24211 5.01053C6.08421 5.01053 6.77895 4.3579 6.86316 3.53685H13.1158C13.2 4.3579 13.8947 5.01053 14.7368 5.01053C15.5789 5.01053 16.2737 4.3579 16.3579 3.53685H17.6211C18.3579 3.53685 18.9684 4.14737 18.9684 4.90527V6.12632H0.968421V4.90527C0.968421 4.14737 1.57895 3.53685 2.33684 3.53685ZM17.6421 18.8421H2.33684C1.57895 18.8421 0.968421 18.2316 0.968421 17.4947V7.09474H18.9895V17.4947C18.9895 18.2316 18.3789 18.8421 17.6421 18.8421Z" fill="#4A6EEB"/>
</g>
</g>
</g>
</svg>
