<svg width="21" height="16" viewBox="0 0 21 16" fill="none" xmlns="http://www.w3.org/2000/svg">
<g id="Group">
<path id="Vector" d="M13.2062 10.7124C13.3902 10.7124 13.5395 10.8633 13.5395 11.0493C13.5395 11.2352 13.3902 11.3861 13.2062 11.3861H6.53389C6.45331 11.3861 6.37929 11.3572 6.32155 11.3089L2.1103 8.21937C1.99953 8.1382 1.86881 8.10372 1.74256 8.11354C1.61709 8.12335 1.49399 8.17852 1.39713 8.2764L1.32758 8.34669C1.22495 8.4488 1.17061 8.58196 1.1651 8.71591C1.15959 8.85065 1.2029 8.98805 1.29582 9.09918L6.09214 14.8356C6.19083 14.9537 6.30527 15.0433 6.43048 15.1022C6.55568 15.1605 6.69716 15.191 6.85123 15.191H15.4693C15.6018 15.191 15.7242 15.169 15.8344 15.1253C15.9449 15.0815 16.0488 15.0136 16.1452 14.9234L18.3899 12.8166V7.35069H14.2472C14.1191 7.35069 14.0025 7.37059 13.8975 7.41011C13.7912 7.45016 13.6904 7.51223 13.596 7.59551L12.0759 8.93235C11.9213 9.06815 11.7525 9.17054 11.5691 9.24003C11.3853 9.30926 11.1916 9.344 10.9874 9.344H7.85969C7.59379 9.344 7.35126 9.45063 7.17277 9.62304L7.1586 9.63843C6.9788 9.82012 6.86724 10.071 6.86724 10.3469V10.7124H13.2062ZM7.56597 0.648767C7.73133 0.518001 7.91455 0.408721 8.11088 0.325169C8.39777 0.203156 8.7117 0.135254 9.03796 0.135254C9.69732 0.135254 10.2947 0.406068 10.7273 0.842925C11.1612 1.28005 11.4289 1.88454 11.4289 2.55163C11.4289 2.87576 11.3651 3.18636 11.2509 3.47017C11.1328 3.76486 10.9572 4.03355 10.7409 4.26192L7.80168 7.2507C7.67228 7.38199 7.4615 7.38279 7.33157 7.25202L4.37315 4.24309C4.165 4.0187 3.9957 3.7569 3.88073 3.47017C3.76655 3.18636 3.70277 2.87576 3.70277 2.55163C3.70277 1.88454 3.9705 1.28005 4.40307 0.842925L4.42302 0.824358C4.85401 0.398641 5.44381 0.135254 6.09371 0.135254C6.41998 0.135254 6.7339 0.203156 7.0208 0.325169C7.21713 0.408721 7.40034 0.518001 7.56597 0.648767ZM8.36864 0.943718C8.15603 1.03417 7.96363 1.16785 7.8043 1.33283L7.79774 1.33946C7.66624 1.46864 7.45546 1.46572 7.32764 1.33283C7.16805 1.16785 6.97565 1.03417 6.76304 0.943718C6.55962 0.857249 6.3331 0.808974 6.09371 0.808974C5.62518 0.808974 5.20023 0.997563 4.88971 1.30286L4.87449 1.3193C4.56266 1.63441 4.36947 2.07048 4.36947 2.55163C4.36947 2.78743 4.41567 3.01236 4.49809 3.21766C4.58313 3.42985 4.70597 3.62162 4.85533 3.78316L7.56597 6.53746L10.2656 3.7935C10.4199 3.63038 10.5464 3.43463 10.6336 3.21766C10.716 3.01236 10.7622 2.78743 10.7622 2.55163C10.7622 2.07048 10.569 1.63441 10.2572 1.3193C9.94589 1.00393 9.51463 0.808974 9.03796 0.808974C8.79858 0.808974 8.57206 0.857249 8.36864 0.943718ZM19.0566 12.6256H19.8333V7.35069H19.0566V12.6256ZM20.1666 6.67697C20.3506 6.67697 20.5 6.8279 20.5 7.01383V12.9625C20.5 13.1484 20.3506 13.2993 20.1666 13.2993H18.8532L16.5982 15.4157C16.4399 15.5642 16.2657 15.6767 16.0764 15.7518C15.8869 15.8271 15.6843 15.8648 15.4693 15.8648H6.85123C6.60135 15.8648 6.36617 15.813 6.15172 15.7128C5.93727 15.6123 5.74619 15.4635 5.5845 15.2701L0.788177 9.53365C0.583705 9.28963 0.488949 8.98725 0.501023 8.68938C0.513097 8.39125 0.633051 8.09709 0.856948 7.8711L0.925718 7.80002C1.13806 7.58543 1.41052 7.46475 1.69059 7.44247C1.96961 7.42045 2.25729 7.49605 2.50087 7.67456L6.20054 10.3888V10.3469C6.20054 9.8851 6.3869 9.46549 6.68718 9.16205L6.70792 9.14295C7.00662 8.85065 7.41347 8.67028 7.85969 8.67028H10.9874C11.1155 8.67028 11.232 8.65039 11.337 8.61087C11.4418 8.57135 11.5428 8.50902 11.6386 8.42467L13.1587 7.08996C13.3146 6.95256 13.4836 6.84938 13.6655 6.78095C13.8495 6.71145 14.043 6.67697 14.2472 6.67697C16.2205 6.67697 18.1936 6.67697 20.1666 6.67697Z" fill="#4A6EEB"/>
</g>
</svg>
