<svg width="29" height="22" viewBox="0 0 29 22" fill="none" xmlns="http://www.w3.org/2000/svg">
<g id="Group">
<path id="Vector" d="M23.5449 17.1095V0.475475C23.5449 0.211323 23.3336 0 23.0694 0H0.676859C0.412707 0 0.201385 0.211323 0.201385 0.475475V2.77737C0.201385 3.04152 0.412707 3.25285 0.676859 3.25285C0.941011 3.25285 1.15233 3.04152 1.15233 2.77737V0.950949H22.5939V16.6265H1.15233V5.0038C1.15233 4.73965 0.941011 4.52832 0.676859 4.52832C0.412707 4.52832 0.201385 4.73965 0.201385 5.0038V17.1095C0.201385 17.3737 0.412707 17.585 0.676859 17.585H23.0694C23.3336 17.585 23.5449 17.3737 23.5449 17.1095Z" fill="white"/>
<path id="Vector_2" d="M2.48828 19.3207C2.48828 19.5848 2.6996 19.7962 2.96376 19.7962H25.3563C25.6205 19.7962 25.8318 19.5848 25.8318 19.3207V2.68666C25.8318 2.4225 25.6205 2.21118 25.3563 2.21118C25.0922 2.21118 24.8808 2.4225 24.8808 2.68666V18.8377H2.96376C2.6996 18.8452 2.48828 19.0565 2.48828 19.3207Z" fill="white"/>
<path id="Vector_3" d="M27.8317 4.42249C27.5675 4.42249 27.3562 4.63381 27.3562 4.89796V21.049H5.43913C5.17498 21.049 4.96365 21.2603 4.96365 21.5245C4.96365 21.7886 5.17498 21.9999 5.43913 21.9999H27.8317C28.0958 21.9999 28.3072 21.7886 28.3072 21.5245V4.89796C28.3147 4.63381 28.0958 4.42249 27.8317 4.42249Z" fill="white"/>
<path id="Vector_4" d="M10.3524 12.4607C10.5864 12.4607 10.8279 12.4003 11.0392 12.272L14.9562 9.97008C15.3789 9.72102 15.6279 9.28329 15.6279 8.80026C15.6279 8.3097 15.3789 7.87196 14.9562 7.63045L11.0392 5.32855C10.6166 5.07949 10.1034 5.07194 9.67318 5.321C9.24299 5.56251 8.98639 6.0078 8.98639 6.49836V11.1097C8.98639 11.6003 9.24299 12.0456 9.67318 12.2871C9.89205 12.4003 10.1185 12.4607 10.3524 12.4607ZM9.94488 6.48327C9.94488 6.27195 10.0883 6.16629 10.1487 6.12855C10.1864 6.10591 10.2619 6.07572 10.3524 6.07572C10.4128 6.07572 10.4807 6.09082 10.5562 6.1361L14.4732 8.438C14.6543 8.54366 14.677 8.71725 14.677 8.78517C14.677 8.85309 14.6543 9.02668 14.4732 9.13234L10.5562 11.4342C10.3751 11.5399 10.209 11.472 10.1487 11.4342C10.0883 11.3965 9.94488 11.2908 9.94488 11.0795V6.48327Z" fill="white"/>
</g>
</svg>
