<svg width="29" height="22" viewBox="0 0 29 22" fill="none" xmlns="http://www.w3.org/2000/svg">
<g id="Group">
<path id="Vector" d="M24.0405 17.1095V0.475475C24.0405 0.211323 23.8292 0 23.565 0H1.17246C0.908312 0 0.696991 0.211323 0.696991 0.475475V2.77737C0.696991 3.04152 0.908312 3.25285 1.17246 3.25285C1.43662 3.25285 1.64794 3.04152 1.64794 2.77737V0.950949H23.0895V16.6265H1.64794V5.0038C1.64794 4.73965 1.43662 4.52832 1.17246 4.52832C0.908312 4.52832 0.696991 4.73965 0.696991 5.0038V17.1095C0.696991 17.3737 0.908312 17.585 1.17246 17.585H23.565C23.8292 17.585 24.0405 17.3737 24.0405 17.1095Z" fill="#4A6EEB"/>
<path id="Vector_2" d="M2.98389 19.3208C2.98389 19.5849 3.19521 19.7962 3.45936 19.7962H25.8519C26.1161 19.7962 26.3274 19.5849 26.3274 19.3208V2.68672C26.3274 2.42257 26.1161 2.21124 25.8519 2.21124C25.5878 2.21124 25.3764 2.42257 25.3764 2.68672V18.8377H3.45936C3.19521 18.8453 2.98389 19.0566 2.98389 19.3208Z" fill="#4A6EEB"/>
<path id="Vector_3" d="M28.3273 4.42249C28.0631 4.42249 27.8518 4.63381 27.8518 4.89796V21.049H5.93473C5.67058 21.049 5.45926 21.2603 5.45926 21.5245C5.45926 21.7886 5.67058 21.9999 5.93473 21.9999H28.3273C28.5914 21.9999 28.8028 21.7886 28.8028 21.5245V4.89796C28.8103 4.63381 28.5914 4.42249 28.3273 4.42249Z" fill="#4A6EEB"/>
<path id="Vector_4" d="M10.848 12.4607C11.082 12.4607 11.3235 12.4003 11.5348 12.272L15.4518 9.97014C15.8745 9.72108 16.1235 9.28335 16.1235 8.80033C16.1235 8.30976 15.8745 7.87202 15.4518 7.63051L11.5348 5.32861C11.1122 5.07955 10.599 5.07201 10.1688 5.32106C9.7386 5.56257 9.48199 6.00786 9.48199 6.49843V11.1098C9.48199 11.6003 9.7386 12.0456 10.1688 12.2871C10.3877 12.4003 10.6141 12.4607 10.848 12.4607ZM10.4405 6.48333C10.4405 6.27201 10.5839 6.16635 10.6443 6.12861C10.682 6.10597 10.7575 6.07578 10.848 6.07578C10.9084 6.07578 10.9763 6.09088 11.0518 6.13616L14.9688 8.43806C15.1499 8.54372 15.1726 8.71731 15.1726 8.78523C15.1726 8.85316 15.1499 9.02674 14.9688 9.1324L11.0518 11.4343C10.8707 11.54 10.7046 11.472 10.6443 11.4343C10.5839 11.3966 10.4405 11.2909 10.4405 11.0796V6.48333Z" fill="#4A6EEB"/>
</g>
</svg>
