<svg width="20" height="26" viewBox="0 0 20 26" fill="none" xmlns="http://www.w3.org/2000/svg">
<g id="noun-prayer-3811236 1">
<path id="Vector" d="M19.6474 14.4589L16.4199 13.1681C16.3524 13.1411 16.2819 13.1283 16.2122 13.1283C16.0292 13.1283 15.8521 13.2183 15.7464 13.3781L15.4186 13.8701L15.2371 13.8499C14.9799 13.8206 14.7759 13.6196 14.7444 13.3623L13.7603 5.49057C13.7251 5.21005 13.4873 5.00003 13.2045 5.00003H10.7954C10.5126 5.00003 10.2749 5.21005 10.2396 5.49057L9.25482 13.3616C9.22257 13.6181 9.01855 13.8198 8.76205 13.8491L8.58054 13.8694L8.25278 13.3773C8.14627 13.2176 7.96926 13.1276 7.787 13.1276C7.71725 13.1276 7.64674 13.1403 7.57925 13.1681L4.35176 14.4589C4.13949 14.5437 4 14.7499 4 14.9787V20.4397C4 20.7488 4.25051 21 4.56028 21H6.6192C6.73771 21 6.85322 20.9625 6.94846 20.8928L10.7662 18.1161C11.0092 17.9391 11.0692 17.6023 10.9027 17.3525L10.7917 17.186L12 16.4449L13.2083 17.1853L13.0973 17.3518C12.9308 17.6015 12.9908 17.9383 13.2338 18.1153L17.0515 20.892C17.1475 20.9618 17.2623 20.9993 17.3808 20.9993H19.4397C19.7487 20.9993 20 20.7488 20 20.439V14.9779C20 14.7499 19.8604 14.5437 19.6474 14.4589ZM6.53969 20.1997H4.79886V15.1406L7.68054 13.9877L9.80838 17.1575C9.80989 17.1597 9.81214 17.1605 9.81364 17.162L10.1076 17.6038L6.53969 20.1997ZM9.06731 14.6006C9.58857 14.4551 9.9801 14.0126 10.0491 13.4613L11.0069 5.79959H11.5987V15.7536L10.3469 16.5209L9.06731 14.6006ZM12.3996 15.7527V5.79875H12.9914L13.9492 13.4605C14.0182 14.0125 14.4097 14.4543 14.931 14.5998L13.6514 16.5192L12.3996 15.7527ZM19.1995 20.1997H17.4586L13.8899 17.6045L14.1839 17.1627C14.1854 17.1605 14.1877 17.1597 14.1892 17.1582L16.317 13.9884L19.1987 15.1413L19.1995 20.1997Z" fill="#4A6EEB"/>
</g>
</svg>
