<svg preserveAspectRatio="none" width="100%" height="100%" overflow="visible" style="display: block;" viewBox="0 0 479.421 422.25" fill="none" xmlns="http://www.w3.org/2000/svg">
<g id="Group 152">
<line id="Line 1" x1="267.266" y1="171.801" x2="299.935" y2="133.414" stroke="var(--stroke-0, #003CFF)" stroke-width="1.63346"/>
<line id="Line 6" x1="359.841" y1="106.019" x2="267.55" y2="172.991" stroke="var(--stroke-0, #003CFF)" stroke-width="1.63346"/>
<line id="Line 3" x1="267.071" y1="172.33" x2="267.071" y2="133.944" stroke="var(--stroke-0, #003CFF)" stroke-width="1.63346"/>
<line id="Line 5" x1="267.232" y1="172.818" x2="217.412" y2="105.846" stroke="var(--stroke-0, #003CFF)" stroke-width="1.63346"/>
<line id="Line 4" x1="267.888" y1="171.513" x2="300.557" y2="171.513" stroke="var(--stroke-0, #003CFF)" stroke-width="1.63346"/>
<line id="Line 2" x1="228.731" y1="278.232" x2="266.301" y2="172.058" stroke="var(--stroke-0, #003CFF)" stroke-width="1.63346"/>
<line id="Line 11" x1="211.924" y1="205.119" x2="266.645" y2="171.633" stroke="var(--stroke-0, #003CFF)" stroke-width="1.63346"/>
<line id="Line 7" x1="299.828" y1="238.854" x2="266.342" y2="172.699" stroke="var(--stroke-0, #003CFF)" stroke-width="1.63346"/>
<path id="Ellipse 4" d="M268.704 240.527C268.704 242.106 267.425 243.386 265.846 243.386C264.267 243.386 262.987 242.106 262.987 240.527C262.987 238.948 264.267 237.668 265.846 237.668C267.425 237.668 268.704 238.948 268.704 240.527Z" fill="var(--fill-0, #9CB5FF)"/>
<path id="Ellipse 9" d="M196.832 238.894C196.832 240.923 195.186 242.569 193.157 242.569C191.127 242.569 189.481 240.923 189.481 238.894C189.481 236.864 191.127 235.218 193.157 235.218C195.186 235.218 196.832 236.864 196.832 238.894Z" fill="var(--fill-0, #9CB5FF)"/>
<path id="Ellipse 10" d="M123.326 238.894C123.326 240.923 121.681 242.569 119.651 242.569C117.621 242.569 115.976 240.923 115.976 238.894C115.976 236.864 117.621 235.218 119.651 235.218C121.681 235.218 123.326 236.864 123.326 238.894Z" fill="var(--fill-0, #9CB5FF)"/>
<path id="Ellipse 14" d="M123.326 171.922C123.326 173.952 121.681 175.597 119.651 175.597C117.621 175.597 115.976 173.952 115.976 171.922C115.976 169.892 117.621 168.246 119.651 168.246C121.681 168.246 123.326 169.892 123.326 171.922Z" fill="var(--fill-0, #9CB5FF)"/>
<path id="Ellipse 15" d="M87.3902 171.922C87.3902 173.952 85.7447 175.597 83.7149 175.597C81.6851 175.597 80.0396 173.952 80.0396 171.922C80.0396 169.892 81.6851 168.246 83.7149 168.246C85.7447 168.246 87.3902 169.892 87.3902 171.922Z" fill="var(--fill-0, #9CB5FF)"/>
<path id="Ellipse 16" d="M196.832 171.922C196.832 173.952 195.186 175.597 193.157 175.597C191.127 175.597 189.481 173.952 189.481 171.922C189.481 169.892 191.127 168.246 193.157 168.246C195.186 168.246 196.832 169.892 196.832 171.922Z" fill="var(--fill-0, #9CB5FF)"/>
<path id="Ellipse 17" d="M276.055 172.33C276.055 177.292 272.033 181.314 267.071 181.314C262.109 181.314 258.087 177.292 258.087 172.33C258.087 167.368 262.109 163.346 267.071 163.346C272.033 163.346 276.055 167.368 276.055 172.33Z" fill="var(--fill-0, #003CFF)"/>
<path id="Ellipse 18" d="M339.76 171.922C339.76 173.952 338.114 175.597 336.085 175.597C334.055 175.597 332.409 173.952 332.409 171.922C332.409 169.892 334.055 168.246 336.085 168.246C338.114 168.246 339.76 169.892 339.76 171.922Z" fill="var(--fill-0, #9CB5FF)"/>
<path id="Ellipse 32" d="M376.513 171.922C376.513 173.952 374.867 175.597 372.837 175.597C370.808 175.597 369.162 173.952 369.162 171.922C369.162 169.892 370.808 168.246 372.837 168.246C374.867 168.246 376.513 169.892 376.513 171.922Z" fill="var(--fill-0, #9CB5FF)"/>
<path id="Ellipse 33" d="M412.449 171.922C412.449 173.952 410.803 175.597 408.774 175.597C406.744 175.597 405.098 173.952 405.098 171.922C405.098 169.892 406.744 168.246 408.774 168.246C410.803 168.246 412.449 169.892 412.449 171.922Z" fill="var(--fill-0, #9CB5FF)"/>
<path id="Ellipse 34" d="M448.385 171.922C448.385 173.952 446.739 175.597 444.71 175.597C442.68 175.597 441.034 173.952 441.034 171.922C441.034 169.892 442.68 168.246 444.71 168.246C446.739 168.246 448.385 169.892 448.385 171.922Z" fill="var(--fill-0, #9CB5FF)"/>
<path id="Ellipse 35" d="M448.385 133.535C448.385 135.565 446.739 137.211 444.71 137.211C442.68 137.211 441.034 135.565 441.034 133.535C441.034 131.506 442.68 129.86 444.71 129.86C446.739 129.86 448.385 131.506 448.385 133.535Z" fill="var(--fill-0, #9CB5FF)"/>
<path id="Ellipse 36" d="M376.513 133.535C376.513 135.565 374.867 137.211 372.837 137.211C370.808 137.211 369.162 135.565 369.162 133.535C369.162 131.506 370.808 129.86 372.837 129.86C374.867 129.86 376.513 131.506 376.513 133.535Z" fill="var(--fill-0, #9CB5FF)"/>
<path id="Ellipse 37" d="M412.449 133.535C412.449 135.565 410.803 137.211 408.774 137.211C406.744 137.211 405.098 135.565 405.098 133.535C405.098 131.506 406.744 129.86 408.774 129.86C410.803 129.86 412.449 131.506 412.449 133.535Z" fill="var(--fill-0, #9CB5FF)"/>
<path id="Ellipse 38" d="M339.76 133.535C339.76 135.565 338.114 137.211 336.085 137.211C334.055 137.211 332.409 135.565 332.409 133.535C332.409 131.506 334.055 129.86 336.085 129.86C338.114 129.86 339.76 131.506 339.76 133.535Z" fill="var(--fill-0, #9CB5FF)"/>
<path id="Ellipse 39" d="M305.457 131.902C305.457 134.834 303.08 137.211 300.148 137.211C297.216 137.211 294.84 134.834 294.84 131.902C294.84 128.97 297.216 126.593 300.148 126.593C303.08 126.593 305.457 128.97 305.457 131.902Z" fill="var(--fill-0, #003CFF)"/>
<path id="Ellipse 40" d="M270.338 133.535C270.338 135.565 268.692 137.211 266.662 137.211C264.633 137.211 262.987 135.565 262.987 133.535C262.987 131.506 264.633 129.86 266.662 129.86C268.692 129.86 270.338 131.506 270.338 133.535Z" fill="var(--fill-0, #003CFF)"/>
<path id="Ellipse 19" d="M303.824 171.922C303.824 173.952 302.178 175.597 300.149 175.597C298.119 175.597 296.473 173.952 296.473 171.922C296.473 169.892 298.119 168.246 300.149 168.246C302.178 168.246 303.824 169.892 303.824 171.922Z" fill="var(--fill-0, #003CFF)"/>
<path id="Ellipse 20" d="M160.896 171.922C160.896 173.952 159.25 175.597 157.221 175.597C155.191 175.597 153.545 173.952 153.545 171.922C153.545 169.892 155.191 168.246 157.221 168.246C159.25 168.246 160.896 169.892 160.896 171.922Z" fill="var(--fill-0, #9CB5FF)"/>
<path id="Ellipse 11" d="M87.3902 238.894C87.3902 240.923 85.7447 242.569 83.7149 242.569C81.6851 242.569 80.0396 240.923 80.0396 238.894C80.0396 236.864 81.6851 235.218 83.7149 235.218C85.7447 235.218 87.3902 236.864 87.3902 238.894Z" fill="var(--fill-0, #9CB5FF)"/>
<path id="Ellipse 12" d="M51.4539 238.894C51.4539 240.923 49.8085 242.569 47.7787 242.569C45.7488 242.569 44.1034 240.923 44.1034 238.894C44.1034 236.864 45.7488 235.218 47.7787 235.218C49.8085 235.218 51.4539 236.864 51.4539 238.894Z" fill="var(--fill-0, #9CB5FF)"/>
<path id="Ellipse 108" d="M7.35066 238.894C7.35066 240.923 5.70518 242.569 3.67537 242.569C1.64557 242.569 8.62676e-05 240.923 8.62676e-05 238.894C8.62676e-05 236.864 1.64557 235.218 3.67537 235.218C5.70518 235.218 7.35066 236.864 7.35066 238.894Z" fill="var(--fill-0, #9CB5FF)"/>
<path id="Ellipse 5" d="M303.824 238.894C303.824 240.923 302.178 242.569 300.149 242.569C298.119 242.569 296.473 240.923 296.473 238.894C296.473 236.864 298.119 235.218 300.149 235.218C302.178 235.218 303.824 236.864 303.824 238.894Z" fill="var(--fill-0, #003CFF)"/>
<path id="Ellipse 6" d="M339.76 238.894C339.76 240.923 338.114 242.569 336.085 242.569C334.055 242.569 332.409 240.923 332.409 238.894C332.409 236.864 334.055 235.218 336.085 235.218C338.114 235.218 339.76 236.864 339.76 238.894Z" fill="var(--fill-0, #9CB5FF)"/>
<path id="Ellipse 13" d="M374.879 238.485C374.879 239.387 374.148 240.119 373.246 240.119C372.344 240.119 371.612 239.387 371.612 238.485C371.612 237.583 372.344 236.852 373.246 236.852C374.148 236.852 374.879 237.583 374.879 238.485Z" fill="var(--fill-0, #9CB5FF)"/>
<path id="Ellipse 41" d="M375.696 278.505C375.696 279.858 374.599 280.955 373.246 280.955C371.892 280.955 370.795 279.858 370.795 278.505C370.795 277.152 371.892 276.055 373.246 276.055C374.599 276.055 375.696 277.152 375.696 278.505Z" fill="var(--fill-0, #9CB5FF)"/>
<path id="Ellipse 42" d="M411.632 205.816C411.632 207.169 410.535 208.266 409.182 208.266C407.829 208.266 406.732 207.169 406.732 205.816C406.732 204.463 407.829 203.366 409.182 203.366C410.535 203.366 411.632 204.463 411.632 205.816Z" fill="var(--fill-0, #9CB5FF)"/>
<path id="Ellipse 110" d="M304.64 205.816C304.64 207.169 303.543 208.266 302.19 208.266C300.837 208.266 299.74 207.169 299.74 205.816C299.74 204.463 300.837 203.366 302.19 203.366C303.543 203.366 304.64 204.463 304.64 205.816Z" fill="var(--fill-0, #9CB5FF)"/>
<path id="Ellipse 113" d="M214.8 208.266C214.8 212.326 211.509 215.617 207.449 215.617C203.39 215.617 200.099 212.326 200.099 208.266C200.099 204.207 203.39 200.916 207.449 200.916C211.509 200.916 214.8 204.207 214.8 208.266Z" fill="var(--fill-0, #003CFF)"/>
<path id="Ellipse 116" d="M111.075 205.816C111.075 207.169 109.978 208.266 108.625 208.266C107.272 208.266 106.175 207.169 106.175 205.816C106.175 204.463 107.272 203.366 108.625 203.366C109.978 203.366 111.075 204.463 111.075 205.816Z" fill="var(--fill-0, #9CB5FF)"/>
<path id="Ellipse 44" d="M411.632 278.505C411.632 279.858 410.535 280.955 409.182 280.955C407.829 280.955 406.732 279.858 406.732 278.505C406.732 277.152 407.829 276.055 409.182 276.055C410.535 276.055 411.632 277.152 411.632 278.505Z" fill="var(--fill-0, #9CB5FF)"/>
<path id="Ellipse 47" d="M411.632 316.891C411.632 318.245 410.535 319.342 409.182 319.342C407.829 319.342 406.732 318.245 406.732 316.891C406.732 315.538 407.829 314.441 409.182 314.441C410.535 314.441 411.632 315.538 411.632 316.891Z" fill="var(--fill-0, #9CB5FF)"/>
<path id="Ellipse 50" d="M303.824 316.891C303.824 318.245 302.727 319.342 301.373 319.342C300.02 319.342 298.923 318.245 298.923 316.891C298.923 315.538 300.02 314.441 301.373 314.441C302.727 314.441 303.824 315.538 303.824 316.891Z" fill="var(--fill-0, #9CB5FF)"/>
<path id="Ellipse 57" d="M303.824 353.644C303.824 354.997 302.727 356.094 301.373 356.094C300.02 356.094 298.923 354.997 298.923 353.644C298.923 352.291 300.02 351.194 301.373 351.194C302.727 351.194 303.824 352.291 303.824 353.644Z" fill="var(--fill-0, #9CB5FF)"/>
<path id="Ellipse 65" d="M309.541 390.397C309.541 391.75 308.444 392.847 307.091 392.847C305.737 392.847 304.641 391.75 304.641 390.397C304.641 389.044 305.737 387.947 307.091 387.947C308.444 387.947 309.541 389.044 309.541 390.397Z" fill="var(--fill-0, #9CB5FF)"/>
<path id="Ellipse 53" d="M196.832 316.891C196.832 318.245 195.735 319.342 194.382 319.342C193.029 319.342 191.932 318.245 191.932 316.891C191.932 315.538 193.029 314.441 194.382 314.441C195.735 314.441 196.832 315.538 196.832 316.891Z" fill="var(--fill-0, #9CB5FF)"/>
<path id="Ellipse 58" d="M196.832 353.644C196.832 354.997 195.735 356.094 194.382 356.094C193.029 356.094 191.932 354.997 191.932 353.644C191.932 352.291 193.029 351.194 194.382 351.194C195.735 351.194 196.832 352.291 196.832 353.644Z" fill="var(--fill-0, #9CB5FF)"/>
<path id="Ellipse 66" d="M202.549 390.397C202.549 391.75 201.452 392.847 200.099 392.847C198.746 392.847 197.649 391.75 197.649 390.397C197.649 389.044 198.746 387.947 200.099 387.947C201.452 387.947 202.549 389.044 202.549 390.397Z" fill="var(--fill-0, #9CB5FF)"/>
<path id="Ellipse 48" d="M375.696 316.891C375.696 318.245 374.599 319.342 373.246 319.342C371.892 319.342 370.795 318.245 370.795 316.891C370.795 315.538 371.892 314.441 373.246 314.441C374.599 314.441 375.696 315.538 375.696 316.891Z" fill="var(--fill-0, #9CB5FF)"/>
<path id="Ellipse 59" d="M375.696 353.644C375.696 354.997 374.599 356.094 373.246 356.094C371.892 356.094 370.795 354.997 370.795 353.644C370.795 352.291 371.892 351.194 373.246 351.194C374.599 351.194 375.696 352.291 375.696 353.644Z" fill="var(--fill-0, #9CB5FF)"/>
<path id="Ellipse 51" d="M267.888 316.891C267.888 318.245 266.791 319.342 265.437 319.342C264.084 319.342 262.987 318.245 262.987 316.891C262.987 315.538 264.084 314.441 265.437 314.441C266.791 314.441 267.888 315.538 267.888 316.891Z" fill="var(--fill-0, #9CB5FF)"/>
<path id="Ellipse 60" d="M267.888 353.644C267.888 354.997 266.791 356.094 265.437 356.094C264.084 356.094 262.987 354.997 262.987 353.644C262.987 352.291 264.084 351.194 265.437 351.194C266.791 351.194 267.888 352.291 267.888 353.644Z" fill="var(--fill-0, #9CB5FF)"/>
<path id="Ellipse 67" d="M273.605 390.397C273.605 391.75 272.508 392.847 271.154 392.847C269.801 392.847 268.704 391.75 268.704 390.397C268.704 389.044 269.801 387.947 271.154 387.947C272.508 387.947 273.605 389.044 273.605 390.397Z" fill="var(--fill-0, #9CB5FF)"/>
<path id="Ellipse 54" d="M162.529 316.891C162.529 319.147 160.701 320.975 158.446 320.975C156.19 320.975 154.362 319.147 154.362 316.891C154.362 314.636 156.19 312.808 158.446 312.808C160.701 312.808 162.529 314.636 162.529 316.891Z" fill="var(--fill-0, #9CB5FF)"/>
<path id="Ellipse 61" d="M160.896 353.644C160.896 354.997 159.799 356.094 158.446 356.094C157.093 356.094 155.996 354.997 155.996 353.644C155.996 352.291 157.093 351.194 158.446 351.194C159.799 351.194 160.896 352.291 160.896 353.644Z" fill="var(--fill-0, #9CB5FF)"/>
<path id="Ellipse 68" d="M166.613 390.397C166.613 391.75 165.516 392.847 164.163 392.847C162.81 392.847 161.713 391.75 161.713 390.397C161.713 389.044 162.81 387.947 164.163 387.947C165.516 387.947 166.613 389.044 166.613 390.397Z" fill="var(--fill-0, #9CB5FF)"/>
<path id="Ellipse 49" d="M338.943 316.891C338.943 318.245 337.846 319.342 336.493 319.342C335.14 319.342 334.043 318.245 334.043 316.891C334.043 315.538 335.14 314.441 336.493 314.441C337.846 314.441 338.943 315.538 338.943 316.891Z" fill="var(--fill-0, #9CB5FF)"/>
<path id="Ellipse 62" d="M338.943 353.644C338.943 354.997 337.846 356.094 336.493 356.094C335.14 356.094 334.043 354.997 334.043 353.644C334.043 352.291 335.14 351.194 336.493 351.194C337.846 351.194 338.943 352.291 338.943 353.644Z" fill="var(--fill-0, #9CB5FF)"/>
<path id="Ellipse 52" d="M231.135 316.891C231.135 318.245 230.038 319.342 228.684 319.342C227.331 319.342 226.234 318.245 226.234 316.891C226.234 315.538 227.331 314.441 228.684 314.441C230.038 314.441 231.135 315.538 231.135 316.891Z" fill="var(--fill-0, #9CB5FF)"/>
<path id="Ellipse 63" d="M231.135 353.644C231.135 354.997 230.038 356.094 228.684 356.094C227.331 356.094 226.234 354.997 226.234 353.644C226.234 352.291 227.331 351.194 228.684 351.194C230.038 351.194 231.135 352.291 231.135 353.644Z" fill="var(--fill-0, #9CB5FF)"/>
<path id="Ellipse 70" d="M236.852 390.397C236.852 391.75 235.755 392.847 234.402 392.847C233.048 392.847 231.951 391.75 231.951 390.397C231.951 389.044 233.048 387.947 234.402 387.947C235.755 387.947 236.852 389.044 236.852 390.397Z" fill="var(--fill-0, #9CB5FF)"/>
<path id="Ellipse 74" d="M236.852 419.799C236.852 421.153 235.755 422.25 234.402 422.25C233.048 422.25 231.951 421.153 231.951 419.799C231.951 418.446 233.048 417.349 234.402 417.349C235.755 417.349 236.852 418.446 236.852 419.799Z" fill="var(--fill-0, #9CB5FF)"/>
<path id="Ellipse 55" d="M124.143 316.891C124.143 318.245 123.046 319.342 121.693 319.342C120.34 319.342 119.243 318.245 119.243 316.891C119.243 315.538 120.34 314.441 121.693 314.441C123.046 314.441 124.143 315.538 124.143 316.891Z" fill="var(--fill-0, #9CB5FF)"/>
<path id="Ellipse 64" d="M124.143 353.644C124.143 354.997 123.046 356.094 121.693 356.094C120.34 356.094 119.243 354.997 119.243 353.644C119.243 352.291 120.34 351.194 121.693 351.194C123.046 351.194 124.143 352.291 124.143 353.644Z" fill="var(--fill-0, #9CB5FF)"/>
<path id="Ellipse 56" d="M86.5735 316.891C86.5735 318.245 85.4766 319.342 84.1234 319.342C82.7702 319.342 81.6732 318.245 81.6732 316.891C81.6732 315.538 82.7702 314.441 84.1234 314.441C85.4766 314.441 86.5735 315.538 86.5735 316.891Z" fill="var(--fill-0, #9CB5FF)"/>
<path id="Ellipse 109" d="M48.1873 278.505C48.1873 279.858 47.0904 280.955 45.7372 280.955C44.3839 280.955 43.287 279.858 43.287 278.505C43.287 277.152 44.3839 276.055 45.7372 276.055C47.0904 276.055 48.1873 277.152 48.1873 278.505Z" fill="var(--fill-0, #9CB5FF)"/>
<path id="Ellipse 75" d="M71.8724 105.358C71.8724 104.005 72.9694 102.908 74.3226 102.908C75.6758 102.908 76.7727 104.005 76.7727 105.358C76.7727 106.711 75.6758 107.808 74.3226 107.808C72.9694 107.808 71.8724 106.711 71.8724 105.358Z" fill="var(--fill-0, #9CB5FF)"/>
<path id="Ellipse 76" d="M179.681 105.358C179.681 104.005 180.778 102.908 182.131 102.908C183.484 102.908 184.581 104.005 184.581 105.358C184.581 106.711 183.484 107.808 182.131 107.808C180.778 107.808 179.681 106.711 179.681 105.358Z" fill="var(--fill-0, #9CB5FF)"/>
<path id="Ellipse 99" d="M71.8724 133.944C71.8724 132.591 72.9694 131.494 74.3226 131.494C75.6758 131.494 76.7727 132.591 76.7727 133.944C76.7727 135.297 75.6758 136.394 74.3226 136.394C72.9694 136.394 71.8724 135.297 71.8724 133.944Z" fill="var(--fill-0, #9CB5FF)"/>
<path id="Ellipse 104" d="M35.1195 133.944C35.1195 132.591 36.2165 131.494 37.5697 131.494C38.9229 131.494 40.0198 132.591 40.0198 133.944C40.0198 135.297 38.9229 136.394 37.5697 136.394C36.2165 136.394 35.1195 135.297 35.1195 133.944Z" fill="var(--fill-0, #9CB5FF)"/>
<path id="Ellipse 105" d="M41.6534 172.33C41.6534 170.977 42.7504 169.88 44.1036 169.88C45.4568 169.88 46.5538 170.977 46.5538 172.33C46.5538 173.683 45.4568 174.78 44.1036 174.78C42.7504 174.78 41.6534 173.683 41.6534 172.33Z" fill="var(--fill-0, #9CB5FF)"/>
<path id="Ellipse 106" d="M46.5539 201.732C46.5539 200.379 47.6509 199.282 49.0041 199.282C50.3573 199.282 51.4542 200.379 51.4542 201.732C51.4542 203.086 50.3573 204.183 49.0041 204.183C47.6508 204.183 46.5539 203.086 46.5539 201.732Z" fill="var(--fill-0, #9CB5FF)"/>
<path id="Ellipse 100" d="M179.681 133.944C179.681 132.591 180.778 131.494 182.131 131.494C183.484 131.494 184.581 132.591 184.581 133.944C184.581 135.297 183.484 136.394 182.131 136.394C180.778 136.394 179.681 135.297 179.681 133.944Z" fill="var(--fill-0, #9CB5FF)"/>
<path id="Ellipse 77" d="M179.681 68.6054C179.681 67.2522 180.778 66.1552 182.131 66.1552C183.484 66.1552 184.581 67.2522 184.581 68.6054C184.581 69.9586 183.484 71.0556 182.131 71.0556C180.778 71.0556 179.681 69.9586 179.681 68.6054Z" fill="var(--fill-0, #9CB5FF)"/>
<path id="Ellipse 78" d="M173.964 31.8525C173.964 30.4993 175.061 29.4023 176.414 29.4023C177.767 29.4023 178.864 30.4993 178.864 31.8525C178.864 33.2057 177.767 34.3027 176.414 34.3027C175.061 34.3027 173.964 33.2057 173.964 31.8525Z" fill="var(--fill-0, #9CB5FF)"/>
<path id="Ellipse 79" d="M286.672 105.358C286.672 104.005 287.769 102.908 289.123 102.908C290.476 102.908 291.573 104.005 291.573 105.358C291.573 106.711 290.476 107.808 289.123 107.808C287.769 107.808 286.672 106.711 286.672 105.358Z" fill="var(--fill-0, #9CB5FF)"/>
<path id="Ellipse 82" d="M107.808 105.358C107.808 104.005 108.905 102.908 110.259 102.908C111.612 102.908 112.709 104.005 112.709 105.358C112.709 106.711 111.612 107.808 110.259 107.808C108.905 107.808 107.808 106.711 107.808 105.358Z" fill="var(--fill-0, #9CB5FF)"/>
<path id="Ellipse 80" d="M286.672 68.6054C286.672 67.2522 287.769 66.1552 289.123 66.1552C290.476 66.1552 291.573 67.2522 291.573 68.6054C291.573 69.9586 290.476 71.0556 289.123 71.0556C287.769 71.0556 286.672 69.9586 286.672 68.6054Z" fill="var(--fill-0, #9CB5FF)"/>
<path id="Ellipse 84" d="M209.9 102.5C209.9 99.5677 212.277 97.1909 215.209 97.1909C218.141 97.1909 220.517 99.5677 220.517 102.5C220.517 105.432 218.141 107.808 215.209 107.808C212.277 107.808 209.9 105.432 209.9 102.5Z" fill="var(--fill-0, #003CFF)"/>
<path id="Ellipse 81" d="M280.955 31.8525C280.955 30.4993 282.052 29.4023 283.405 29.4023C284.759 29.4023 285.855 30.4993 285.855 31.8525C285.855 33.2057 284.759 34.3027 283.405 34.3027C282.052 34.3027 280.955 33.2057 280.955 31.8525Z" fill="var(--fill-0, #9CB5FF)"/>
<path id="Ellipse 101" d="M107.808 133.944C107.808 132.591 108.905 131.494 110.259 131.494C111.612 131.494 112.709 132.591 112.709 133.944C112.709 135.297 111.612 136.394 110.259 136.394C108.905 136.394 107.808 135.297 107.808 133.944Z" fill="var(--fill-0, #9CB5FF)"/>
<path id="Ellipse 83" d="M107.808 68.6054C107.808 67.2522 108.905 66.1552 110.259 66.1552C111.612 66.1552 112.709 67.2522 112.709 68.6054C112.709 69.9586 111.612 71.0556 110.259 71.0556C108.905 71.0556 107.808 69.9586 107.808 68.6054Z" fill="var(--fill-0, #9CB5FF)"/>
<path id="Ellipse 102" d="M215.617 133.944C215.617 132.591 216.714 131.494 218.067 131.494C219.42 131.494 220.517 132.591 220.517 133.944C220.517 135.297 219.42 136.394 218.067 136.394C216.714 136.394 215.617 135.297 215.617 133.944Z" fill="var(--fill-0, #9CB5FF)"/>
<path id="Ellipse 85" d="M215.617 68.6054C215.617 67.2522 216.714 66.1552 218.067 66.1552C219.42 66.1552 220.517 67.2522 220.517 68.6054C220.517 69.9586 219.42 71.0556 218.067 71.0556C216.714 71.0556 215.617 69.9586 215.617 68.6054Z" fill="var(--fill-0, #9CB5FF)"/>
<path id="Ellipse 90" d="M144.561 105.358C144.561 104.005 145.658 102.908 147.011 102.908C148.365 102.908 149.462 104.005 149.462 105.358C149.462 106.711 148.365 107.808 147.011 107.808C145.658 107.808 144.561 106.711 144.561 105.358Z" fill="var(--fill-0, #9CB5FF)"/>
<path id="Ellipse 86" d="M209.9 31.8525C209.9 30.4993 210.997 29.4023 212.35 29.4023C213.703 29.4023 214.8 30.4993 214.8 31.8525C214.8 33.2057 213.703 34.3027 212.35 34.3027C210.997 34.3027 209.9 33.2057 209.9 31.8525Z" fill="var(--fill-0, #9CB5FF)"/>
<path id="Ellipse 87" d="M322.608 105.358C322.608 104.005 323.705 102.908 325.059 102.908C326.412 102.908 327.509 104.005 327.509 105.358C327.509 106.711 326.412 107.808 325.059 107.808C323.705 107.808 322.608 106.711 322.608 105.358Z" fill="var(--fill-0, #9CB5FF)"/>
<path id="Ellipse 88" d="M322.608 68.6054C322.608 67.2522 323.705 66.1552 325.059 66.1552C326.412 66.1552 327.509 67.2522 327.509 68.6054C327.509 69.9586 326.412 71.0556 325.059 71.0556C323.705 71.0556 322.608 69.9586 322.608 68.6054Z" fill="var(--fill-0, #9CB5FF)"/>
<path id="Ellipse 89" d="M316.891 31.8525C316.891 30.4993 317.988 29.4023 319.342 29.4023C320.695 29.4023 321.792 30.4993 321.792 31.8525C321.792 33.2057 320.695 34.3027 319.342 34.3027C317.988 34.3027 316.891 33.2057 316.891 31.8525Z" fill="var(--fill-0, #9CB5FF)"/>
<path id="Ellipse 103" d="M144.561 133.944C144.561 132.591 145.658 131.494 147.011 131.494C148.365 131.494 149.462 132.591 149.462 133.944C149.462 135.297 148.365 136.394 147.011 136.394C145.658 136.394 144.561 135.297 144.561 133.944Z" fill="var(--fill-0, #9CB5FF)"/>
<path id="Ellipse 91" d="M144.561 68.6054C144.561 67.2522 145.658 66.1552 147.011 66.1552C148.365 66.1552 149.462 67.2522 149.462 68.6054C149.462 69.9586 148.365 71.0556 147.011 71.0556C145.658 71.0556 144.561 69.9586 144.561 68.6054Z" fill="var(--fill-0, #9CB5FF)"/>
<path id="Ellipse 92" d="M252.37 105.358C252.37 104.005 253.467 102.908 254.82 102.908C256.173 102.908 257.27 104.005 257.27 105.358C257.27 106.711 256.173 107.808 254.82 107.808C253.467 107.808 252.37 106.711 252.37 105.358Z" fill="var(--fill-0, #9CB5FF)"/>
<path id="Ellipse 93" d="M252.37 68.6054C252.37 67.2522 253.467 66.1552 254.82 66.1552C256.173 66.1552 257.27 67.2522 257.27 68.6054C257.27 69.9586 256.173 71.0556 254.82 71.0556C253.467 71.0556 252.37 69.9586 252.37 68.6054Z" fill="var(--fill-0, #9CB5FF)"/>
<path id="Ellipse 94" d="M246.653 31.8525C246.653 30.4993 247.75 29.4023 249.103 29.4023C250.456 29.4023 251.553 30.4993 251.553 31.8525C251.553 33.2057 250.456 34.3027 249.103 34.3027C247.75 34.3027 246.653 33.2057 246.653 31.8525Z" fill="var(--fill-0, #9CB5FF)"/>
<path id="Ellipse 95" d="M246.653 2.45023C246.653 1.09703 247.75 3.96506e-05 249.103 3.97689e-05C250.456 3.98872e-05 251.553 1.09703 251.553 2.45023C251.553 3.80343 250.456 4.90042 249.103 4.90042C247.75 4.90042 246.653 3.80343 246.653 2.45023Z" fill="var(--fill-0, #9CB5FF)"/>
<path id="Ellipse 96" d="M356.911 102.908C356.911 99.2995 359.837 96.3742 363.445 96.3742C367.054 96.3742 369.979 99.2995 369.979 102.908C369.979 106.517 367.054 109.442 363.445 109.442C359.837 109.442 356.911 106.517 356.911 102.908Z" fill="var(--fill-0, #003CFF)"/>
<path id="Ellipse 97" d="M359.361 68.6054C359.361 67.2522 360.458 66.1552 361.812 66.1552C363.165 66.1552 364.262 67.2522 364.262 68.6054C364.262 69.9586 363.165 71.0556 361.812 71.0556C360.458 71.0556 359.361 69.9586 359.361 68.6054Z" fill="var(--fill-0, #9CB5FF)"/>
<path id="Ellipse 98" d="M396.931 105.358C396.931 104.005 398.028 102.908 399.381 102.908C400.735 102.908 401.832 104.005 401.832 105.358C401.832 106.711 400.735 107.808 399.381 107.808C398.028 107.808 396.931 106.711 396.931 105.358Z" fill="var(--fill-0, #9CB5FF)"/>
<path id="Ellipse 45" d="M447.568 278.505C447.568 279.858 446.471 280.955 445.118 280.955C443.765 280.955 442.668 279.858 442.668 278.505C442.668 277.152 443.765 276.055 445.118 276.055C446.471 276.055 447.568 277.152 447.568 278.505Z" fill="var(--fill-0, #9CB5FF)"/>
<path id="Ellipse 46" d="M479.421 205.816C479.421 207.169 478.324 208.266 476.97 208.266C475.617 208.266 474.52 207.169 474.52 205.816C474.52 204.463 475.617 203.366 476.97 203.366C478.324 203.366 479.421 204.463 479.421 205.816Z" fill="var(--fill-0, #9CB5FF)"/>
<path id="Ellipse 111" d="M372.429 205.816C372.429 207.169 371.332 208.266 369.979 208.266C368.626 208.266 367.529 207.169 367.529 205.816C367.529 204.463 368.626 203.366 369.979 203.366C371.332 203.366 372.429 204.463 372.429 205.816Z" fill="var(--fill-0, #9CB5FF)"/>
<path id="Ellipse 114" d="M282.589 205.816C282.589 207.169 281.492 208.266 280.139 208.266C278.785 208.266 277.688 207.169 277.688 205.816C277.688 204.463 278.785 203.366 280.139 203.366C281.492 203.366 282.589 204.463 282.589 205.816Z" fill="var(--fill-0, #9CB5FF)"/>
<path id="Ellipse 117" d="M178.864 205.816C178.864 207.169 177.767 208.266 176.414 208.266C175.061 208.266 173.964 207.169 173.964 205.816C173.964 204.463 175.061 203.366 176.414 203.366C177.767 203.366 178.864 204.463 178.864 205.816Z" fill="var(--fill-0, #9CB5FF)"/>
<path id="Ellipse 43" d="M447.568 205.816C447.568 207.169 446.471 208.266 445.118 208.266C443.765 208.266 442.668 207.169 442.668 205.816C442.668 204.463 443.765 203.366 445.118 203.366C446.471 203.366 447.568 204.463 447.568 205.816Z" fill="var(--fill-0, #9CB5FF)"/>
<path id="Ellipse 112" d="M340.576 205.816C340.576 207.169 339.479 208.266 338.126 208.266C336.773 208.266 335.676 207.169 335.676 205.816C335.676 204.463 336.773 203.366 338.126 203.366C339.479 203.366 340.576 204.463 340.576 205.816Z" fill="var(--fill-0, #9CB5FF)"/>
<path id="Ellipse 115" d="M250.736 205.816C250.736 207.169 249.639 208.266 248.286 208.266C246.933 208.266 245.836 207.169 245.836 205.816C245.836 204.463 246.933 203.366 248.286 203.366C249.639 203.366 250.736 204.463 250.736 205.816Z" fill="var(--fill-0, #9CB5FF)"/>
<path id="Ellipse 118" d="M147.012 205.816C147.012 207.169 145.915 208.266 144.561 208.266C143.208 208.266 142.111 207.169 142.111 205.816C142.111 204.463 143.208 203.366 144.561 203.366C145.915 203.366 147.012 204.463 147.012 205.816Z" fill="var(--fill-0, #9CB5FF)"/>
<path id="Ellipse 21" d="M231.135 172.33C231.135 173.232 230.403 173.964 229.501 173.964C228.599 173.964 227.868 173.232 227.868 172.33C227.868 171.428 228.599 170.697 229.501 170.697C230.403 170.697 231.135 171.428 231.135 172.33Z" fill="var(--fill-0, #9CB5FF)"/>
<path id="Ellipse 22" d="M234.402 238.485C234.402 241.192 232.208 243.386 229.501 243.386C226.795 243.386 224.601 241.192 224.601 238.485C224.601 235.779 226.795 233.585 229.501 233.585C232.208 233.585 234.402 235.779 234.402 238.485Z" fill="var(--fill-0, #9CB5FF)"/>
<path id="Ellipse 23" d="M158.446 239.302C158.446 240.204 157.715 240.935 156.812 240.935C155.91 240.935 155.179 240.204 155.179 239.302C155.179 238.4 155.91 237.668 156.812 237.668C157.715 237.668 158.446 238.4 158.446 239.302Z" fill="var(--fill-0, #9CB5FF)"/>
<path id="Ellipse 7" d="M412.449 238.894C412.449 240.923 410.803 242.569 408.774 242.569C406.744 242.569 405.098 240.923 405.098 238.894C405.098 236.864 406.744 235.218 408.774 235.218C410.803 235.218 412.449 236.864 412.449 238.894Z" fill="var(--fill-0, #9CB5FF)"/>
<path id="Ellipse 8" d="M448.385 238.894C448.385 240.923 446.739 242.569 444.71 242.569C442.68 242.569 441.034 240.923 441.034 238.894C441.034 236.864 442.68 235.218 444.71 235.218C446.739 235.218 448.385 236.864 448.385 238.894Z" fill="var(--fill-0, #9CB5FF)"/>
<path id="Ellipse 24" d="M270.338 278.097C270.338 280.126 268.692 281.772 266.662 281.772C264.633 281.772 262.987 280.126 262.987 278.097C262.987 276.067 264.633 274.421 266.662 274.421C268.692 274.421 270.338 276.067 270.338 278.097Z" fill="var(--fill-0, #9CB5FF)"/>
<path id="Ellipse 27" d="M234.402 278.505C234.402 281.663 231.842 284.222 228.685 284.222C225.527 284.222 222.967 281.663 222.967 278.505C222.967 275.348 225.527 272.788 228.685 272.788C231.842 272.788 234.402 275.348 234.402 278.505Z" fill="var(--fill-0, #003CFF)"/>
<path id="Ellipse 28" d="M196.832 278.097C196.832 280.126 195.186 281.772 193.157 281.772C191.127 281.772 189.481 280.126 189.481 278.097C189.481 276.067 191.127 274.421 193.157 274.421C195.186 274.421 196.832 276.067 196.832 278.097Z" fill="var(--fill-0, #9CB5FF)"/>
<path id="Ellipse 29" d="M161.713 278.097C161.713 280.126 160.067 281.772 158.037 281.772C156.008 281.772 154.362 280.126 154.362 278.097C154.362 276.067 156.008 274.421 158.037 274.421C160.067 274.421 161.713 276.067 161.713 278.097Z" fill="var(--fill-0, #9CB5FF)"/>
<path id="Ellipse 30" d="M123.326 278.097C123.326 280.126 121.681 281.772 119.651 281.772C117.621 281.772 115.976 280.126 115.976 278.097C115.976 276.067 117.621 274.421 119.651 274.421C121.681 274.421 123.326 276.067 123.326 278.097Z" fill="var(--fill-0, #9CB5FF)"/>
<path id="Ellipse 31" d="M87.3902 278.097C87.3902 280.126 85.7447 281.772 83.7149 281.772C81.6851 281.772 80.0396 280.126 80.0396 278.097C80.0396 276.067 81.6851 274.421 83.7149 274.421C85.7447 274.421 87.3902 276.067 87.3902 278.097Z" fill="var(--fill-0, #9CB5FF)"/>
<path id="Ellipse 25" d="M303.824 278.097C303.824 280.126 302.178 281.772 300.149 281.772C298.119 281.772 296.473 280.126 296.473 278.097C296.473 276.067 298.119 274.421 300.149 274.421C302.178 274.421 303.824 276.067 303.824 278.097Z" fill="var(--fill-0, #9CB5FF)"/>
<path id="Ellipse 26" d="M339.76 278.097C339.76 280.126 338.114 281.772 336.085 281.772C334.055 281.772 332.409 280.126 332.409 278.097C332.409 276.067 334.055 274.421 336.085 274.421C338.114 274.421 339.76 276.067 339.76 278.097Z" fill="var(--fill-0, #9CB5FF)"/>
</g>
</svg>
