<svg width="670" height="831" viewBox="0 0 670 831" fill="none" xmlns="http://www.w3.org/2000/svg">
<g opacity="0.9">
<mask id="mask0_144_471" style="mask-type:alpha" maskUnits="userSpaceOnUse" x="0" y="0" width="670" height="831">
<rect width="670" height="831" fill="white"/>
</mask>
<g mask="url(#mask0_144_471)">
<rect x="-66" y="-87.95" width="716.279" height="996.214" transform="rotate(-0.56395 -66 -87.95)" fill="white"/>
<g filter="url(#filter0_f_144_471)">
<path d="M-78.8666 15.0438L141.739 201.821L286.144 483.074L14.9142 391.877L-185.543 141.041L-78.8666 15.0438Z" fill="#FCD4A5"/>
</g>
<g filter="url(#filter1_f_144_471)">
<path d="M283.707 134.649L504.447 321.54L499.686 469.185L377.897 511.295L166.975 384.351L177.222 260.42L283.707 134.649Z" fill="#F1D6CB"/>
</g>
<g filter="url(#filter2_f_144_471)">
<path d="M140.31 357.844L361.011 544.702L488.311 679.811L184.884 597.094L-1.58171 570.101L-197.205 442.668L3.58273 453.267L140.31 357.844Z" fill="#F5D7E6"/>
</g>
<g filter="url(#filter3_f_144_471)">
<path d="M299.449 778.403C646.289 298.239 62.0592 308.818 -62.3399 -81.5089L-12.2361 -265.302C-12.2361 -265.302 534.683 -20.9278 622.593 268.976C710.503 558.88 596.63 920.718 596.63 920.718L299.449 778.403Z" fill="url(#paint0_linear_144_471)"/>
</g>
<g style="mix-blend-mode:color-burn" filter="url(#filter4_f_144_471)">
<path d="M255.114 740.653C601.954 260.488 17.7242 271.068 -106.675 -119.259L-56.5711 -303.052C-56.5711 -303.052 490.348 -58.6783 578.258 231.226C666.168 521.13 552.295 882.968 552.295 882.968L255.114 740.653Z" fill="#A3A3A3"/>
</g>
</g>
</g>
<defs>
<filter id="filter0_f_144_471" x="-349.543" y="-148.956" width="799.687" height="796.03" filterUnits="userSpaceOnUse" color-interpolation-filters="sRGB">
<feFlood flood-opacity="0" result="BackgroundImageFix"/>
<feBlend mode="normal" in="SourceGraphic" in2="BackgroundImageFix" result="shape"/>
<feGaussianBlur stdDeviation="82" result="effect1_foregroundBlur_144_471"/>
</filter>
<filter id="filter1_f_144_471" x="2.97455" y="-29.3508" width="665.472" height="704.646" filterUnits="userSpaceOnUse" color-interpolation-filters="sRGB">
<feFlood flood-opacity="0" result="BackgroundImageFix"/>
<feBlend mode="normal" in="SourceGraphic" in2="BackgroundImageFix" result="shape"/>
<feGaussianBlur stdDeviation="82" result="effect1_foregroundBlur_144_471"/>
</filter>
<filter id="filter2_f_144_471" x="-361.205" y="193.844" width="1013.52" height="649.967" filterUnits="userSpaceOnUse" color-interpolation-filters="sRGB">
<feFlood flood-opacity="0" result="BackgroundImageFix"/>
<feBlend mode="normal" in="SourceGraphic" in2="BackgroundImageFix" result="shape"/>
<feGaussianBlur stdDeviation="82" result="effect1_foregroundBlur_144_471"/>
</filter>
<filter id="filter3_f_144_471" x="-82.3398" y="-285.302" width="758.248" height="1226.02" filterUnits="userSpaceOnUse" color-interpolation-filters="sRGB">
<feFlood flood-opacity="0" result="BackgroundImageFix"/>
<feBlend mode="normal" in="SourceGraphic" in2="BackgroundImageFix" result="shape"/>
<feGaussianBlur stdDeviation="10" result="effect1_foregroundBlur_144_471"/>
</filter>
<filter id="filter4_f_144_471" x="-126.675" y="-323.052" width="758.248" height="1226.02" filterUnits="userSpaceOnUse" color-interpolation-filters="sRGB">
<feFlood flood-opacity="0" result="BackgroundImageFix"/>
<feBlend mode="normal" in="SourceGraphic" in2="BackgroundImageFix" result="shape"/>
<feGaussianBlur stdDeviation="10" result="effect1_foregroundBlur_144_471"/>
</filter>
<linearGradient id="paint0_linear_144_471" x1="491.499" y1="-25.4974" x2="375.552" y2="797.095" gradientUnits="userSpaceOnUse">
<stop offset="0.677083" stop-color="white"/>
<stop offset="1" stop-color="white" stop-opacity="0"/>
</linearGradient>
</defs>
</svg>
