<svg preserveAspectRatio="none" width="100%" height="100%" overflow="visible" style="display: block;" viewBox="0 0 34.0004 34.0004" fill="none" xmlns="http://www.w3.org/2000/svg">
<g id="Arrow">
<circle id="Ellipse 1" cx="17.0002" cy="17.0002" r="16.0002" transform="rotate(-90 17.0002 17.0002)" fill="var(--fill-0, #244DD2)" stroke="var(--stroke-0, #244DD2)" stroke-width="2"/>
<path id="Vector" d="M19.4787 16.8556C19.1873 16.6151 18.9063 16.3872 18.6305 16.1548C16.8742 14.6755 15.117 13.1961 13.359 11.7163C13.0815 11.4847 13.0693 11.1541 13.3703 10.943C13.4991 10.8528 13.6131 10.7473 13.7349 10.6498C13.988 10.4489 14.2795 10.4511 14.5257 10.6579C15.0402 11.0908 15.5547 11.5245 16.0691 11.959L20.0521 15.3191C20.5184 15.712 20.9786 16.1108 21.4537 16.4971C21.5115 16.5438 21.5576 16.5999 21.589 16.662C21.6204 16.7241 21.6366 16.791 21.6366 16.8585C21.6366 16.926 21.6204 16.9928 21.589 17.0549C21.5576 17.117 21.5115 17.1731 21.4537 17.2199C19.296 19.0334 17.1416 20.8493 14.9903 22.6677C14.8424 22.793 14.6867 22.9132 14.5466 23.0445C14.4949 23.0969 14.4302 23.1391 14.3569 23.1681C14.2837 23.197 14.2038 23.212 14.1229 23.212C14.042 23.212 13.9621 23.197 13.8889 23.1681C13.8156 23.1391 13.7509 23.0969 13.6992 23.0445C13.5826 22.933 13.4504 22.8333 13.326 22.7278C13.0728 22.5145 13.0719 22.2521 13.326 22.038C15.1739 20.4796 17.0221 18.9215 18.8706 17.3635C19.0655 17.1927 19.2638 17.0337 19.4787 16.8556Z" fill="var(--fill-0, white)"/>
</g>
</svg>
