<svg width="69" height="69" viewBox="0 0 69 69" fill="none" xmlns="http://www.w3.org/2000/svg">
<rect width="69" height="69" fill="#AEAEAE"/>
<g id="HMG &#38; 10YC">
<path d="M-7834.5 -2597V-2596H894.5V-2597V-2598H-7834.5V-2597ZM896.5 -2595H895.5V3145H896.5H897.5V-2595H896.5ZM894.5 3147V3146H-7834.5V3147V3148H894.5V3147ZM-7836.5 3145H-7835.5V-2595H-7836.5H-7837.5V3145H-7836.5ZM-7834.5 3147V3146C-7835.05 3146 -7835.5 3145.55 -7835.5 3145H-7836.5H-7837.5C-7837.5 3146.66 -7836.16 3148 -7834.5 3148V3147ZM896.5 3145H895.5C895.5 3145.55 895.052 3146 894.5 3146V3147V3148C896.157 3148 897.5 3146.66 897.5 3145H896.5ZM894.5 -2597V-2596C895.053 -2596 895.5 -2595.55 895.5 -2595H896.5H897.5C897.5 -2596.66 896.157 -2598 894.5 -2598V-2597ZM-7834.5 -2597V-2598C-7836.16 -2598 -7837.5 -2596.66 -7837.5 -2595H-7836.5H-7835.5C-7835.5 -2595.55 -7835.05 -2596 -7834.5 -2596V-2597Z" fill="black" fill-opacity="0.5"/>
<g id="TYC_Desktop">
<rect width="1440" height="3702" transform="translate(-1027.5 -915)" fill="white"/>
<g id="Frame 160">
<g id="Frame 28">
<g id="Frame 4">
<rect width="69" height="68.9985" rx="20" fill="#E2E9FF"/>
<path id="Vector" fill-rule="evenodd" clip-rule="evenodd" d="M40.7595 22.1058C41.7114 21.7103 42.7564 21.4924 43.8521 21.4924H44.2752C45.1848 21.4924 45.9231 22.2307 45.9231 23.1403C45.9231 27.4472 42.5533 30.9671 38.308 31.2102V33.7613H40.8465C45.6631 33.7613 49.5852 37.5943 49.7265 42.3793C50.4965 43.1006 51 44.1308 51 45.3472C51 46.6693 50.3612 47.9089 49.2865 48.6767L43.2279 52.9984C41.8656 53.9694 40.2325 54.4919 38.5593 54.4919H33.2243C31.5764 54.4919 29.9666 53.9842 28.6149 53.0386L25.884 51.1284C25.6767 50.9825 25.3615 51.0586 25.1225 51.0502C24.5936 51.8498 23.684 52.3765 22.6538 52.3765H20.9615C19.3264 52.3765 18 51.0502 18 49.415V40.5306C18 38.8954 19.3263 37.569 20.9615 37.569H22.6538C23.8828 37.569 24.9384 38.3179 25.3869 39.3862C26.6857 36.0925 29.8968 33.7612 33.6539 33.7612H35.7693V31.2101C31.5238 30.9669 28.1542 27.4469 28.1542 23.1402C28.1542 22.2306 28.8925 21.4923 29.8021 21.4923H30.2252C31.3209 21.4923 32.3659 21.7102 33.3178 22.1058C32.7975 19.5864 33.6394 16.8893 35.8478 14.9413C36.5057 14.3617 37.5718 14.3617 38.2297 14.9413C40.4381 16.8896 41.2798 19.5867 40.7595 22.1058ZM37.0385 17.3653C38.6102 19.3263 38.6102 21.9662 37.0385 23.9271C35.4669 21.9661 35.4669 19.3262 37.0385 17.3653ZM43.3084 24.056C42.9023 26.5076 40.8863 28.4157 38.3838 28.659C38.79 26.2073 40.8059 24.2992 43.3084 24.056ZM25.6154 48.5138V42.1654C26.5018 41.7296 28.0418 40.5302 29.0318 40.5302H35.8453C36.2494 40.5302 36.5773 40.8581 36.5773 41.26C36.5773 42.7683 35.3546 43.991 33.8463 43.991H32.135C31.3374 43.991 30.6923 44.6362 30.6923 45.4337C30.6923 46.2312 31.3374 46.8764 32.135 46.8764H40.3468C41.5229 46.8764 42.6695 46.5041 43.6235 45.8145L46.0032 44.0926C47.0271 43.3501 48.4613 44.082 48.4613 45.347C48.4613 45.8483 48.2202 46.3201 47.8119 46.6098L41.7532 50.9315C40.8203 51.5958 39.7056 51.9533 38.5591 51.9533H33.2241C32.0966 51.9533 30.9945 51.6063 30.0701 50.9591L27.3391 49.0489C26.842 48.6999 26.2497 48.5137 25.6426 48.5137L25.6154 48.5138ZM23.077 41.9033V40.5304C23.077 40.2977 22.8866 40.1073 22.6539 40.1073H20.9616C20.729 40.1073 20.5386 40.2977 20.5386 40.5304V49.4148C20.5386 49.6475 20.729 49.8378 20.9616 49.8378H22.6539C22.8866 49.8378 23.077 49.6475 23.077 49.4148V41.9033ZM33.6537 36.2995C31.9868 36.2995 30.4722 36.9426 29.3383 37.9918H35.8454C37.6519 37.9918 39.1158 39.4556 39.1158 41.26C39.1158 42.4087 38.7477 43.4727 38.1237 44.3379H40.3469C40.99 44.3379 41.614 44.1348 42.1344 43.7583L44.5142 42.0364C45.3032 41.4652 46.1853 41.2241 47.04 41.2537C46.4053 38.4191 43.8732 36.2995 40.8459 36.2995L33.6537 36.2995ZM30.7683 24.056C31.1745 26.5076 33.1905 28.4157 35.6929 28.659C35.2868 26.2073 33.2708 24.2992 30.7683 24.056Z" fill="#002CBB"/>
</g>
</g>
</g>
</g>
</g>
</svg>
