<svg preserveAspectRatio="none" width="100%" height="100%" overflow="visible" style="display: block;" viewBox="0 0 69 68.9985" fill="none" xmlns="http://www.w3.org/2000/svg">
<g id="Frame 2">
<rect width="69" height="68.9985" rx="20" fill="var(--fill-0, #E2E9FF)"/>
<path id="Vector" d="M53.7679 40.6725L50.3407 36.1011C50.124 35.8151 49.7856 35.6458 49.4267 35.6458H42.4997V34.5018C42.4997 34.2936 42.4438 34.0905 42.3355 33.9128L35.6455 22.7614V19.5762H36.7895C37.4225 19.5762 37.9336 19.0651 37.9336 18.4321C37.9336 17.7991 37.4225 17.288 36.7895 17.288H35.6455V16.1439C35.6455 15.511 35.1343 14.9998 34.5014 14.9998C33.8684 14.9998 33.3573 15.511 33.3573 16.1439V17.288H32.2132C31.5803 17.288 31.0691 17.7991 31.0691 18.4321C31.0691 19.0651 31.5803 19.5762 32.2132 19.5762H33.3573V22.7614L26.6672 33.9128C26.5589 34.0905 26.5031 34.2936 26.5031 34.5018V35.6458H19.5708C19.212 35.6458 18.8735 35.8151 18.6569 36.1011L15.2297 40.6725C14.6661 41.4223 15.2043 42.5004 16.1436 42.5004H17.2877V52.8546C17.2877 53.4875 17.7988 53.9986 18.4318 53.9986H50.568C51.2009 53.9986 51.712 53.4875 51.712 52.8546V42.5004H52.8561C53.7971 42.5004 54.3336 41.4256 53.7701 40.6725H53.7679ZM26.5025 51.7121H19.5702V42.4966H26.5025V51.7121ZM26.5025 40.2137H18.4312L20.1422 37.9306H26.5026L26.5025 40.2137ZM34.501 25.3015L36.5928 28.793H32.4023L34.4942 25.3015H34.501ZM35.6451 51.7121H33.362V47.0679H35.6451V51.7121ZM40.2113 51.7121H37.9282V45.9241C37.9282 45.2912 37.417 44.78 36.7841 44.78H32.2127C31.5797 44.78 31.0686 45.2912 31.0686 45.9241V51.7121H28.7855V34.8199L31.0297 31.0763H37.962L40.2062 34.8199V51.7121H40.2113ZM49.4268 51.7121H42.4998V42.4966H49.4268V51.7121ZM42.4998 40.2137V37.9306H48.8601L50.5762 40.2137H42.4998ZM21.9365 48.2122V45.9291C21.9365 45.2961 22.4477 44.785 23.0806 44.785C23.7136 44.785 24.2247 45.2961 24.2247 45.9291V48.2122C24.2247 48.8452 23.7136 49.3563 23.0806 49.3563C22.4477 49.3563 21.9365 48.8452 21.9365 48.2122ZM44.7827 48.2122V45.9291C44.7827 45.2961 45.2938 44.785 45.9267 44.785C46.5597 44.785 47.0708 45.2961 47.0708 45.9291V48.2122C47.0708 48.8452 46.5597 49.3563 45.9267 49.3563C45.2938 49.3563 44.7827 48.8452 44.7827 48.2122ZM34.5012 33.3594C32.6125 33.3594 31.074 34.8978 31.074 36.7866C31.074 38.6754 32.6125 40.2138 34.5012 40.2138C36.39 40.2138 37.9285 38.6754 37.9285 36.7866C37.9285 34.8978 36.39 33.3594 34.5012 33.3594ZM34.5012 37.9308C33.8734 37.9308 33.3572 37.4197 33.3572 36.7867C33.3572 36.1538 33.8683 35.6426 34.5012 35.6426C35.1342 35.6426 35.6453 36.1538 35.6453 36.7867C35.6453 37.4197 35.1342 37.9308 34.5012 37.9308Z" fill="var(--fill-0, #0025A3)"/>
</g>
</svg>
