<svg width="69" height="69" viewBox="0 0 69 69" fill="none" xmlns="http://www.w3.org/2000/svg">
<rect width="69" height="69" fill="#AEAEAE"/>
<g id="HMG &#38; 10YC">
<path d="M-5351.5 -2597V-2596H3377.5V-2597V-2598H-5351.5V-2597ZM3379.5 -2595H3378.5V3145H3379.5H3380.5V-2595H3379.5ZM3377.5 3147V3146H-5351.5V3147V3148H3377.5V3147ZM-5353.5 3145H-5352.5V-2595H-5353.5H-5354.5V3145H-5353.5ZM-5351.5 3147V3146C-5352.05 3146 -5352.5 3145.55 -5352.5 3145H-5353.5H-5354.5C-5354.5 3146.66 -5353.16 3148 -5351.5 3148V3147ZM3379.5 3145H3378.5C3378.5 3145.55 3378.05 3146 3377.5 3146V3147V3148C3379.16 3148 3380.5 3146.66 3380.5 3145H3379.5ZM3377.5 -2597V-2596C3378.05 -2596 3378.5 -2595.55 3378.5 -2595H3379.5H3380.5C3380.5 -2596.66 3379.16 -2598 3377.5 -2598V-2597ZM-5351.5 -2597V-2598C-5353.16 -2598 -5354.5 -2596.66 -5354.5 -2595H-5353.5H-5352.5C-5352.5 -2595.55 -5352.05 -2596 -5351.5 -2596V-2597Z" fill="black" fill-opacity="0.5"/>
<g id="TYC_Desktop">
<rect width="1440" height="3702" transform="translate(-685.5 -915)" fill="white"/>
<g id="Frame 160">
<g id="Frame 29">
<g id="Frame 3">
<rect width="69" height="68.9985" rx="20" fill="#E2E9FF"/>
<path id="Vector" d="M51.0562 35.6181C50.5135 35.6186 49.9814 35.769 49.5188 36.0528C49.0562 36.3366 48.681 36.7428 48.4346 37.2264L36.6353 34.0791C36.7816 33.0258 36.5797 31.9535 36.0604 31.0255L42.3181 26.4387C42.8611 26.9223 43.5639 27.1877 44.291 27.1838C45.018 27.18 45.718 26.9071 46.2558 26.4178C46.7936 25.9285 47.1313 25.2574 47.2036 24.534C47.276 23.8105 47.078 23.0858 46.6478 22.4997C46.2176 21.9135 45.5856 21.5074 44.8737 21.3595C44.1618 21.2117 43.4204 21.3326 42.7924 21.699C42.1643 22.0654 41.6942 22.6513 41.4725 23.3437C41.2508 24.0362 41.2934 24.7863 41.5919 25.4492L35.3333 30.0364C34.8793 29.5551 34.3327 29.1705 33.7263 28.9059C33.1199 28.6413 32.4662 28.5021 31.8045 28.4966L30.8777 20.5909C31.5664 20.3575 32.1442 19.8775 32.4999 19.2433C32.8556 18.6091 32.9639 17.8657 32.804 17.1564C32.6441 16.4471 32.2273 15.8222 31.6339 15.4019C31.0405 14.9817 30.3126 14.7961 29.5905 14.8807C28.8683 14.9654 28.2031 15.3144 27.723 15.8605C27.2429 16.4065 26.9819 17.111 26.9904 17.8381C26.9989 18.5651 27.2763 19.2633 27.769 19.798C28.2617 20.3327 28.9349 20.666 29.6589 20.7338L30.5853 28.6391C29.8484 28.8225 29.1638 29.1733 28.5845 29.6643C28.0053 30.1553 27.547 30.7732 27.2454 31.4701L22.4919 30.0957C22.671 29.1637 22.4929 28.1985 21.993 27.3917C21.4932 26.585 20.7081 25.9958 19.7938 25.7412C18.8796 25.4866 17.903 25.5853 17.0581 26.0176C16.2132 26.4499 15.5619 27.1842 15.2335 28.0746C14.9051 28.9651 14.9237 29.9464 15.2856 30.8238C15.6474 31.7011 16.3261 32.4103 17.1867 32.8103C18.0474 33.2103 19.027 33.2719 19.931 32.9829C20.835 32.6939 21.5971 32.0754 22.0661 31.2503L26.904 32.6488C26.7194 33.8179 26.9626 35.0143 27.589 36.0185C28.2154 37.0226 29.183 37.7672 30.3141 38.1156L28.5336 48.2556C27.8072 48.2823 27.1165 48.5769 26.5944 49.0827C26.0724 49.5885 25.7561 50.2696 25.7065 50.9948C25.6568 51.72 25.8774 52.4378 26.3256 53.01C26.7739 53.5822 27.4181 53.9682 28.134 54.0937C28.85 54.2191 29.587 54.075 30.2031 53.6893C30.8191 53.3036 31.2706 52.7034 31.4704 52.0046C31.6703 51.3057 31.6043 50.5577 31.2853 49.9045C30.9664 49.2514 30.4169 48.7395 29.7429 48.4674L31.5233 38.327C31.6027 38.3312 31.6825 38.3333 31.7628 38.3333C32.5055 38.3348 33.2389 38.167 33.9072 37.8427L35.5075 40.3055C34.9353 40.8594 34.5898 41.6066 34.5385 42.4014C34.4871 43.1962 34.7337 43.9816 35.23 44.6045C35.7263 45.2274 36.4368 45.6431 37.223 45.7706C38.0091 45.8981 38.8146 45.7283 39.4823 45.2941C40.1501 44.86 40.6322 44.1928 40.8347 43.4225C41.0372 42.6522 40.9455 41.8342 40.5776 41.1278C40.2097 40.4214 39.5919 39.8774 38.8447 39.6017C38.0975 39.3261 37.2744 39.3387 36.5359 39.637L34.9351 37.1717C35.5432 36.6577 36.018 36.0042 36.319 35.2671L48.1171 38.4143C48.1146 38.4636 48.1133 38.5134 48.1133 38.5631C48.1132 39.1453 48.2858 39.7144 48.6092 40.1985C48.9326 40.6826 49.3922 41.0599 49.9301 41.2827C50.4679 41.5056 51.0598 41.5639 51.6308 41.4503C52.2018 41.3368 52.7262 41.0564 53.1379 40.6448C53.5496 40.2331 53.8299 39.7086 53.9435 39.1376C54.057 38.5666 53.9987 37.9748 53.7759 37.437C53.553 36.8991 53.1757 36.4394 52.6916 36.116C52.2075 35.7926 51.6384 35.6201 51.0562 35.6202V35.6181ZM44.2757 22.5276C44.6151 22.5276 44.9468 22.6282 45.2289 22.8168C45.5111 23.0053 45.731 23.2732 45.8608 23.5867C45.9907 23.9002 46.0247 24.2452 45.9585 24.578C45.8923 24.9108 45.7289 25.2166 45.4889 25.4565C45.249 25.6964 44.9433 25.8598 44.6105 25.926C44.2777 25.9922 43.9327 25.9583 43.6192 25.8284C43.3057 25.6986 43.0377 25.4787 42.8492 25.1965C42.6607 24.9144 42.56 24.5826 42.56 24.2433C42.5605 23.7884 42.7414 23.3523 43.0631 23.0306C43.3847 22.709 43.8209 22.5281 44.2757 22.5276ZM18.7868 31.9347C18.2834 31.9347 17.7913 31.7854 17.3727 31.5058C16.9542 31.2261 16.628 30.8286 16.4353 30.3635C16.2427 29.8984 16.1923 29.3866 16.2906 28.8929C16.3888 28.3992 16.6313 27.9457 16.9873 27.5897C17.3432 27.2338 17.7968 26.9915 18.2905 26.8933C18.7842 26.7951 19.296 26.8456 19.7611 27.0383C20.2261 27.231 20.6236 27.5573 20.9032 27.9759C21.1828 28.3945 21.332 28.8866 21.3319 29.39C21.3308 30.0647 21.0622 30.7114 20.5851 31.1885C20.1079 31.6655 19.4615 31.9338 18.7868 31.9347ZM30.3567 51.1977C30.3567 51.537 30.2561 51.8687 30.0675 52.1509C29.879 52.433 29.6111 52.6529 29.2976 52.7828C28.9841 52.9126 28.6391 52.9466 28.3063 52.8804C27.9735 52.8142 27.6677 52.6508 27.4278 52.4109C27.1879 52.1709 27.0245 51.8652 26.9583 51.5324C26.8921 51.1996 26.926 50.8546 27.0559 50.5411C27.1857 50.2276 27.4057 49.9597 27.6878 49.7711C27.9699 49.5826 28.3017 49.482 28.641 49.482C29.0955 49.4825 29.5313 49.6633 29.8528 49.9845C30.1743 50.3058 30.3554 50.7415 30.3563 51.196L30.3567 51.1977ZM39.7224 42.61C39.7224 43.0024 39.606 43.386 39.388 43.7123C39.17 44.0385 38.8601 44.2928 38.4976 44.443C38.135 44.5931 37.7361 44.6324 37.3513 44.5558C36.9664 44.4792 36.6129 44.2902 36.3354 44.0127C36.058 43.7352 35.8691 43.3817 35.7926 42.9968C35.7161 42.6119 35.7554 42.213 35.9056 41.8505C36.0559 41.488 36.3102 41.1781 36.6365 40.9602C36.9628 40.7422 37.3465 40.6259 37.7389 40.626C38.2648 40.6267 38.769 40.8359 39.1409 41.2079C39.5127 41.5798 39.7219 42.0841 39.7224 42.61ZM28.2177 17.8038C28.2177 17.4645 28.3183 17.1328 28.5069 16.8506C28.6954 16.5685 28.9633 16.3486 29.2768 16.2187C29.5903 16.0888 29.9353 16.0549 30.2681 16.1211C30.6009 16.1873 30.9066 16.3507 31.1466 16.5906C31.3865 16.8306 31.5499 17.1363 31.6161 17.4691C31.6823 17.8019 31.6484 18.1469 31.5185 18.4604C31.3886 18.7739 31.1687 19.0418 30.8866 19.2304C30.6044 19.4189 30.2727 19.5195 29.9334 19.5195C29.4785 19.5191 29.0424 19.3382 28.7207 19.0165C28.399 18.6948 28.2181 18.2587 28.2177 17.8038ZM31.7628 37.106C31.0326 37.1061 30.3189 36.8897 29.7117 36.4841C29.1046 36.0786 28.6313 35.5021 28.3518 34.8276C28.0723 34.1531 27.9991 33.4108 28.1414 32.6947C28.2838 31.9785 28.6353 31.3207 29.1515 30.8043C29.6677 30.288 30.3254 29.9362 31.0415 29.7937C31.7575 29.6511 32.4998 29.7241 33.1744 30.0033C33.849 30.2826 34.4257 30.7557 34.8315 31.3627C35.2372 31.9697 35.4539 32.6834 35.4541 33.4135C35.4533 34.3924 35.0642 35.3309 34.3721 36.0232C33.6801 36.7155 32.7416 37.1049 31.7628 37.106ZM51.0562 40.2767C50.7169 40.2767 50.3852 40.1761 50.103 39.9876C49.8209 39.799 49.601 39.5311 49.4711 39.2176C49.3413 38.9041 49.3073 38.5591 49.3735 38.2263C49.4397 37.8935 49.6031 37.5878 49.843 37.3478C50.083 37.1079 50.3887 36.9445 50.7215 36.8783C51.0543 36.8121 51.3993 36.8461 51.7128 36.9759C52.0263 37.1058 52.2943 37.3257 52.4828 37.6078C52.6713 37.89 52.7719 38.2217 52.7719 38.561C52.7714 39.0159 52.5904 39.4519 52.2688 39.7736C51.9472 40.0952 51.5111 40.2762 51.0562 40.2767Z" fill="#002CBB" stroke="#002CBB" stroke-width="1.18182"/>
</g>
</g>
</g>
</g>
</g>
</svg>
