<svg width="118" height="70" viewBox="0 0 118 70" fill="none" xmlns="http://www.w3.org/2000/svg">
<g opacity="0.15" clip-path="url(#clip0_3839_1438)">
<path d="M83.4119 37.0152C91.5925 37.0152 98.1467 30.6434 98.1467 22.75C98.1467 14.8566 91.5925 8.48486 83.4119 8.48486C75.2314 8.48486 68.6278 14.8566 68.6278 22.75C68.6278 30.6434 75.2314 37.0152 83.4119 37.0152ZM43.9876 37.0152C52.1681 37.0152 58.7224 30.6434 58.7224 22.75C58.7224 14.8566 52.1681 8.48486 43.9876 8.48486C35.8071 8.48486 29.2035 14.8566 29.2035 22.75C29.2035 30.6434 35.8071 37.0152 43.9876 37.0152ZM43.9876 46.5253C32.5053 46.5253 9.49133 52.0887 9.49133 63.168V75.0556H78.4839V63.168C78.4839 52.0887 55.4699 46.5253 43.9876 46.5253ZM83.4119 46.5253C81.9828 46.5253 80.3565 46.6204 78.6317 46.763C84.3482 50.7573 88.34 56.1305 88.34 63.168V75.0556H117.908V63.168C117.908 52.0887 94.8942 46.5253 83.4119 46.5253Z" fill="#EFBA31"/>
</g>
<defs>
<clipPath id="clip0_3839_1438">
<rect width="118" height="70" fill="white"/>
</clipPath>
</defs>
</svg>
