<svg width="181" height="165" viewBox="0 0 181 165" fill="none" xmlns="http://www.w3.org/2000/svg">
<g opacity="0.15" clip-path="url(#clip0_3837_576)">
<path d="M102.334 87.25C120.939 87.25 135.846 72.2308 135.846 53.625C135.846 35.0192 120.939 20 102.334 20C83.7277 20 68.7085 35.0192 68.7085 53.625C68.7085 72.2308 83.7277 87.25 102.334 87.25ZM12.6668 87.25C31.2727 87.25 46.1797 72.2308 46.1797 53.625C46.1797 35.0192 31.2727 20 12.6668 20C-5.939 20 -20.9582 35.0192 -20.9582 53.625C-20.9582 72.2308 -5.939 87.25 12.6668 87.25ZM12.6668 109.667C-13.4486 109.667 -65.7915 122.78 -65.7915 148.896V176.917H91.1252V148.896C91.1252 122.78 38.7822 109.667 12.6668 109.667ZM102.334 109.667C99.0831 109.667 95.3843 109.891 91.4614 110.227C104.463 119.642 113.542 132.308 113.542 148.896V176.917H180.792V148.896C180.792 122.78 128.449 109.667 102.334 109.667Z" fill="#EFBA31"/>
</g>
<defs>
<clipPath id="clip0_3837_576">
<rect width="181" height="165" fill="white"/>
</clipPath>
</defs>
</svg>
