<svg width="202" height="166" viewBox="0 0 202 166" fill="none" xmlns="http://www.w3.org/2000/svg">
<g clip-path="url(#clip0_3837_610)">
<path d="M171.392 37.0097C162.49 34.2029 152.706 32.9999 143.324 32.9999C127.685 32.9999 110.844 36.2078 99.2157 45.0294C87.5872 36.2078 70.7461 32.9999 55.1078 32.9999C39.4696 32.9999 22.6284 36.2078 11 45.0294V169.333C22.6284 160.512 39.4696 157.304 55.1078 157.304C70.7461 157.304 87.5872 160.512 99.2157 169.333C110.844 160.512 127.685 157.304 143.324 157.304C152.706 157.304 162.49 158.507 171.392 161.314C177.407 163.319 182.62 165.724 187.431 169.333V45.0294C182.62 41.4205 177.407 39.0146 171.392 37.0097ZM171.392 145.274C162.571 142.468 152.947 141.265 143.324 141.265C129.69 141.265 110.042 146.477 99.2157 153.294V61.0686C110.042 54.2519 129.69 49.0392 143.324 49.0392C152.947 49.0392 162.571 50.2421 171.392 53.049V145.274Z" fill="#DFE7FF"/>
</g>
<defs>
<clipPath id="clip0_3837_610">
<rect width="202" height="166" fill="white"/>
</clipPath>
</defs>
</svg>
