<svg width="32" height="32" viewBox="0 0 32 32" fill="none" xmlns="http://www.w3.org/2000/svg">
<path d="M16 29.3334C8.63602 29.3334 2.66669 23.364 2.66669 16C2.66669 8.63602 8.63602 2.66669 16 2.66669C23.364 2.66669 29.3334 8.63602 29.3334 16C29.3334 23.364 23.364 29.3334 16 29.3334ZM16 26.6667C18.829 26.6667 21.5421 25.5429 23.5425 23.5425C25.5429 21.5421 26.6667 18.829 26.6667 16C26.6667 13.171 25.5429 10.4579 23.5425 8.45755C21.5421 6.45716 18.829 5.33335 16 5.33335C13.171 5.33335 10.4579 6.45716 8.45755 8.45755C6.45716 10.4579 5.33335 13.171 5.33335 16C5.33335 18.829 6.45716 21.5421 8.45755 23.5425C10.4579 25.5429 13.171 26.6667 16 26.6667ZM14.1627 11.22L20.668 15.556C20.7412 15.6047 20.8012 15.6707 20.8427 15.7482C20.8842 15.8256 20.9059 15.9121 20.9059 16C20.9059 16.0879 20.8842 16.1744 20.8427 16.2519C20.8012 16.3293 20.7412 16.3953 20.668 16.444L14.1614 20.78C14.0811 20.8332 13.988 20.8637 13.8919 20.8682C13.7957 20.8728 13.7001 20.8512 13.6152 20.8058C13.5303 20.7604 13.4593 20.6929 13.4097 20.6105C13.3601 20.528 13.3337 20.4336 13.3334 20.3374V11.6627C13.3335 11.5662 13.3599 11.4716 13.4096 11.3889C13.4593 11.3062 13.5304 11.2386 13.6156 11.1932C13.7007 11.1477 13.7965 11.1263 13.8928 11.131C13.9892 11.1357 14.0824 11.1665 14.1627 11.22Z" fill="#AD8A76"/>
</svg>
