<svg width="40" height="40" viewBox="0 0 40 40" fill="none" xmlns="http://www.w3.org/2000/svg">
<g clip-path="url(#clip0_4782_7389)">
<path d="M19.9997 36.6666C10.7947 36.6666 3.33301 29.2049 3.33301 19.9999C3.33301 10.7949 10.7947 3.33325 19.9997 3.33325C29.2047 3.33325 36.6663 10.7949 36.6663 19.9999C36.6663 29.2049 29.2047 36.6666 19.9997 36.6666ZM19.9997 33.3333C23.5359 33.3333 26.9273 31.9285 29.4278 29.428C31.9283 26.9275 33.333 23.5361 33.333 19.9999C33.333 16.4637 31.9283 13.0723 29.4278 10.5718C26.9273 8.07134 23.5359 6.66659 19.9997 6.66659C16.4635 6.66659 13.0721 8.07134 10.5716 10.5718C8.0711 13.0723 6.66634 16.4637 6.66634 19.9999C6.66634 23.5361 8.0711 26.9275 10.5716 29.428C13.0721 31.9285 16.4635 33.3333 19.9997 33.3333ZM11.6663 19.1666L26.6663 13.3333L20.833 28.3366L18.333 21.6666L11.6663 19.1666Z" fill="#21A0A7"/>
</g>
<defs>
<clipPath id="clip0_4782_7389">
<rect width="40" height="40" fill="white"/>
</clipPath>
</defs>
</svg>
