<svg width="24" height="24" viewBox="0 0 24 24" fill="none" xmlns="http://www.w3.org/2000/svg">
<path d="M19.9916 12.1499C19.9916 11.4944 19.9372 11.016 19.8194 10.52H12.1594V13.4786H16.6556C16.565 14.2139 16.0755 15.3212 14.9877 16.0653L14.9724 16.1643L17.3944 17.9978L17.5622 18.0142C19.1032 16.6234 19.9916 14.5771 19.9916 12.1499Z" fill="#4285F4"/>
<path d="M12.1594 19.9451C14.3622 19.9451 16.2114 19.2364 17.5622 18.0139L14.9877 16.0651C14.2988 16.5345 13.3741 16.8623 12.1594 16.8623C10.0019 16.8623 8.17082 15.4716 7.51807 13.5493L7.4224 13.5573L4.90403 15.4618L4.87109 15.5513C6.21271 18.1556 8.96849 19.9451 12.1594 19.9451Z" fill="#34A853"/>
<path d="M7.51793 13.5495C7.3457 13.0535 7.24602 12.5219 7.24602 11.9727C7.24602 11.4235 7.3457 10.892 7.50887 10.3959L7.50431 10.2903L4.95438 8.35513L4.87096 8.39391C4.31801 9.47464 4.00073 10.6883 4.00073 11.9727C4.00073 13.2572 4.31801 14.4707 4.87096 15.5515L7.51793 13.5495Z" fill="#FBBC05"/>
<path d="M12.1594 7.08272C13.6914 7.08272 14.7248 7.72937 15.314 8.26977L17.6165 6.07289C16.2024 4.78843 14.3622 4.00003 12.1594 4.00003C8.96848 4.00003 6.2127 5.7894 4.87109 8.39374L7.50901 10.3958C8.17081 8.4735 10.0019 7.08272 12.1594 7.08272Z" fill="#EB4335"/>
</svg>
