<svg width="41" height="41" viewBox="0 0 41 41" fill="none" xmlns="http://www.w3.org/2000/svg">
<g id="location">
<path id="Vector" d="M20.4997 3.83325C14.0497 3.83325 8.83301 9.04992 8.83301 15.4999C8.83301 22.4499 16.1997 32.0333 19.233 35.6833C19.8997 36.4833 21.1163 36.4833 21.783 35.6833C24.7997 32.0333 32.1663 22.4499 32.1663 15.4999C32.1663 9.04992 26.9497 3.83325 20.4997 3.83325ZM20.4997 19.6666C18.1997 19.6666 16.333 17.7999 16.333 15.4999C16.333 13.1999 18.1997 11.3333 20.4997 11.3333C22.7997 11.3333 24.6663 13.1999 24.6663 15.4999C24.6663 17.7999 22.7997 19.6666 20.4997 19.6666Z" fill="#EBBB41"/>
</g>
</svg>
