<svg width="40" height="40" viewBox="0 0 40 40" fill="none" xmlns="http://www.w3.org/2000/svg">
<path d="M26.667 18.3333C29.4337 18.3333 31.6503 16.0999 31.6503 13.3333C31.6503 10.5666 29.4337 8.33325 26.667 8.33325C23.9003 8.33325 21.667 10.5666 21.667 13.3333C21.667 16.0999 23.9003 18.3333 26.667 18.3333ZM13.3337 18.3333C16.1003 18.3333 18.317 16.0999 18.317 13.3333C18.317 10.5666 16.1003 8.33325 13.3337 8.33325C10.567 8.33325 8.33366 10.5666 8.33366 13.3333C8.33366 16.0999 10.567 18.3333 13.3337 18.3333ZM13.3337 21.6666C9.45033 21.6666 1.66699 23.6166 1.66699 27.4999V29.9999C1.66699 30.9166 2.41699 31.6666 3.33366 31.6666H23.3337C24.2503 31.6666 25.0003 30.9166 25.0003 29.9999V27.4999C25.0003 23.6166 17.217 21.6666 13.3337 21.6666ZM26.667 21.6666C26.1837 21.6666 25.6337 21.6999 25.0503 21.7499C25.0837 21.7666 25.1003 21.7999 25.117 21.8166C27.017 23.1999 28.3337 25.0499 28.3337 27.4999V29.9999C28.3337 30.5833 28.217 31.1499 28.0337 31.6666H36.667C37.5837 31.6666 38.3337 30.9166 38.3337 29.9999V27.4999C38.3337 23.6166 30.5503 21.6666 26.667 21.6666Z" fill="#D46764"/>
</svg>
