<svg width="111" height="67" viewBox="0 0 111 67" fill="none" xmlns="http://www.w3.org/2000/svg">
<g filter="url(#filter0_d_3398_5305)">
<path d="M35.6641 23.0415V8.56597H39.7379L47.5547 17.7683L46.6862 17.4788C46.6035 16.8997 46.5345 16.3897 46.4794 15.9485C46.438 15.5073 46.3967 15.1075 46.3553 14.7491C46.3277 14.3769 46.3071 14.0184 46.2933 13.6738C46.2795 13.3291 46.2726 12.9638 46.2726 12.5778C46.2726 12.1917 46.2726 11.7506 46.2726 11.2543V8.56597H50.5739V23.0415H46.4587L37.9595 12.9086L39.5518 13.4049C39.5932 13.7772 39.6345 14.1218 39.6759 14.4389C39.731 14.7422 39.7724 15.0455 39.8 15.3488C39.8413 15.6383 39.8689 15.9554 39.8827 16.3C39.9103 16.6447 39.9309 17.0445 39.9447 17.4994C39.9585 17.9544 39.9654 18.4852 39.9654 19.0918V23.0415H35.6641ZM64.951 23.2483C63.6965 23.2483 62.5522 23.0622 61.5183 22.69C60.4981 22.3177 59.602 21.7939 58.83 21.1183C58.0717 20.429 57.4858 19.6294 57.0722 18.7195C56.6724 17.7958 56.4725 16.7895 56.4725 15.7003C56.4725 14.6112 56.6724 13.6117 57.0722 12.7018C57.4858 11.7782 58.0717 10.9786 58.83 10.303C59.602 9.61372 60.4981 9.08295 61.5183 8.71072C62.5522 8.3385 63.6896 8.15238 64.9304 8.15238C66.1711 8.15238 67.3016 8.3385 68.3218 8.71072C69.3557 9.08295 70.2519 9.61372 71.0101 10.303C71.7683 10.9786 72.3543 11.7782 72.7678 12.7018C73.1814 13.6117 73.3882 14.6043 73.3882 15.6797C73.3882 16.7688 73.1814 17.7752 72.7678 18.6988C72.3543 19.6225 71.7683 20.429 71.0101 21.1183C70.2519 21.7939 69.3557 22.3177 68.3218 22.69C67.3016 23.0622 66.178 23.2483 64.951 23.2483ZM64.9304 19.1124C65.4956 19.1124 66.0126 19.0297 66.4813 18.8643C66.9638 18.6988 67.3843 18.4645 67.7428 18.1612C68.1012 17.8441 68.37 17.4788 68.5493 17.0652C68.7423 16.6516 68.8388 16.1966 68.8388 15.7003C68.8388 15.204 68.7423 14.7491 68.5493 14.3355C68.37 13.9219 68.1012 13.5635 67.7428 13.2602C67.3843 12.9431 66.9638 12.7018 66.4813 12.5364C66.0126 12.371 65.4956 12.2882 64.9304 12.2882C64.3651 12.2882 63.8413 12.371 63.3587 12.5364C62.89 12.7018 62.4764 12.9431 62.118 13.2602C61.7595 13.5773 61.4838 13.9426 61.2908 14.3562C61.1116 14.7698 61.022 15.2178 61.022 15.7003C61.022 16.1966 61.1116 16.6516 61.2908 17.0652C61.4838 17.465 61.7595 17.8234 62.118 18.1405C62.4764 18.4576 62.89 18.6988 63.3587 18.8643C63.8413 19.0297 64.3651 19.1124 64.9304 19.1124Z" fill="url(#paint0_linear_3398_5305)"/>
<path d="M16.4236 40.4812C15.169 40.4812 14.0248 40.2951 12.9908 39.9229C11.9706 39.5506 11.0745 39.0268 10.3025 38.3512C9.54425 37.6619 8.95833 36.8623 8.54474 35.9524C8.14494 35.0288 7.94504 34.0224 7.94504 32.9332C7.94504 31.8441 8.14494 30.8446 8.54474 29.9347C8.95833 29.0111 9.54425 28.2115 10.3025 27.5359C11.0745 26.8466 11.9706 26.3159 12.9908 25.9436C14.0248 25.5714 15.1621 25.3853 16.4029 25.3853C17.6437 25.3853 18.7741 25.5714 19.7943 25.9436C20.8283 26.3159 21.7244 26.8466 22.4826 27.5359C23.2409 28.2115 23.8268 29.0111 24.2404 29.9347C24.6539 30.8446 24.8607 31.8372 24.8607 32.9126C24.8607 34.0017 24.6539 35.0081 24.2404 35.9318C23.8268 36.8554 23.2409 37.6619 22.4826 38.3512C21.7244 39.0268 20.8283 39.5506 19.7943 39.9229C18.7741 40.2951 17.6505 40.4812 16.4236 40.4812ZM16.4029 36.3453C16.9681 36.3453 17.4851 36.2626 17.9538 36.0972C18.4364 35.9318 18.8568 35.6974 19.2153 35.3941C19.5737 35.077 19.8426 34.7117 20.0218 34.2981C20.2148 33.8845 20.3113 33.4296 20.3113 32.9332C20.3113 32.4369 20.2148 31.982 20.0218 31.5684C19.8426 31.1548 19.5737 30.7964 19.2153 30.4931C18.8568 30.176 18.4364 29.9347 17.9538 29.7693C17.4851 29.6039 16.9681 29.5212 16.4029 29.5212C15.8377 29.5212 15.3138 29.6039 14.8313 29.7693C14.3625 29.9347 13.9489 30.176 13.5905 30.4931C13.2321 30.8102 12.9563 31.1755 12.7633 31.5891C12.5841 32.0027 12.4945 32.4507 12.4945 32.9332C12.4945 33.4296 12.5841 33.8845 12.7633 34.2981C12.9563 34.6979 13.2321 35.0563 13.5905 35.3734C13.9489 35.6905 14.3625 35.9318 14.8313 36.0972C15.3138 36.2626 15.8377 36.3453 16.4029 36.3453ZM33.9936 40.2744V29.6039H28.9478V25.7989H43.6301V29.6039H38.4603V40.2744H33.9936ZM59.0004 40.2744V25.7989H63.4671V40.2744H59.0004ZM49.2191 40.2744V25.7989H53.6858V40.2744H49.2191ZM50.8941 35.0425L50.9148 31.1548H61.5233V35.0425H50.8941ZM70.2296 40.2744V25.7989H82.2029V29.4178H74.5102V36.6555H82.5752V40.2744H70.2296ZM72.4423 34.6496V31.2582H81.4378V34.6496H72.4423ZM88.6754 40.2744V25.7989H96.0786C97.2366 25.7989 98.2292 25.9919 99.0564 26.3779C99.8836 26.7639 100.511 27.3085 100.938 28.0116C101.379 28.7009 101.6 29.5212 101.6 30.4724C101.6 31.465 101.366 32.3404 100.897 33.0987C100.442 33.8431 99.8009 34.4291 98.9737 34.8564C98.1603 35.2838 97.2366 35.4975 96.2027 35.4975H92.8526V40.2744H88.6754ZM97.2987 40.2744L93.1214 33.7397L97.7329 33.2228L102.324 40.2744H97.2987ZM92.8526 32.3956H95.5616C95.9063 32.3956 96.1958 32.3335 96.4301 32.2095C96.6783 32.0854 96.8713 31.9062 97.0092 31.6718C97.147 31.4374 97.216 31.1479 97.216 30.8033C97.216 30.4862 97.147 30.2174 97.0092 29.9968C96.8713 29.7762 96.6714 29.6108 96.4095 29.5005C96.1613 29.3764 95.8511 29.3144 95.4789 29.3144H92.8526V32.3956Z" fill="url(#paint1_linear_3398_5305)"/>
<path d="M17.3848 57.5073V43.0318H21.4586L29.2754 52.2341L28.4069 51.9446C28.3242 51.3656 28.2552 50.8555 28.2001 50.4143C28.1587 49.9732 28.1174 49.5734 28.076 49.2149C28.0484 48.8427 28.0277 48.4842 28.014 48.1396C28.0002 47.7949 27.9933 47.4296 27.9933 47.0436C27.9933 46.6576 27.9933 46.2164 27.9933 45.7201V43.0318H32.2946V57.5073H28.1794L19.6802 47.3745L21.2725 47.8708C21.3139 48.243 21.3552 48.5876 21.3966 48.9047C21.4517 49.208 21.4931 49.5113 21.5207 49.8146C21.562 50.1041 21.5896 50.4212 21.6034 50.7659C21.6309 51.1105 21.6516 51.5103 21.6654 51.9653C21.6792 52.4202 21.6861 52.951 21.6861 53.5576V57.5073H17.3848ZM36.3321 57.5073L42.722 43.0318H46.3822L52.7308 57.5073H48.264L45.3276 50.6831C45.1759 50.2971 45.0381 49.9594 44.914 49.6699C44.8037 49.3666 44.7003 49.0839 44.6038 48.822C44.5211 48.5463 44.4384 48.2706 44.3556 47.9948C44.2729 47.7053 44.1902 47.3882 44.1075 47.0436H44.8933C44.8244 47.402 44.7417 47.726 44.6452 48.0155C44.5624 48.305 44.4728 48.5807 44.3763 48.8427C44.2798 49.1046 44.1695 49.3803 44.0455 49.6699C43.9214 49.9594 43.7835 50.2971 43.6319 50.6831L40.6954 57.5073H36.3321ZM39.4546 55.4394L40.7988 52.3995H48.3054L49.2566 55.4394H39.4546ZM56.7765 57.5073V43.0318H60.6228L66.4131 51.4483L63.3939 51.4276L69.2461 43.0318H73.0098V57.5073H68.7085V53.9712C68.7085 52.7718 68.736 51.6758 68.7912 50.6831C68.8601 49.6767 68.9704 48.6704 69.1221 47.664L69.5977 49.0081L65.5445 54.4675H64.1797L60.1472 48.9668L60.6642 47.664C60.8159 48.6428 60.9193 49.6285 60.9744 50.6211C61.0433 51.5999 61.0778 52.7166 61.0778 53.9712V57.5073H56.7765ZM79.2693 57.5073V43.0318H91.2426V46.6507H83.5499V53.8884H91.6149V57.5073H79.2693ZM81.482 51.8825V48.4911H90.4775V51.8825H81.482Z" fill="url(#paint2_linear_3398_5305)"/>
<path d="M36.905 21.6626V7.18706H40.9789L48.7957 16.3894L47.9271 16.0999C47.8444 15.5208 47.7755 15.0107 47.7203 14.5696C47.679 14.1284 47.6376 13.7286 47.5963 13.3702C47.5687 12.998 47.548 12.6395 47.5342 12.2949C47.5204 11.9502 47.5135 11.5849 47.5135 11.1989C47.5135 10.8128 47.5135 10.3717 47.5135 9.87538V7.18706H51.8148V21.6626H47.6996L39.2004 11.5297L40.7928 12.026C40.8341 12.3983 40.8755 12.7429 40.9168 13.06C40.972 13.3633 41.0133 13.6666 41.0409 13.9699C41.0823 14.2594 41.1098 14.5765 41.1236 14.9211C41.1512 15.2658 41.1719 15.6656 41.1857 16.1205C41.1994 16.5755 41.2063 17.1063 41.2063 17.7128V21.6626H36.905ZM66.192 21.8694C64.9374 21.8694 63.7932 21.6833 62.7592 21.311C61.739 20.9388 60.8429 20.4149 60.0709 19.7394C59.3127 19.0501 58.7267 18.2505 58.3132 17.3406C57.9134 16.4169 57.7135 15.4105 57.7135 14.3214C57.7135 13.2323 57.9134 12.2328 58.3132 11.3229C58.7267 10.3993 59.3127 9.59965 60.0709 8.92413C60.8429 8.23482 61.739 7.70405 62.7592 7.33182C63.7932 6.95959 64.9305 6.77348 66.1713 6.77348C67.4121 6.77348 68.5425 6.95959 69.5627 7.33182C70.5967 7.70405 71.4928 8.23482 72.251 8.92413C73.0093 9.59965 73.5952 10.3993 74.0088 11.3229C74.4224 12.2328 74.6292 13.2254 74.6292 14.3008C74.6292 15.3899 74.4224 16.3963 74.0088 17.3199C73.5952 18.2436 73.0093 19.0501 72.251 19.7394C71.4928 20.4149 70.5967 20.9388 69.5627 21.311C68.5425 21.6833 67.419 21.8694 66.192 21.8694ZM66.1713 17.7335C66.7365 17.7335 67.2535 17.6508 67.7223 17.4854C68.2048 17.3199 68.6253 17.0856 68.9837 16.7823C69.3421 16.4652 69.611 16.0999 69.7902 15.6863C69.9832 15.2727 70.0797 14.8177 70.0797 14.3214C70.0797 13.8251 69.9832 13.3702 69.7902 12.9566C69.611 12.543 69.3421 12.1846 68.9837 11.8813C68.6253 11.5642 68.2048 11.3229 67.7223 11.1575C67.2535 10.9921 66.7365 10.9093 66.1713 10.9093C65.6061 10.9093 65.0822 10.9921 64.5997 11.1575C64.1309 11.3229 63.7174 11.5642 63.3589 11.8813C63.0005 12.1984 62.7247 12.5637 62.5317 12.9773C62.3525 13.3909 62.2629 13.8389 62.2629 14.3214C62.2629 14.8177 62.3525 15.2727 62.5317 15.6863C62.7247 16.0861 63.0005 16.4445 63.3589 16.7616C63.7174 17.0787 64.1309 17.3199 64.5997 17.4854C65.0822 17.6508 65.6061 17.7335 66.1713 17.7335Z" fill="white"/>
<path d="M17.6645 39.1023C16.4099 39.1023 15.2657 38.9162 14.2317 38.544C13.2115 38.1717 12.3154 37.6479 11.5434 36.9723C10.7852 36.283 10.1992 35.4834 9.78565 34.5735C9.38585 33.6498 9.18595 32.6435 9.18595 31.5543C9.18595 30.4652 9.38585 29.4657 9.78565 28.5558C10.1992 27.6322 10.7852 26.8326 11.5434 26.157C12.3154 25.4677 13.2115 24.937 14.2317 24.5647C15.2657 24.1925 16.403 24.0064 17.6438 24.0064C18.8846 24.0064 20.015 24.1925 21.0352 24.5647C22.0692 24.937 22.9653 25.4677 23.7235 26.157C24.4818 26.8326 25.0677 27.6322 25.4813 28.5558C25.8949 29.4657 26.1016 30.4583 26.1016 31.5337C26.1016 32.6228 25.8949 33.6292 25.4813 34.5528C25.0677 35.4765 24.4818 36.283 23.7235 36.9723C22.9653 37.6479 22.0692 38.1717 21.0352 38.544C20.015 38.9162 18.8915 39.1023 17.6645 39.1023ZM17.6438 34.9664C18.209 34.9664 18.726 34.8837 19.1947 34.7183C19.6773 34.5528 20.0977 34.3185 20.4562 34.0152C20.8146 33.6981 21.0835 33.3328 21.2627 32.9192C21.4557 32.5056 21.5522 32.0506 21.5522 31.5543C21.5522 31.058 21.4557 30.6031 21.2627 30.1895C21.0835 29.7759 20.8146 29.4175 20.4562 29.1142C20.0977 28.7971 19.6773 28.5558 19.1947 28.3904C18.726 28.225 18.209 28.1423 17.6438 28.1423C17.0786 28.1423 16.5547 28.225 16.0722 28.3904C15.6034 28.5558 15.1898 28.7971 14.8314 29.1142C14.473 29.4313 14.1972 29.7966 14.0042 30.2102C13.825 30.6238 13.7354 31.0718 13.7354 31.5543C13.7354 32.0506 13.825 32.5056 14.0042 32.9192C14.1972 33.319 14.473 33.6774 14.8314 33.9945C15.1898 34.3116 15.6034 34.5528 16.0722 34.7183C16.5547 34.8837 17.0786 34.9664 17.6438 34.9664ZM35.2345 38.8955V28.225H30.1887V24.42H44.8711V28.225H39.7012V38.8955H35.2345ZM60.2413 38.8955V24.42H64.708V38.8955H60.2413ZM50.46 38.8955V24.42H54.9267V38.8955H50.46ZM52.135 33.6636L52.1557 29.7759H62.7642V33.6636H52.135ZM71.4705 38.8955V24.42H83.4438V28.0389H75.7511V35.2766H83.8161V38.8955H71.4705ZM73.6832 33.2707V29.8793H82.6787V33.2707H73.6832ZM89.9163 38.8955V24.42H97.3195C98.4775 24.42 99.4702 24.613 100.297 24.999C101.124 25.385 101.752 25.9296 102.179 26.6327C102.62 27.322 102.841 28.1423 102.841 29.0935C102.841 30.0861 102.607 30.9615 102.138 31.7198C101.683 32.4642 101.042 33.0501 100.215 33.4775C99.4012 33.9049 98.4775 34.1186 97.4436 34.1186H94.0935V38.8955H89.9163ZM98.5396 38.8955L94.3624 32.3608L98.9738 31.8439L103.565 38.8955H98.5396ZM94.0935 31.0167H96.8025C97.1472 31.0167 97.4367 30.9546 97.671 30.8306C97.9192 30.7065 98.1122 30.5273 98.2501 30.2929C98.3879 30.0585 98.4569 29.769 98.4569 29.4244C98.4569 29.1073 98.3879 28.8385 98.2501 28.6179C98.1122 28.3973 97.9123 28.2319 97.6504 28.1216C97.4022 27.9975 97.092 27.9355 96.7198 27.9355H94.0935V31.0167Z" fill="white"/>
<path d="M18.6257 56.1284V41.6529H22.6995L30.5163 50.8552L29.6478 50.5657C29.5651 49.9867 29.4962 49.4766 29.441 49.0354C29.3997 48.5942 29.3583 48.1944 29.3169 47.836C29.2894 47.4638 29.2687 47.1053 29.2549 46.7607C29.2411 46.416 29.2342 46.0507 29.2342 45.6647C29.2342 45.2787 29.2342 44.8375 29.2342 44.3412V41.6529H33.5355V56.1284H29.4203L20.9211 45.9955L22.5134 46.4918C22.5548 46.8641 22.5962 47.2087 22.6375 47.5258C22.6927 47.8291 22.734 48.1324 22.7616 48.4357C22.8029 48.7252 22.8305 49.0423 22.8443 49.387C22.8719 49.7316 22.8926 50.1314 22.9063 50.5864C22.9201 51.0413 22.927 51.5721 22.927 52.1787V56.1284H18.6257ZM37.573 56.1284L43.9629 41.6529H47.6232L53.9717 56.1284H49.505L46.5685 49.3042C46.4169 48.9182 46.279 48.5805 46.1549 48.2909C46.0446 47.9877 45.9412 47.705 45.8447 47.4431C45.762 47.1674 45.6793 46.8916 45.5966 46.6159C45.5139 46.3264 45.4311 46.0093 45.3484 45.6647H46.1342C46.0653 46.0231 45.9826 46.3471 45.8861 46.6366C45.8034 46.9261 45.7138 47.2018 45.6173 47.4638C45.5208 47.7257 45.4105 48.0014 45.2864 48.2909C45.1623 48.5805 45.0245 48.9182 44.8728 49.3042L41.9363 56.1284H37.573ZM40.6956 54.0605L42.0397 51.0206H49.5463L50.4976 54.0605H40.6956ZM58.0174 56.1284V41.6529H61.8638L67.654 50.0694L64.6348 50.0487L70.4871 41.6529H74.2507V56.1284H69.9494V52.5923C69.9494 51.3929 69.977 50.2968 70.0321 49.3042C70.1011 48.2978 70.2113 47.2914 70.363 46.2851L70.8386 47.6292L66.7855 53.0886H65.4206L61.3882 47.5879L61.9051 46.2851C62.0568 47.2639 62.1602 48.2496 62.2153 49.2422C62.2843 50.221 62.3187 51.3377 62.3187 52.5923V56.1284H58.0174ZM80.5102 56.1284V41.6529H92.4836V45.2718H84.7909V52.5095H92.8558V56.1284H80.5102ZM82.7229 50.5036V47.1122H91.7184V50.5036H82.7229Z" fill="white"/>
</g>
<defs>
<filter id="filter0_d_3398_5305" x="0.607796" y="0.87487" width="110.294" height="65.4084" filterUnits="userSpaceOnUse" color-interpolation-filters="sRGB">
<feFlood flood-opacity="0" result="BackgroundImageFix"/>
<feColorMatrix in="SourceAlpha" type="matrix" values="0 0 0 0 0 0 0 0 0 0 0 0 0 0 0 0 0 0 127 0" result="hardAlpha"/>
<feOffset dy="1.43868"/>
<feGaussianBlur stdDeviation="3.66862"/>
<feComposite in2="hardAlpha" operator="out"/>
<feColorMatrix type="matrix" values="0 0 0 0 0 0 0 0 0 0 0 0 0 0 0 0 0 0 0.05 0"/>
<feBlend mode="normal" in2="BackgroundImageFix" result="effect1_dropShadow_3398_5305"/>
<feBlend mode="normal" in="SourceGraphic" in2="effect1_dropShadow_3398_5305" result="shape"/>
</filter>
<linearGradient id="paint0_linear_3398_5305" x1="63.9506" y1="9.69904" x2="44.345" y2="25.1716" gradientUnits="userSpaceOnUse">
<stop stop-color="#FF5D21"/>
<stop offset="1" stop-color="#1456D5"/>
</linearGradient>
<linearGradient id="paint1_linear_3398_5305" x1="78.0057" y1="26.9319" x2="61.0986" y2="58.0656" gradientUnits="userSpaceOnUse">
<stop stop-color="#FF5D21"/>
<stop offset="1" stop-color="#1456D5"/>
</linearGradient>
<linearGradient id="paint2_linear_3398_5305" x1="72.7039" y1="44.1649" x2="54.0231" y2="71.8954" gradientUnits="userSpaceOnUse">
<stop stop-color="#FF5D21"/>
<stop offset="1" stop-color="#1456D5"/>
</linearGradient>
</defs>
</svg>
