<svg width="123" height="75" viewBox="0 0 123 75" fill="none" xmlns="http://www.w3.org/2000/svg">
<path d="M10.3695 34.9214C8.32997 34.9214 6.60123 34.5426 5.18328 33.7851C3.78475 33.0276 2.71643 31.9592 1.97832 30.5801C1.24021 29.1816 0.871155 27.5306 0.871155 25.627V3.79437L3.5808 0.611938L6.29045 3.79437V25.7436C6.29045 27.0061 6.64008 28.0065 7.33934 28.7446C8.05803 29.4827 9.06808 29.8517 10.3695 29.8517C11.6709 29.8517 12.6712 29.4924 13.3705 28.7737C14.0698 28.0356 14.4194 27.0255 14.4194 25.7436V12.8946H26.5249L27.9483 17.5272L19.8387 12.8946V25.627C19.8387 28.4823 19.0229 30.7452 17.3913 32.4157C15.7791 34.0862 13.4385 34.9214 10.3695 34.9214Z" fill="#2E9AFA"/>
<path d="M26.5249 34.3387V12.8946H34.7122C36.538 12.8946 38.1114 13.2054 39.4322 13.8269C40.7724 14.4291 41.8019 15.3032 42.5206 16.4492C43.2393 17.5952 43.5986 18.9646 43.5986 20.5574V21.0235C43.5986 22.5969 43.2393 23.9566 42.5206 25.1026C41.8019 26.2486 40.7724 27.1324 39.4322 27.7539C38.1114 28.3755 36.538 28.6863 34.7122 28.6863H31.9442V34.3387H26.5249ZM34.8578 17.5564H31.9442V24.0245H34.8578C35.8485 24.0245 36.6351 23.7429 37.2178 23.1796C37.82 22.5969 38.1211 21.8005 38.1211 20.7904C38.1211 19.761 37.82 18.9646 37.2178 18.4013C36.6351 17.838 35.8485 17.5564 34.8578 17.5564Z" fill="#2E9AFA"/>
<path d="M56.5009 34.9214C54.5196 34.9214 52.8492 34.6106 51.4895 33.989C50.1492 33.3675 49.1295 32.5225 48.4302 31.4542C47.7504 30.3665 47.4104 29.1233 47.4104 27.7248H52.6549C52.6549 28.5018 52.9657 29.1525 53.5873 29.6769C54.2283 30.1819 55.1995 30.4345 56.5009 30.4345C57.6275 30.4345 58.5015 30.2208 59.1231 29.7935C59.7641 29.3661 60.0846 28.7931 60.0846 28.0744C60.0846 27.4529 59.8224 26.977 59.2979 26.6468C58.7735 26.2971 57.8897 26.0738 56.6465 25.9767L55.2772 25.8601C53.0822 25.6659 51.3341 24.9763 50.0327 23.7915C48.7313 22.6066 48.0806 21.0332 48.0806 19.0714C48.0806 16.9931 48.7992 15.3712 50.2366 14.2057C51.674 13.0208 53.597 12.4284 56.0056 12.4284C57.7537 12.4284 59.2299 12.7198 60.4342 13.3025C61.6579 13.8852 62.5903 14.7107 63.2313 15.7791C63.8723 16.828 64.1928 18.0517 64.1928 19.4502H58.9483C58.9483 18.7509 58.6861 18.1585 58.1616 17.6729C57.6566 17.1679 56.9379 16.9154 56.0056 16.9154C55.1121 16.9154 54.4419 17.1193 53.9952 17.5272C53.5484 17.9351 53.325 18.4499 53.325 19.0714C53.325 19.6153 53.5096 20.0815 53.8786 20.4699C54.2477 20.8584 54.8887 21.0915 55.8016 21.1692L57.171 21.2858C58.7638 21.4217 60.172 21.7714 61.3957 22.3347C62.6194 22.8785 63.5809 23.6264 64.2802 24.5781C64.9794 25.5299 65.3291 26.6953 65.3291 28.0744C65.3291 29.4535 64.9697 30.6578 64.251 31.6873C63.5518 32.7168 62.5417 33.5132 61.2209 34.0765C59.9195 34.6398 58.3461 34.9214 56.5009 34.9214Z" fill="#2E9AFA"/>
<path d="M70.9576 34.3387V13.0694H76.3768V34.3387H70.9576Z" fill="#2E9AFA"/>
<path d="M83.512 34.4552V12.8946H91.6118C93.5348 12.8946 95.2149 13.1665 96.6523 13.7104C98.1091 14.2543 99.3231 15.0118 100.294 15.983C101.266 16.9348 101.994 18.042 102.479 19.3045C102.965 20.5671 103.208 21.9073 103.208 23.3253V23.9663C103.208 25.2677 102.965 26.5497 102.479 27.8122C101.994 29.0554 101.266 30.1819 100.294 31.192C99.3231 32.1826 98.1091 32.979 96.6523 33.5811C95.2149 34.1639 93.5348 34.4552 91.6118 34.4552H83.512ZM91.8449 17.9643H88.9313V29.3856H91.8449C93.6902 29.3856 95.1275 28.8708 96.157 27.8414C97.2059 26.8119 97.7303 25.4134 97.7303 23.6458C97.7303 21.7811 97.2059 20.3728 96.157 19.4211C95.1275 18.4499 93.6902 17.9643 91.8449 17.9643Z" fill="#2E9AFA"/>
<path d="M108.957 34.3387V13.0694H122.418V17.4981H114.202V21.3149H121.981V25.7436H114.202V29.91H122.593V34.3387H108.957Z" fill="#2E9AFA"/>
<path fill-rule="evenodd" clip-rule="evenodd" d="M1.1362 62.0914V37.5315H10.5317C12.5976 37.5315 14.4707 37.8337 16.1194 38.4798C17.7246 39.1089 19.1037 39.9837 20.2215 41.1226C21.3352 42.2376 22.1781 43.5286 22.7394 44.9863C23.2943 46.4081 23.5692 47.9036 23.5692 49.4618V50.1028C23.5692 51.5957 23.2898 53.0528 22.738 54.4653C22.1779 55.899 21.3406 57.1897 20.2421 58.3334C19.1306 59.5113 17.7563 60.4287 16.1517 61.1009L16.1437 61.1042L16.1357 61.1075C14.482 61.7779 12.603 62.0914 10.5317 62.0914H1.1362ZM19.156 57.2994C20.1272 56.2894 20.8556 55.1628 21.3412 53.9196C21.8268 52.6765 22.0696 51.4042 22.0696 50.1028V49.4618C22.0696 48.0827 21.8268 46.7716 21.3412 45.5285C20.8556 44.2659 20.1272 43.149 19.156 42.1778C18.2042 41.2066 17.0096 40.4394 15.5722 39.8761C14.1349 39.3128 12.4547 39.0311 10.5317 39.0311H2.63585V60.5918H10.5317C12.4547 60.5918 14.1349 60.3004 15.5722 59.7177C17.0096 59.1155 18.2042 58.3094 19.156 57.2994ZM14.4768 46.2328L14.472 46.2282C13.6725 45.4558 12.51 44.9886 10.7939 44.9886H8.9138V54.6343H10.7939C12.4886 54.6343 13.6415 54.1511 14.4447 53.3343C15.2695 52.4955 15.7333 51.3623 15.7333 49.7823C15.7333 48.0768 15.2544 46.9709 14.4816 46.2374L14.4768 46.2328ZM7.41415 56.134V43.4889H10.7939C12.7946 43.4889 14.3679 44.0425 15.514 45.1497C16.66 46.2374 17.233 47.7816 17.233 49.7823C17.233 51.6859 16.66 53.2204 15.514 54.3858C14.3679 55.5512 12.7946 56.134 10.7939 56.134H7.41415ZM36.1824 61.3957L36.1713 61.3904C34.5841 60.6294 33.2362 59.6235 32.1556 58.3628L32.1513 58.3578L32.1471 58.3528C31.1115 57.123 30.3202 55.7888 29.7896 54.3517L29.7848 54.3387L29.7803 54.3257C29.2852 52.905 29.0266 51.495 29.0266 50.1028V49.4618C29.0266 47.9605 29.2923 46.4859 29.8162 45.0451L29.8196 45.0357L29.8231 45.0264C30.3767 43.5649 31.1949 42.2406 32.2665 41.0585C33.3706 39.8207 34.7328 38.8561 36.3264 38.1564C37.9711 37.4144 39.8273 37.0653 41.8602 37.0653C43.8931 37.0653 45.7494 37.4144 47.3941 38.1564C48.9876 38.8561 50.3498 39.8208 51.4539 41.0586C52.5254 42.2406 53.3436 43.5649 53.8972 45.0264C54.4446 46.4716 54.7229 47.9526 54.7229 49.4618V50.1028C54.7229 51.5034 54.4514 52.92 53.9333 54.3447L53.932 54.3482L53.9308 54.3517C53.4001 55.7888 52.6089 57.123 51.5732 58.3528L51.569 58.3578L51.5648 58.3628C50.4808 59.6274 49.1197 60.6338 47.5127 61.3938L47.5087 61.3957L47.5047 61.3976C45.8484 62.1691 43.9529 62.5285 41.8602 62.5285C39.7668 62.5285 37.865 62.1688 36.1935 61.4009L36.1824 61.3957ZM50.3387 42.0613C49.387 40.993 48.2021 40.148 46.7842 39.5264C45.3662 38.8855 43.7249 38.565 41.8602 38.565C39.9955 38.565 38.3541 38.8855 36.9362 39.5264C35.5182 40.148 34.3334 40.993 33.3816 42.0613C32.4298 43.1102 31.7111 44.2756 31.2255 45.5576C30.7594 46.8396 30.5263 48.141 30.5263 49.4618V50.1028C30.5263 51.3071 30.7497 52.5502 31.1964 53.8322C31.6626 55.0948 32.3618 56.2796 33.2942 57.3868C34.2265 58.4746 35.4017 59.3583 36.8196 60.0382C38.257 60.6986 39.9372 61.0288 41.8602 61.0288C43.7831 61.0288 45.4536 60.6986 46.8716 60.0382C48.3089 59.3583 49.4938 58.4746 50.4262 57.3868C51.3585 56.2796 52.0578 55.0948 52.5239 53.8322C52.9901 52.5502 53.2232 51.3071 53.2232 50.1028V49.4618C53.2232 48.141 52.9804 46.8396 52.4948 45.5576C52.0092 44.2756 51.2905 43.1102 50.3387 42.0613ZM44.5428 54.3897L44.5484 54.3863C45.302 53.9283 45.8661 53.3201 46.2637 52.5396C46.6727 51.7368 46.887 50.8364 46.887 49.8114C46.887 48.7009 46.6599 47.7866 46.2504 47.0261L46.2423 47.0111L46.2346 46.9959C45.8351 46.2118 45.2807 45.6177 44.5558 45.1828C43.8573 44.7637 42.9789 44.5224 41.8602 44.5224C40.7414 44.5224 39.8631 44.7637 39.1646 45.1828C38.4397 45.6177 37.8852 46.2118 37.4858 46.9959L37.4831 47.001L37.4804 47.0062C37.0834 47.7708 36.8625 48.6924 36.8625 49.8114C36.8625 50.8364 37.0768 51.7368 37.4858 52.5396C37.8873 53.3279 38.4475 53.9371 39.1832 54.3932C39.8787 54.8244 40.7502 55.0714 41.8602 55.0714C42.9702 55.0714 43.8417 54.8244 44.5371 54.3932L44.5428 54.3897ZM65.0303 61.9749L59.0463 37.7063H67.0811L70.1105 51.0047L72.4153 38.493H79.7735L82.4241 50.9793L85.0476 37.7063H92.8055L87.4864 61.9749H77.6715L76.1295 54.9074L74.6839 61.9749H65.0303ZM76.0822 47.6554L78.8793 60.4752H86.2798L90.9416 39.2059H86.2798L82.8418 56.6001H82.0842L78.5588 39.9926H73.6639L70.6047 56.6001H69.8471L65.8846 39.2059H60.9606L66.2051 60.4752H73.46L76.0822 47.6554ZM122.46 70.1864V37.7063H112.162L106.202 50.6457V37.7063H98.7156V61.9749H109.071L115.032 49.0355V70.1864L118.746 74.5654L122.46 70.1864ZM116.531 43.081H116.123L108.111 60.4752H100.215V39.2059H104.702V56.6001H105.11L113.122 39.2059H120.96V69.5802L118.746 72.2922L116.531 69.5802V43.081ZM45.3274 55.6678C44.3562 56.2699 43.2004 56.571 41.8602 56.571C40.5199 56.571 39.3642 56.2699 38.393 55.6678C37.4218 55.0656 36.674 54.2498 36.1495 53.2204C35.6251 52.1909 35.3628 51.0546 35.3628 49.8114C35.3628 48.4906 35.6251 47.3252 36.1495 46.3151C36.674 45.2857 37.4218 44.4796 38.393 43.8968C39.3642 43.3141 40.5199 43.0228 41.8602 43.0228C43.2004 43.0228 44.3562 43.3141 45.3274 43.8968C46.2986 44.4796 47.0464 45.2857 47.5708 46.3151C48.1147 47.3252 48.3866 48.4906 48.3866 49.8114C48.3866 51.0546 48.1244 52.1909 47.6 53.2204C47.0755 54.2498 46.318 55.0656 45.3274 55.6678Z" fill="#2E9AFA"/>
</svg>
