<svg width="96" height="78" viewBox="0 0 96 78" fill="none" xmlns="http://www.w3.org/2000/svg">
<path d="M52.6546 67.1345C55.6383 62.5712 58.1833 58.7098 60.2895 55.5506C62.3956 52.2158 64.063 49.1443 65.2916 46.336C66.5203 43.3522 67.3978 40.1052 67.9244 36.5949C68.4509 33.0846 68.7142 28.7845 68.7142 23.6945L95.3047 21.0618C95.3047 27.9069 94.2516 34.401 92.1455 40.544C90.0393 46.687 87.1433 52.7423 83.4575 58.7098C79.9472 64.6773 75.9981 70.9081 71.6102 77.4022L52.6546 67.1345ZM73.9796 41.8604C67.8366 41.8604 62.8344 39.9297 58.9731 36.0684C55.1118 32.207 53.1811 27.2048 53.1811 21.0618C53.1811 15.2698 55.1118 10.3554 58.9731 6.31854C62.8344 2.10618 67.8366 0 73.9796 0C79.9472 0 84.9493 2.10618 88.9862 6.31854C93.1986 10.3554 95.3047 15.2698 95.3047 21.0618C95.3047 27.2048 93.1986 32.207 88.9862 36.0684C84.9493 39.9297 79.9472 41.8604 73.9796 41.8604ZM0 67.1345C2.98376 62.5712 5.52873 58.7098 7.63491 55.5506C9.74109 52.2158 11.4085 49.1443 12.6371 46.336C13.8657 43.3522 14.7433 40.1052 15.2698 36.5949C15.7964 33.0846 16.0596 28.7845 16.0596 23.6945L42.6502 21.0618C42.6502 27.9069 41.5971 34.401 39.4909 40.544C37.3847 46.687 34.4887 52.7423 30.8029 58.7098C27.2926 64.6773 23.3435 70.9081 18.9556 77.4022L0 67.1345ZM21.3251 41.8604C15.1821 41.8604 10.1799 39.9297 6.31855 36.0684C2.45721 32.207 0.526546 27.2048 0.526546 21.0618C0.526546 15.2698 2.45721 10.3554 6.31855 6.31854C10.1799 2.10618 15.1821 0 21.3251 0C27.2926 0 32.2948 2.10618 36.3316 6.31854C40.544 10.3554 42.6502 15.2698 42.6502 21.0618C42.6502 27.2048 40.544 32.207 36.3316 36.0684C32.2948 39.9297 27.2926 41.8604 21.3251 41.8604Z" fill="#FE6F3A"/>
</svg>
