<svg width="96" height="78" viewBox="0 0 96 78" fill="none" xmlns="http://www.w3.org/2000/svg">
<path d="M21.3251 35.5418C27.2926 35.5418 32.207 37.5603 36.0684 41.5971C40.1052 45.4584 42.1236 50.3729 42.1236 56.3404C42.1236 62.1324 40.1052 67.1346 36.0684 71.3469C32.207 75.5593 27.2926 77.6655 21.3251 77.6655C15.5331 77.6655 10.5309 75.5593 6.31855 71.3469C2.10618 67.1346 0 62.1324 0 56.3404C0 50.3729 2.10618 45.4584 6.31855 41.5971C10.5309 37.5603 15.5331 35.5418 21.3251 35.5418ZM42.6502 10.5309C39.4909 15.0943 36.8582 19.0434 34.752 22.3782C32.8213 25.5375 31.2417 28.609 30.0131 31.5928C28.7845 34.401 27.9069 37.5603 27.3804 41.0706C26.8538 44.4053 26.5905 48.6177 26.5905 53.7076L0 56.3404C0 49.4953 1.05309 43.089 3.15928 37.1215C5.26546 30.9784 8.0737 24.9232 11.584 18.9556C15.2698 12.8126 19.3067 6.49407 23.6945 0L42.6502 10.5309ZM73.9796 35.5418C79.9472 35.5418 84.8616 37.5603 88.7229 41.5971C92.7598 45.4584 94.7782 50.3729 94.7782 56.3404C94.7782 62.1324 92.7598 67.1346 88.7229 71.3469C84.8616 75.5593 79.9472 77.6655 73.9796 77.6655C68.1876 77.6655 63.1855 75.5593 58.9731 71.3469C54.7607 67.1346 52.6546 62.1324 52.6546 56.3404C52.6546 50.3729 54.7607 45.4584 58.9731 41.5971C63.1855 37.5603 68.1876 35.5418 73.9796 35.5418ZM95.3047 10.5309C92.1455 15.0943 89.5127 19.0434 87.4066 22.3782C85.4759 25.5375 83.8962 28.609 82.6676 31.5928C81.439 34.401 80.5615 37.5603 80.0349 41.0706C79.5084 44.4053 79.2451 48.6177 79.2451 53.7076L52.6546 56.3404C52.6546 49.4953 53.7076 43.089 55.8138 37.1215C57.92 30.9784 60.7283 24.9232 64.2386 18.9556C67.9244 12.8126 71.9612 6.49407 76.3491 0L95.3047 10.5309Z" fill="#FE6F3A"/>
</svg>
