<svg width="64" height="64" viewBox="0 0 64 64" fill="none" xmlns="http://www.w3.org/2000/svg">
<circle cx="32" cy="32" r="32" fill="#959799"/>
<path d="M30.5 44C30.5 44.8284 31.1716 45.5 32 45.5C32.8284 45.5 33.5 44.8284 33.5 44L30.5 44ZM33.0607 18.9393C32.4749 18.3536 31.5251 18.3536 30.9393 18.9393L21.3934 28.4853C20.8076 29.0711 20.8076 30.0208 21.3934 30.6066C21.9792 31.1924 22.9289 31.1924 23.5147 30.6066L32 22.1213L40.4853 30.6066C41.0711 31.1924 42.0208 31.1924 42.6066 30.6066C43.1924 30.0208 43.1924 29.0711 42.6066 28.4853L33.0607 18.9393ZM33.5 44L33.5 20L30.5 20L30.5 44L33.5 44Z" fill="#E6E6E6"/>
</svg>
