<svg width="275" height="107" xmlns="http://www.w3.org/2000/svg" xmlns:xlink="http://www.w3.org/1999/xlink"><defs><path id="a" d="M0 288h288V0H0z"/><path id="c" d="M0 288h288V0H0z"/><path id="e" d="M0 288h288V0H0z"/><path id="g" d="M.803 61.005h115.989V.615H.802z"/><path id="i" d="M1.28 39.56h72.259V.647H1.28z"/><path id="k" d="M.295 20.388h36.872V.547H.295z"/></defs><g fill="none" fill-rule="evenodd"><g transform="matrix(1 0 0 -1 -7 204)"><mask id="b" fill="#fff"><use xlink:href="#a"/></mask><g mask="url(#b)"><path d="M128.352 111.638c-26.776 1.48-56.157 10.844-54.984 20.237 1.788 14.435 54.684 18.255 54.684 18.255-2.517.13-11.561-.096-11.561-.096-30.483.193-60.204-8.756-60.31-19.12-.106-10.367 37.23-19.203 67.737-19.415 2.273-.014.672.018 2.888.107l1.546.032zM160.105 149.766c27.972-1.69 59.546-9.386 58.244-18.538-2.005-14.015-58.318-19.834-58.318-19.834.713 0 2.42.106 2.42.106 31.784.6 70.212 8.709 70.421 18.79.205 10.083-34.679 19.032-66.535 19.516-2.389.05-2.3.032-4.606-.006l-1.626-.034z" fill="#ffffff" fill-rule="nonzero"/><path d="M136.132 121.825c-13.667.73-28.508 5.52-27.917 10.318.922 7.362 27.91 9.313 27.91 9.313-1.286.064-5.893-.047-5.893-.047-15.559.096-30.73-4.477-30.78-9.76-.048-5.285 18.853-9.8 34.399-9.897 1.172-.008.356.016 1.481.048l.8.025zM152.478 141.425c14.273-.875 30.392-4.792 29.72-9.47-1.019-7.134-29.655-10.114-29.655-10.114.363 0 1.23.05 1.23.05 16.225.307 35.733 4.45 35.83 9.588.115 5.146-17.69 9.702-33.936 9.962-1.232.022-1.181.014-2.354 0l-.835-.016z" fill="#ffffff" fill-rule="nonzero"/><path d="M119.245 98.214c-41.487 2.266-86.964 16.774-85.159 31.34 2.784 22.34 84.673 28.248 84.673 28.248-3.869.226-17.86-.146-17.86-.146-47.256.324-93.273-13.561-93.428-29.582-.153-16.063 42.482-29.764 89.715-30.08 3.53-.024 16.232.033 19.67.154l2.389.066zM167.536 157.761c43.323-2.621 93.575-14.541 91.55-28.701-3.106-21.687-91.728-30.716-91.728-30.716 8.15-1.198 20.344.145 20.344.145 49.204.939 93.565 13.496 93.88 29.099.324 15.616-53.722 29.477-103.058 30.238-3.697.066-4.888.056-8.469-.025l-2.519-.04zM146.945 190.648c-.954-1.236-2.31-2.223-3.828-2.267-1.514-.044-3.449.284-4.477 1.46-1.03 1.176-1.707 2.14-1.805 5.196-.056 1.84.922 4.197 1.881 5.433 1.141 1.252 2.48 1.69 3.997 1.734 1.516.046 2.927-.954 3.954-2.132 1.034-1.176 1.698-2.826 1.75-4.666.056-1.84-.508-3.524-1.472-4.758m-2.418 12.817c-5.096 0-9.228-4.404-9.228-9.836 0-5.43 4.133-9.836 9.228-9.836 5.193 0 9.229 4.405 9.229 9.836 0 5.432-4.132 9.836-9.23 9.836" fill="#ffffff" fill-rule="nonzero"/></g></g><g transform="matrix(1 0 0 -1 -7 204)"><mask id="d" fill="#fff"><use xlink:href="#c"/></mask><g mask="url(#d)"><path d="M121.9 97.824C57.502 93.871 8.391 110.64 8.391 128.138c0 17.498 50.443 32.88 113.01 30.2-44.377-4.108-85.987-13.5-85.987-28.683 0-17.197 48.242-30.493 86.486-31.83" fill="#ffffff" fill-rule="nonzero"/><path d="M130.813 111.45c-29.01-1.991-73.31 5.609-73.31 19.593 0 12.396 41.28 21.388 72.992 19.502-22.202-.288-55.52-8.768-55.52-18.528 0-10.597 32.226-20.704 55.838-20.566" fill="#ffffff" fill-rule="nonzero"/><path d="M136.04 121.805c-14.14-1.947-37.258 2.042-37.258 9.969 0 6.068 21.202 12.064 37.258 9.952-14.14-1.99-28.34-3.788-28.34-9.43 0-6.8 16.218-8.905 28.34-10.491M168.286 97.824c64.4-3.953 113.511 12.815 113.511 30.314 0 17.498-50.443 32.88-113.01 30.2 44.375-4.108 85.986-13.5 85.986-28.683 0-17.197-48.241-30.493-86.487-31.83" fill="#ffffff" fill-rule="nonzero"/><path d="M159.375 111.45c29.008-1.991 73.31 5.609 73.31 19.593 0 12.396-41.28 21.388-72.993 19.502 22.202-.288 55.52-8.768 55.52-18.528 0-10.597-32.225-20.704-55.837-20.566" fill="#ffffff" fill-rule="nonzero"/><path d="M154.147 121.805c14.139-1.947 37.259 2.042 37.259 9.969 0 6.068-21.203 12.064-37.259 9.952 14.139-1.99 28.34-3.788 28.34-9.43 0-6.8-16.217-8.905-28.34-10.491M142.667 188.904c-3.263 0-5.907 2.818-5.907 6.295s2.644 6.296 5.907 6.296c3.262 0 5.906-2.819 5.906-6.296 0-3.477-2.644-6.295-5.906-6.295m1.861 14.562c-5.097 0-9.23-4.404-9.23-9.838 0-5.432 4.133-9.834 9.23-9.834s9.228 4.402 9.228 9.834c0 5.434-4.13 9.838-9.228 9.838" fill="#ffffff" fill-rule="nonzero"/></g></g><g transform="matrix(1 0 0 -1 -7 204)"><mask id="f" fill="#fff"><use xlink:href="#e"/></mask><g mask="url(#f)"><g transform="translate(161.333 97.333)"><mask id="h" fill="#fff"><use xlink:href="#g"/></mask><g opacity=".2" mask="url(#h)" fill="#ffffff" fill-rule="nonzero"><path d="M.802.616c64.972 0 115.99 11.752 115.99 29.72 0 17.968-60.434 30.67-113.274 30.67 52.077-4.909 90.416-15.1 90.416-29.19 0-14.088-48.805-26.93-93.132-31.2"/></g></g><g transform="translate(157.333 110.667)"><mask id="j" fill="#fff"><use xlink:href="#i"/></mask><g opacity=".2" mask="url(#j)" fill="#ffffff" fill-rule="nonzero"><path d="M2.01.647c40.8 0 71.528 11.054 71.528 19.09 0 8.038-29.832 19.824-72.258 19.824 34.336-3.791 57.516-9.368 57.516-18.868 0-9.506-31.232-17.18-56.786-20.046"/></g></g><g transform="translate(153.333 121.333)"><mask id="l" fill="#fff"><use xlink:href="#k"/></mask><g opacity=".2" mask="url(#l)" fill="#ffffff" fill-rule="nonzero"><path d="M.294 20.388c18.138 0 36.872-4.14 36.872-10.11C37.166 4.312 13.634.546.765.546 15.846 2.97 29.637 5.625 29.637 10.764c0 5.147-11.505 7.712-29.343 9.624"/></g></g></g></g></g></svg>