<svg width="533" height="203" viewBox="0 0 533 203" fill="none" xmlns="http://www.w3.org/2000/svg">
<g clip-path="url(#clip0_2256_13781)">
<mask id="mask0_2256_13781" style="mask-type:alpha" maskUnits="userSpaceOnUse" x="-14" y="-160" width="559" height="548">
<path d="M-13.5669 -159.365H544.629V387.027H-13.5669V-159.365Z" fill="white"/>
</mask>
<g mask="url(#mask0_2256_13781)">
<path d="M222.698 201.437C97.8829 208.937 2.69678 177.123 2.69678 143.925C2.69678 110.728 100.465 81.5456 221.731 86.63C135.72 94.4237 55.0723 112.242 55.0723 141.047C55.0723 173.673 148.574 198.899 222.698 201.435" fill="black"/>
<path d="M239.973 175.586C183.746 179.363 97.8848 164.944 97.8848 138.414C97.8848 114.896 177.893 97.8366 239.357 101.415C196.325 101.961 131.749 118.049 131.749 136.566C131.749 156.671 194.209 175.845 239.973 175.584" fill="black"/>
<path d="M250.104 155.94C222.698 159.634 177.891 152.066 177.891 137.027C177.891 125.515 218.984 114.139 250.104 118.146C222.698 121.922 195.176 125.333 195.176 136.037C195.176 148.938 226.609 152.931 250.104 155.94V155.94ZM312.602 201.437C437.421 208.937 532.607 177.124 532.607 143.925C532.607 110.728 434.84 81.5454 313.574 86.6299C399.58 94.4236 480.23 112.242 480.23 141.047C480.23 173.673 386.73 198.898 312.602 201.435" fill="black"/>
<path d="M295.332 175.586C351.554 179.363 437.419 164.944 437.419 138.414C437.419 114.896 357.411 97.8366 295.946 101.415C338.977 101.961 403.553 118.049 403.553 136.566C403.553 156.671 341.096 175.845 295.332 175.584" fill="black"/>
<path d="M285.199 155.94C312.603 159.634 357.413 152.066 357.413 137.027C357.413 125.515 316.318 114.139 285.199 118.146C312.603 121.921 340.127 125.333 340.127 136.037C340.127 148.938 308.695 152.931 285.199 155.94V155.94ZM262.948 28.6402C256.624 28.6402 251.5 23.2939 251.5 16.6973C251.5 10.1008 256.624 4.75262 262.948 4.75262C269.271 4.75262 274.395 10.1008 274.395 16.6973C274.395 23.2939 269.271 28.6402 262.948 28.6402ZM266.555 1.01323C256.677 1.01323 248.666 9.36847 248.666 19.6778C248.666 29.9834 256.677 38.3348 266.555 38.3348C276.434 38.3348 284.441 29.9834 284.441 19.6778C284.441 9.36847 276.436 1.01323 266.555 1.01323Z" fill="black"/>
</g>
</g>
<defs>
<clipPath id="clip0_2256_13781">
<rect width="533" height="203" fill="white"/>
</clipPath>
</defs>
</svg>
